<svg width="132" height="132" viewBox="0 0 132 132" fill="none" xmlns="http://www.w3.org/2000/svg">
<path d="M54.5379 83.0861H30.9249C25.2385 83.0817 19.7856 80.8243 15.7602 76.808C11.7347 72.7918 9.46476 67.3441 9.44737 61.6578C9.42997 55.9714 11.6666 50.5099 15.6674 46.4691C19.6682 42.4284 25.1072 40.1376 30.7934 40.0984H32.4898C34.0547 22.9307 48.5257 9.43164 66.0003 9.43164C83.4748 9.43164 97.9458 22.9307 99.3792 40.0984H101.076C106.762 40.1034 112.214 42.3613 116.239 46.3778C120.264 50.3942 122.534 55.8419 122.551 61.5281C122.568 67.2142 120.331 72.6754 116.33 76.7159C112.329 80.7565 106.891 83.047 101.205 83.0861H54.5379Z" fill="#00EFD1"/>
<path d="M65.9997 51.9961C65.4527 51.9961 64.9281 52.2134 64.5413 52.6002C64.1545 52.987 63.9372 53.5116 63.9372 54.0586V110.445C63.9377 110.716 63.9916 110.984 64.0957 111.234C64.1998 111.484 64.3522 111.711 64.544 111.902C64.7359 112.093 64.9636 112.245 65.214 112.348C65.4644 112.451 65.7327 112.504 66.0036 112.503C66.2744 112.503 66.5425 112.449 66.7926 112.345C67.0426 112.241 67.2697 112.088 67.4609 111.897C67.652 111.705 67.8035 111.477 67.9067 111.227C68.0099 110.976 68.0627 110.708 68.0622 110.437V54.0586C68.0622 53.5116 67.8449 52.987 67.4581 52.6002C67.0713 52.2134 66.5467 51.9961 65.9997 51.9961ZM41.7653 111.082C42.3129 111.08 42.8376 110.862 43.2243 110.474C43.611 110.087 43.828 109.561 43.8278 109.014V99.5161H54.5374C55.1065 99.4991 55.648 99.267 56.0527 98.8665C56.4575 98.4661 56.6954 97.9271 56.7185 97.3582V54.0586C56.7185 53.5116 56.5012 52.987 56.1144 52.6002C55.7276 52.2134 55.203 51.9961 54.656 51.9961C54.109 51.9961 53.5844 52.2134 53.1976 52.6002C52.8108 52.987 52.5935 53.5116 52.5935 54.0586V95.3911H41.6519C41.3921 95.3826 41.1333 95.4277 40.8918 95.5238C40.6503 95.6199 40.4312 95.7648 40.2482 95.9494C40.0653 96.1341 39.9224 96.3545 39.8286 96.5969C39.7347 96.8393 39.6919 97.0985 39.7028 97.3582V109.024C39.7029 109.295 39.7564 109.563 39.8601 109.813C39.9639 110.062 40.1159 110.289 40.3075 110.481C40.499 110.672 40.7264 110.823 40.9766 110.926C41.2267 111.029 41.4948 111.082 41.7653 111.082ZM77.4621 99.5161H88.1716V109.024C88.173 109.571 88.3916 110.095 88.7793 110.481C89.1671 110.867 89.6922 111.083 90.2392 111.082C90.7863 111.08 91.3103 110.862 91.6961 110.474C92.082 110.086 92.298 109.561 92.2966 109.014V97.3582C92.3075 97.0985 92.2647 96.8393 92.1709 96.5969C92.077 96.3545 91.9342 96.1341 91.7512 95.9494C91.5682 95.7648 91.3491 95.6199 91.1076 95.5238C90.8661 95.4277 90.6073 95.3826 90.3475 95.3911H79.406V54.0586C79.406 53.5116 79.1887 52.987 78.8019 52.6002C78.4151 52.2134 77.8905 51.9961 77.3435 51.9961C76.7965 51.9961 76.2719 52.2134 75.8851 52.6002C75.4983 52.987 75.281 53.5116 75.281 54.0586V97.3582C75.3041 97.9271 75.542 98.4661 75.9467 98.8665C76.3515 99.267 76.893 99.4991 77.4621 99.5161Z" fill="#FEDB41"/>
<path d="M66.0002 108.374C64.06 108.375 62.1799 109.048 60.6804 110.279C59.1809 111.511 58.1548 113.224 57.7768 115.127C57.3988 117.03 57.6923 119.005 58.6074 120.716C59.5225 122.427 61.0025 123.768 62.7952 124.51C64.588 125.252 66.5826 125.35 68.4392 124.786C70.2957 124.222 71.8994 123.032 72.977 121.419C74.0546 119.805 74.5394 117.868 74.3488 115.937C74.1582 114.006 73.304 112.201 71.9317 110.829C71.1545 110.048 70.23 109.429 69.2119 109.008C68.1938 108.586 67.1021 108.371 66.0002 108.374ZM47.5839 109.409C46.2119 108.037 44.4067 107.183 42.4758 106.993C40.5448 106.803 38.6077 107.288 36.9945 108.366C35.3813 109.444 34.1918 111.048 33.6286 112.905C33.0654 114.762 33.1635 116.756 33.9061 118.549C34.6487 120.341 35.9898 121.821 37.701 122.735C39.4122 123.65 41.3875 123.943 43.2905 123.564C45.1934 123.186 46.9062 122.159 48.137 120.659C49.3678 119.159 50.0405 117.279 50.0403 115.339C50.0431 114.237 49.8275 113.146 49.4059 112.128C48.9842 111.11 48.365 110.186 47.5839 109.409ZM96.2793 109.409C95.5005 108.63 94.5759 108.012 93.5582 107.59C92.5405 107.168 91.4497 106.951 90.348 106.951C89.2464 106.951 88.1556 107.168 87.1379 107.59C86.1202 108.012 85.1956 108.63 84.4168 109.409C83.2431 110.582 82.4437 112.077 82.1196 113.705C81.7956 115.332 81.9616 117.019 82.5965 118.553C83.2314 120.086 84.3068 121.396 85.6866 122.319C87.0664 123.241 88.6886 123.733 90.3482 123.733C92.0077 123.733 93.63 123.241 95.0098 122.319C96.3896 121.396 97.4649 120.086 98.0999 118.553C98.7348 117.019 98.9007 115.332 98.5767 113.705C98.2527 112.077 97.453 110.582 96.2793 109.409Z" fill="#00ACEA"/>
</svg>
