<svg width="20" height="20" viewBox="0 0 20 20" fill="none" xmlns="http://www.w3.org/2000/svg">
<path d="M7.83398 13.75L10.0007 11.5833L12.1673 13.75L13.334 12.5833L11.1673 10.4167L13.334 8.25L12.1673 7.08333L10.0007 9.25L7.83398 7.08333L6.66732 8.25L8.83398 10.4167L6.66732 12.5833L7.83398 13.75ZM5.83398 17.5C5.37565 17.5 4.98343 17.3369 4.65732 17.0108C4.33065 16.6842 4.16732 16.2917 4.16732 15.8333V5H3.33398V3.33333H7.50065V2.5H12.5007V3.33333H16.6673V5H15.834V15.8333C15.834 16.2917 15.6709 16.6842 15.3448 17.0108C15.0182 17.3369 14.6257 17.5 14.1673 17.5H5.83398ZM14.1673 5H5.83398V15.8333H14.1673V5Z" fill="#EA1A1A"/>
</svg>
