<svg width="351" height="291" viewBox="0 0 351 291" fill="none" xmlns="http://www.w3.org/2000/svg">
<g clip-path="url(#clip0_330_9564)">
<path opacity="0.2" d="M176.13 195.43C177.002 195.691 177.875 195.905 178.749 196.094C176.313 200.149 175.134 204.832 175.361 209.554C175.589 214.276 177.211 218.826 180.025 222.629C182.839 226.432 186.718 229.318 191.173 230.925C195.629 232.531 200.461 232.785 205.06 231.655C206.504 234.521 208.583 237.022 211.138 238.968C213.693 240.914 216.659 242.254 219.81 242.887C222.961 243.521 226.215 243.43 229.326 242.623C232.437 241.816 235.323 240.313 237.766 238.228C241.012 243.583 246.17 247.513 252.201 249.227C258.233 250.942 264.691 250.314 270.278 247.47C275.864 244.626 280.165 239.777 282.315 233.898C284.465 228.019 284.305 221.545 281.867 215.779C282.602 216.055 283.351 216.317 284.117 216.546C289.078 218.033 294.31 218.394 299.429 217.603C304.547 216.812 309.424 214.888 313.702 211.974C317.98 209.059 321.551 205.227 324.153 200.757C326.756 196.288 328.324 191.294 328.743 186.142C329.163 180.99 328.422 175.809 326.577 170.979C324.731 166.149 321.827 161.792 318.076 158.226C314.325 154.661 309.824 151.978 304.9 150.373C299.976 148.767 294.755 148.281 289.619 148.95C288.95 143.733 286.925 138.782 283.746 134.589C280.566 130.395 276.342 127.105 271.494 125.045C266.646 122.985 261.342 122.227 256.109 122.846C250.876 123.466 245.897 125.441 241.666 128.575C236.005 124.669 229.118 122.942 222.28 123.715C215.441 124.487 209.115 127.708 204.474 132.779C200.27 130.168 195.556 128.484 190.647 127.839C185.739 127.194 180.748 127.603 176.011 129.04C171.274 130.476 166.899 132.906 163.179 136.168C159.459 139.429 156.481 143.446 154.444 147.949C152.406 152.452 151.357 157.338 151.366 162.279C151.374 167.221 152.441 172.103 154.494 176.599C156.548 181.095 159.54 185.102 163.271 188.35C167.002 191.598 171.386 194.013 176.128 195.432L176.13 195.43Z" fill="#4C75E0"/>
<path opacity="0.2" d="M178.657 33.0247C177.747 33.0247 176.849 33.071 175.957 33.1376C177.123 28.5556 176.904 23.7316 175.327 19.2738C173.75 14.8159 170.886 10.9236 167.096 8.08757C163.306 5.25151 158.76 3.59858 154.03 3.33713C149.3 3.07568 144.599 4.21741 140.518 6.61841C138.31 4.28736 135.6 2.48812 132.592 1.35686C129.584 0.225606 126.358 -0.208029 123.157 0.0887766C119.957 0.385583 116.866 1.40505 114.118 3.07003C111.371 4.73501 109.039 7.00187 107.299 9.69905C102.648 5.50121 96.5768 3.21616 90.3064 3.30327C84.0359 3.39038 78.0309 5.84321 73.4987 10.1686C68.9665 14.4941 66.243 20.3714 65.8759 26.619C65.5087 32.8667 67.5251 39.0214 71.5196 43.8459C70.7332 43.7928 69.9422 43.7561 69.1433 43.7561C63.9642 43.7555 58.8504 44.9104 54.176 47.1362C49.5017 49.3621 45.3851 52.6026 42.1273 56.6207C38.8696 60.6388 36.5531 65.3329 35.3473 70.3596C34.1416 75.3862 34.0771 80.6183 35.1585 85.6731C36.2399 90.7279 38.4399 95.4774 41.5976 99.5743C44.7553 103.671 48.7908 107.012 53.4088 109.352C58.0268 111.692 63.1106 112.972 68.2882 113.099C73.4658 113.225 78.6063 112.195 83.3337 110.084C85.4756 114.888 88.84 119.05 93.0927 122.155C97.3454 125.26 102.338 127.201 107.575 127.784C112.812 128.367 118.111 127.573 122.945 125.479C127.778 123.386 131.979 120.067 135.13 115.851C141.676 117.971 148.77 117.65 155.098 114.949C161.426 112.248 166.558 107.35 169.544 101.162C174.322 102.459 179.323 102.722 184.211 101.933C189.1 101.144 193.763 99.321 197.887 96.587C202.012 93.8529 205.504 90.2705 208.129 86.0799C210.753 81.8892 212.45 77.1872 213.105 72.2888C213.76 67.3904 213.359 62.4089 211.927 57.678C210.496 52.9472 208.068 48.5762 204.806 44.8582C201.544 41.1401 197.523 38.1608 193.013 36.1199C188.504 34.079 183.609 33.0237 178.657 33.0247Z" fill="#4C75E0"/>
<path d="M200.971 209.129C200.938 216.569 197.952 223.693 192.669 228.943C187.385 234.192 180.233 237.139 172.778 237.139C165.322 237.139 158.17 234.192 152.887 228.943C147.603 223.693 144.618 216.569 144.585 209.129H200.971Z" fill="white" stroke="#2D2D2D" stroke-width="2" stroke-linecap="round" stroke-linejoin="round"/>
<path d="M200.968 209.129C200.968 216.59 197.998 223.746 192.711 229.022C187.424 234.298 180.254 237.262 172.777 237.262C165.301 237.262 158.131 234.298 152.844 229.022C147.557 223.746 144.587 216.59 144.587 209.129" fill="white"/>
<path d="M200.968 209.129C200.968 216.59 197.998 223.746 192.711 229.022C187.424 234.298 180.254 237.262 172.777 237.262C165.301 237.262 158.131 234.298 152.844 229.022C147.557 223.746 144.587 216.59 144.587 209.129" stroke="#2D2D2D" stroke-width="2" stroke-linecap="round" stroke-linejoin="round"/>
<path d="M298.234 209.129V279.319C298.232 282.268 297.057 285.095 294.967 287.18C292.877 289.265 290.043 290.436 287.088 290.436H58.4679C55.5128 290.436 52.6787 289.265 50.5886 287.18C48.4985 285.095 47.3235 282.268 47.322 279.319V209.129H144.585C144.619 216.569 147.604 223.693 152.887 228.943C158.171 234.192 165.323 237.139 172.778 237.139C180.234 237.139 187.386 234.192 192.67 228.943C197.953 223.693 200.938 216.569 200.972 209.129H298.234Z" fill="white"/>
<path d="M287.088 291.001H58.4678C55.3634 290.998 52.3869 289.767 50.1913 287.576C47.9957 285.386 46.7603 282.416 46.7561 279.318V209.129C46.7561 208.979 46.8157 208.836 46.9218 208.73C47.0279 208.624 47.1718 208.564 47.3219 208.564H144.585C144.735 208.564 144.879 208.624 144.985 208.73C145.091 208.836 145.151 208.979 145.151 209.129C145.151 216.441 148.062 223.454 153.243 228.625C158.424 233.795 165.451 236.7 172.778 236.7C180.105 236.7 187.132 233.795 192.313 228.625C197.494 223.454 200.405 216.441 200.405 209.129C200.405 208.979 200.465 208.836 200.571 208.73C200.677 208.624 200.821 208.564 200.971 208.564H298.234C298.384 208.564 298.528 208.624 298.634 208.73C298.74 208.836 298.799 208.979 298.799 209.129V279.318C298.795 282.416 297.56 285.386 295.365 287.576C293.169 289.767 290.193 290.998 287.088 291.001ZM47.8871 209.694V279.318C47.891 282.117 49.0071 284.8 50.9905 286.778C52.974 288.757 55.6628 289.869 58.4672 289.872H287.088C289.893 289.869 292.582 288.757 294.565 286.778C296.548 284.8 297.665 282.117 297.668 279.318V209.694H201.531C201.385 217.208 198.292 224.366 192.916 229.628C187.539 234.891 180.309 237.839 172.778 237.839C165.247 237.839 158.016 234.891 152.64 229.628C147.263 224.366 144.17 217.208 144.025 209.694H47.8871Z" fill="#2D2D2D"/>
<path d="M298.234 209.129H200.971C200.937 216.569 197.952 223.693 192.669 228.943C187.385 234.192 180.233 237.139 172.778 237.139C165.322 237.139 158.17 234.192 152.887 228.943C147.603 223.693 144.618 216.569 144.585 209.129H47.3213L118.429 164.488H229.972L298.234 209.129Z" fill="#4C75E0"/>
<path opacity="0.6" d="M298.234 209.129H200.971C200.937 216.569 197.952 223.693 192.669 228.943C187.385 234.192 180.233 237.139 172.778 237.139C165.322 237.139 158.17 234.192 152.887 228.943C147.603 223.693 144.618 216.569 144.585 209.129H47.3213L118.429 164.488H229.972L298.234 209.129Z" fill="white"/>
<path d="M172.778 237.829C165.251 237.821 158.027 234.872 152.653 229.613C147.278 224.354 144.181 217.204 144.025 209.694H47.3214C47.1986 209.694 47.0791 209.654 46.981 209.58C46.8829 209.507 46.8115 209.403 46.7775 209.285C46.7435 209.168 46.7488 209.042 46.7926 208.927C46.8364 208.813 46.9164 208.716 47.0204 208.651L118.128 164.011C118.218 163.954 118.322 163.924 118.429 163.924H229.972C230.082 163.924 230.19 163.956 230.282 164.016L298.544 208.657C298.646 208.724 298.723 208.821 298.765 208.935C298.807 209.05 298.81 209.174 298.775 209.29C298.741 209.407 298.669 209.509 298.572 209.582C298.474 209.654 298.355 209.694 298.234 209.694H201.531C201.375 217.203 198.278 224.354 192.903 229.612C187.529 234.871 180.305 237.821 172.778 237.829ZM49.2835 208.564H144.585C144.735 208.564 144.879 208.624 144.985 208.73C145.091 208.836 145.151 208.979 145.151 209.129C145.151 216.441 148.062 223.454 153.243 228.625C158.424 233.795 165.451 236.7 172.778 236.7C180.105 236.7 187.132 233.795 192.313 228.625C197.494 223.454 200.405 216.441 200.405 209.129C200.405 208.979 200.465 208.836 200.571 208.73C200.677 208.624 200.821 208.564 200.971 208.564H296.338L229.802 165.053H118.592L49.2835 208.564Z" fill="#2D2D2D"/>
<path d="M80.085 168.118C79.9813 168.117 79.8796 168.089 79.791 168.035C79.7025 167.981 79.6305 167.904 79.5829 167.812C79.5353 167.72 79.514 167.617 79.5212 167.514C79.5284 167.41 79.5639 167.311 79.6239 167.227C79.7286 167.079 89.9539 152.326 78.5387 138.877C76.5182 136.483 73.9975 134.56 71.1534 133.241C68.3092 131.923 65.2105 131.241 62.0745 131.245H61.924C63.0081 135.003 62.8146 138.345 61.2796 140.908C60.6256 142.066 59.6604 143.019 58.4929 143.66C57.3254 144.3 56.0018 144.603 54.6713 144.533C53.5699 144.443 52.5189 144.034 51.6467 143.357C50.7746 142.68 50.1192 141.764 49.7609 140.72C48.5054 137.452 49.8175 134.284 53.2755 132.241C55.4661 131.035 57.9004 130.337 60.3981 130.197C59.5857 128.047 58.5291 125.997 57.249 124.087C53.1273 117.805 45.6154 113.456 36.6382 112.156C29.0312 111.054 21.7406 112.351 18.0625 115.46C17.948 115.557 17.7996 115.605 17.6501 115.592C17.5005 115.58 17.362 115.509 17.265 115.395C17.168 115.28 17.1204 115.132 17.1328 114.983C17.1451 114.834 17.2164 114.695 17.3309 114.599C21.2455 111.29 28.8875 109.891 36.8011 111.041C46.0986 112.388 53.8962 116.919 58.1961 123.471C59.5902 125.549 60.7242 127.79 61.5727 130.142C64.955 130.062 68.3124 130.739 71.3977 132.125C74.483 133.51 77.2175 135.569 79.3998 138.149C91.3904 152.276 80.6542 167.728 80.5444 167.882C80.4921 167.955 80.4231 168.014 80.3432 168.055C80.2633 168.096 80.1748 168.117 80.085 168.118ZM60.7647 131.286C58.3432 131.39 55.9781 132.049 53.8537 133.214C50.8687 134.977 49.7631 137.566 50.8194 140.317C51.1055 141.16 51.6317 141.901 52.3335 142.45C53.0353 142.999 53.8823 143.332 54.7709 143.409C55.8896 143.459 57.0002 143.197 57.9785 142.653C58.9567 142.109 59.7642 141.305 60.3104 140.329C61.7209 137.975 61.8499 134.845 60.7647 131.286Z" fill="#2D2D2D"/>
<path d="M8.29891 124.565C7.33835 124.852 6.30364 124.753 5.41508 124.289C4.52652 123.826 3.85431 123.035 3.54158 122.084C3.22884 121.133 3.30029 120.099 3.74071 119.2C4.18113 118.301 4.95573 117.609 5.89958 117.272C6.84342 116.934 7.88196 116.978 8.79405 117.393C9.70615 117.809 10.4198 118.563 10.7829 119.496C11.1461 120.428 11.1302 121.465 10.7385 122.386C10.3468 123.307 9.61034 124.039 8.68591 124.427C8.55944 124.48 8.43026 124.526 8.29891 124.565ZM6.41769 118.29C5.89147 118.447 5.4255 118.76 5.08133 119.188C4.73715 119.615 4.53095 120.137 4.48996 120.683C4.44896 121.23 4.5751 121.776 4.85171 122.25C5.12832 122.724 5.5424 123.103 6.03927 123.337C6.53614 123.571 7.09243 123.649 7.63468 123.561C8.17694 123.472 8.67966 123.222 9.07646 122.843C9.47326 122.464 9.74547 121.973 9.85717 121.437C9.96886 120.9 9.91477 120.342 9.70205 119.836C9.44378 119.218 8.96486 118.718 8.35808 118.432C7.7513 118.146 7.05985 118.096 6.41769 118.29Z" fill="#2D2D2D"/>
<path d="M8.29213 115.716C7.38256 115.987 6.40472 115.913 5.54663 115.508C4.68854 115.103 4.01078 114.395 3.64367 113.522C3.34935 112.822 3.26973 112.05 3.41488 111.304C3.56003 110.559 3.92343 109.873 4.45913 109.334C4.99482 108.794 5.67875 108.426 6.42442 108.274C7.17009 108.123 7.944 108.196 8.6483 108.483C9.35259 108.771 9.95562 109.26 10.3811 109.89C10.8066 110.519 11.0355 111.261 11.0388 112.02C11.0421 112.78 10.8197 113.523 10.3997 114.156C9.97964 114.789 9.38089 115.284 8.67912 115.578C8.55262 115.63 8.42345 115.677 8.29213 115.716ZM6.41317 109.441C6.32095 109.468 6.23042 109.501 6.1399 109.538C5.47592 109.816 4.9498 110.346 4.67724 111.012C4.40467 111.677 4.40797 112.423 4.68641 113.085C4.88937 113.568 5.22823 113.982 5.66198 114.277C6.09573 114.572 6.60581 114.735 7.1305 114.747C7.65519 114.758 8.17202 114.618 8.61847 114.343C9.06493 114.067 9.42188 113.669 9.64615 113.195C9.87042 112.722 9.9524 112.194 9.88217 111.675C9.81195 111.156 9.59253 110.668 9.25045 110.271C8.90838 109.873 8.4583 109.584 7.95466 109.436C7.45103 109.289 6.91541 109.291 6.4126 109.441H6.41317Z" fill="#2D2D2D"/>
<path d="M7.19401 119.709C9.97251 119.709 12.2249 118.207 12.2249 116.355C12.2249 114.503 9.97251 113.002 7.19401 113.002C4.41551 113.002 2.16309 114.503 2.16309 116.355C2.16309 118.207 4.41551 119.709 7.19401 119.709Z" fill="white"/>
<path d="M9.419 119.955C8.69775 120.168 7.94931 120.275 7.19718 120.273C4.05879 120.273 1.59935 118.556 1.59595 116.359C1.59256 114.162 4.05087 112.44 7.18869 112.437C8.55672 112.411 9.90268 112.784 11.0615 113.51C11.5818 113.78 12.0178 114.188 12.3223 114.689C12.6268 115.189 12.788 115.763 12.7885 116.349C12.7891 116.934 12.6288 117.509 12.3253 118.01C12.0217 118.511 11.5864 118.919 11.0665 119.191C10.5582 119.526 10.003 119.783 9.419 119.955ZM5.312 113.837C3.80023 114.288 2.72864 115.263 2.72921 116.358C2.72921 117.87 4.77564 119.145 7.19887 119.144C8.34361 119.167 9.47053 118.858 10.4419 118.253C10.8062 118.086 11.1148 117.817 11.3309 117.48C11.547 117.143 11.6617 116.751 11.6613 116.35C11.6608 115.95 11.5454 115.558 11.3285 115.222C11.1117 114.885 10.8026 114.617 10.438 114.45C9.46584 113.847 8.33868 113.54 7.19435 113.566C6.55707 113.565 5.92296 113.656 5.312 113.837Z" fill="#2D2D2D"/>
<path d="M8.42777 119.607L8.30896 113.086L6.68403 113.02L6.57031 119.683L8.42777 119.607Z" fill="#2D2D2D"/>
<path d="M0.519386 117.775C0.806236 117.775 1.03877 117.543 1.03877 117.257C1.03877 116.97 0.806236 116.738 0.519386 116.738C0.232537 116.738 0 116.97 0 117.257C0 117.543 0.232537 117.775 0.519386 117.775Z" fill="#2D2D2D"/>
<path d="M0.925148 115.002C1.212 115.002 1.44453 114.769 1.44453 114.483C1.44453 114.197 1.212 113.965 0.925148 113.965C0.638299 113.965 0.405762 114.197 0.405762 114.483C0.405762 114.769 0.638299 115.002 0.925148 115.002Z" fill="#2D2D2D"/>
<path d="M133.624 55.9395L246.774 107.431L212.37 182.725C211.835 183.896 210.856 184.806 209.648 185.257C208.441 185.707 207.103 185.66 205.931 185.126L101.626 137.66C100.453 137.126 99.5405 136.149 99.0893 134.944C98.6381 133.739 98.6851 132.404 99.22 131.233L133.624 55.9395Z" fill="#4C75E0"/>
<path d="M133.624 55.9395L246.774 107.431L212.37 182.725C211.835 183.896 210.856 184.806 209.648 185.257C208.441 185.707 207.103 185.66 205.931 185.126L101.626 137.66C100.453 137.126 99.5405 136.149 99.0893 134.944C98.6381 133.739 98.6851 132.404 99.22 131.233L133.624 55.9395Z" fill="white"/>
<path d="M207.945 186.13C207.168 186.13 206.401 185.963 205.696 185.64L101.392 138.174C100.083 137.577 99.0655 136.487 98.562 135.142C98.0585 133.797 98.1103 132.307 98.706 131L133.109 55.7056C133.14 55.6381 133.184 55.5773 133.239 55.5266C133.293 55.476 133.357 55.4366 133.426 55.4107C133.496 55.3847 133.57 55.3727 133.645 55.3754C133.719 55.378 133.792 55.3953 133.86 55.4262L247.008 106.917C247.076 106.947 247.137 106.991 247.188 107.045C247.239 107.099 247.279 107.163 247.305 107.232C247.332 107.302 247.344 107.376 247.342 107.45C247.339 107.524 247.322 107.597 247.291 107.665L212.884 182.96C212.452 183.904 211.756 184.706 210.88 185.268C210.005 185.83 208.986 186.129 207.945 186.13ZM133.905 56.6898L99.7357 131.469C99.2644 132.503 99.2235 133.682 99.622 134.747C100.02 135.811 100.826 136.675 101.861 137.147L206.165 184.612C206.678 184.846 207.233 184.976 207.796 184.996C208.36 185.016 208.922 184.925 209.45 184.728C209.979 184.531 210.463 184.232 210.876 183.848C211.288 183.464 211.621 183.003 211.855 182.491L246.024 107.71L133.905 56.6898Z" fill="#2D2D2D"/>
<path d="M247.272 107.163L211.89 41.4361C211.374 40.4848 210.561 39.7275 209.575 39.2791C208.589 38.8307 207.483 38.7157 206.425 38.9517L133.5 55.391C133.406 55.4122 133.318 55.4572 133.247 55.5215C133.175 55.5859 133.12 55.6676 133.089 55.7588C133.058 55.85 133.05 55.9476 133.068 56.0425C133.085 56.1373 133.126 56.2262 133.188 56.3006L173.149 104.767C174.304 106.205 175.767 107.366 177.431 108.166C179.094 108.965 180.916 109.383 182.763 109.388H182.957L246.785 107.999C246.882 107.997 246.977 107.97 247.06 107.921C247.144 107.872 247.213 107.802 247.262 107.719C247.311 107.635 247.338 107.541 247.339 107.444C247.341 107.347 247.318 107.252 247.272 107.167V107.163Z" fill="#2D2D2D"/>
<path d="M154.337 116.63C156.303 116.63 157.897 115.039 157.897 113.077C157.897 111.114 156.303 109.523 154.337 109.523C152.37 109.523 150.776 111.114 150.776 113.077C150.776 115.039 152.37 116.63 154.337 116.63Z" fill="#2D2D2D"/>
<path d="M187.736 131.784C189.702 131.784 191.296 130.193 191.296 128.231C191.296 126.269 189.702 124.678 187.736 124.678C185.769 124.678 184.175 126.269 184.175 128.231C184.175 130.193 185.769 131.784 187.736 131.784Z" fill="#2D2D2D"/>
<path d="M199.931 129.644C198.178 129.644 196.445 129.271 194.847 128.552C193.25 127.832 191.824 126.782 190.664 125.47C189.504 124.158 188.636 122.616 188.12 120.944C187.603 119.272 187.448 117.51 187.665 115.774C187.687 115.629 187.765 115.497 187.883 115.408C188.001 115.319 188.149 115.279 188.295 115.297C188.442 115.316 188.575 115.39 188.667 115.506C188.76 115.621 188.803 115.768 188.788 115.914C188.572 117.64 188.761 119.393 189.341 121.033C189.92 122.673 190.875 124.156 192.128 125.365C193.381 126.574 194.899 127.475 196.561 127.997C198.223 128.519 199.985 128.648 201.706 128.374C201.854 128.351 202.006 128.387 202.127 128.475C202.249 128.563 202.33 128.695 202.354 128.843C202.378 128.991 202.341 129.142 202.253 129.264C202.165 129.385 202.032 129.466 201.884 129.49C201.238 129.592 200.585 129.644 199.931 129.644Z" fill="#2D2D2D"/>
<path d="M153.605 108.899C151.722 108.899 149.863 108.47 148.171 107.645C146.48 106.82 144.999 105.621 143.842 104.138C143.749 104.02 143.708 103.87 143.726 103.721C143.745 103.573 143.822 103.437 143.94 103.345C144.059 103.253 144.209 103.212 144.358 103.231C144.507 103.249 144.642 103.326 144.734 103.444C145.805 104.817 147.181 105.922 148.753 106.673C150.325 107.423 152.051 107.798 153.793 107.768C155.536 107.738 157.248 107.304 158.793 106.5C160.339 105.696 161.676 104.544 162.698 103.135C162.741 103.074 162.796 103.022 162.86 102.983C162.923 102.943 162.994 102.916 163.068 102.904C163.141 102.892 163.217 102.894 163.29 102.912C163.363 102.929 163.431 102.96 163.492 103.004C163.553 103.048 163.604 103.103 163.643 103.167C163.682 103.231 163.708 103.302 163.719 103.376C163.73 103.449 163.727 103.525 163.709 103.597C163.691 103.67 163.659 103.738 163.614 103.798C162.468 105.377 160.964 106.663 159.224 107.55C157.484 108.436 155.558 108.899 153.605 108.899Z" fill="#2D2D2D"/>
<path d="M170.986 155.19C170.861 155.19 170.739 155.148 170.64 155.071C170.541 154.995 170.47 154.887 170.439 154.766C169.518 151.221 167.449 148.079 164.553 145.83C161.657 143.581 158.097 142.351 154.427 142.332H154.336C151.039 142.327 147.814 143.305 145.078 145.143C144.953 145.223 144.802 145.251 144.657 145.222C144.511 145.192 144.384 145.106 144.301 144.983C144.218 144.86 144.187 144.71 144.215 144.565C144.242 144.419 144.325 144.29 144.447 144.205C147.37 142.243 150.814 141.197 154.336 141.203H154.433C158.352 141.224 162.154 142.538 165.248 144.94C168.341 147.342 170.551 150.698 171.534 154.484C171.572 154.629 171.55 154.783 171.474 154.912C171.398 155.041 171.273 155.135 171.128 155.172C171.082 155.184 171.034 155.19 170.986 155.19Z" fill="#2D2D2D"/>
<path d="M254.951 151.531C254.83 151.531 254.712 151.492 254.615 151.42C254.517 151.349 254.445 151.247 254.41 151.132C252.533 144.138 252.032 136.848 252.935 129.664C254.398 119.162 260.201 105.378 279.544 99.3431C282.266 98.4701 285.057 97.8314 287.888 97.4341C288.799 91.7533 292.267 85.5909 300.02 81.342C318.444 71.2396 330.888 80.3037 331.011 80.3963C331.07 80.4407 331.121 80.4965 331.158 80.5603C331.196 80.6241 331.221 80.6947 331.232 80.7681C331.242 80.8415 331.238 80.9163 331.22 80.9881C331.201 81.0599 331.169 81.1274 331.124 81.1868C331.08 81.2461 331.024 81.296 330.96 81.3338C330.896 81.3716 330.825 81.3964 330.752 81.4069C330.678 81.4174 330.603 81.4133 330.531 81.3949C330.459 81.3765 330.392 81.3442 330.332 81.2997C330.214 81.2116 318.322 72.5953 300.566 82.3324C293.32 86.3057 290.004 92.0085 289.061 97.3025C297.592 96.4641 301.678 99.3042 303.511 101.45C304.646 102.74 305.375 104.334 305.608 106.035C305.841 107.735 305.568 109.467 304.822 111.013C304.232 112.263 303.276 113.305 302.081 114.001C300.885 114.698 299.506 115.016 298.126 114.914C293.362 114.636 289.419 110.635 288.082 104.724C287.641 102.722 287.524 100.664 287.734 98.6255C285.072 99.0071 282.446 99.6096 279.883 100.427C264.808 105.131 256.12 115.022 254.057 129.825C253.172 136.846 253.66 143.972 255.493 150.807C255.519 150.892 255.525 150.981 255.51 151.068C255.495 151.155 255.459 151.237 255.407 151.308C255.354 151.379 255.286 151.437 255.207 151.477C255.128 151.517 255.04 151.537 254.952 151.537L254.951 151.531ZM288.888 98.4809C288.652 100.48 288.753 102.505 289.186 104.471C290.408 109.879 293.943 113.534 298.192 113.783C299.35 113.866 300.506 113.598 301.508 113.013C302.51 112.429 303.312 111.556 303.808 110.508C304.455 109.16 304.69 107.651 304.484 106.171C304.278 104.69 303.64 103.302 302.65 102.18C300.004 99.0823 295.176 97.831 288.888 98.4809Z" fill="#2D2D2D"/>
<path d="M344.191 86.0984C343.429 86.0969 342.683 85.8804 342.039 85.4739C341.395 85.0673 340.879 84.4873 340.551 83.8007C340.223 83.1142 340.097 82.3491 340.186 81.5938C340.275 80.8386 340.576 80.1238 341.055 79.5322C341.534 78.9405 342.171 78.496 342.892 78.25C343.613 78.004 344.389 77.9665 345.13 78.1419C345.872 78.3172 346.549 78.6982 347.083 79.241C347.616 79.7838 347.986 80.4661 348.147 81.2093C348.275 81.7984 348.268 82.4084 348.128 82.9947C347.989 83.5809 347.719 84.1286 347.34 84.5974C346.96 85.0662 346.481 85.4443 345.936 85.7041C345.391 85.9638 344.795 86.0986 344.191 86.0984ZM344.199 79.1619C343.765 79.1622 343.336 79.2595 342.945 79.4466C342.553 79.6338 342.208 79.9061 341.936 80.2435C341.663 80.5809 341.47 80.9749 341.369 81.3966C341.269 81.8184 341.265 82.2571 341.357 82.6807C341.473 83.2159 341.739 83.7074 342.124 84.0982C342.508 84.4891 342.996 84.7634 343.53 84.8895C344.064 85.0156 344.623 84.9883 345.142 84.8108C345.661 84.6334 346.119 84.3129 346.464 83.8865C346.808 83.4601 347.025 82.9452 347.088 82.4011C347.152 81.8571 347.06 81.3063 346.823 80.8122C346.586 80.3181 346.214 79.9009 345.75 79.6089C345.286 79.3169 344.748 79.1619 344.199 79.1619Z" fill="#2D2D2D"/>
<path d="M342.487 95.3151C341.448 95.3159 340.449 94.9192 339.694 94.2067C338.94 93.4943 338.488 92.5203 338.431 91.4853C338.375 90.4504 338.718 89.4331 339.39 88.6431C340.063 87.8531 341.013 87.3504 342.046 87.2385C343.078 87.1266 344.114 87.4141 344.941 88.0417C345.768 88.6693 346.322 89.5893 346.489 90.6123C346.656 91.6353 346.424 92.6834 345.841 93.5408C345.257 94.3982 344.366 94.9997 343.352 95.2214C343.068 95.2838 342.778 95.3152 342.487 95.3151ZM342.501 88.378C342.292 88.3781 342.083 88.4006 341.879 88.4452C341.156 88.6036 340.522 89.0324 340.106 89.6434C339.691 90.2544 339.526 91.0011 339.645 91.7299C339.764 92.4587 340.159 93.1141 340.748 93.5613C341.337 94.0085 342.075 94.2135 342.81 94.1341C343.546 94.0546 344.223 93.6969 344.703 93.1343C345.182 92.5718 345.427 91.8473 345.388 91.1099C345.348 90.3725 345.027 89.6783 344.49 89.1702C343.953 88.662 343.241 88.3785 342.501 88.378Z" fill="#2D2D2D"/>
<path d="M348.563 87.7481C348.919 85.8195 346.863 83.8241 343.97 83.2913C341.076 82.7585 338.441 83.89 338.085 85.8186C337.728 87.7471 339.785 89.7425 342.678 90.2753C345.572 90.8081 348.206 89.6767 348.563 87.7481Z" fill="white"/>
<path d="M344.108 90.9725C343.595 90.9717 343.084 90.9243 342.58 90.8308C341.157 90.5954 339.834 89.9505 338.773 88.9754C338.288 88.5973 337.915 88.0936 337.697 87.5189C337.478 86.9442 337.421 86.3207 337.533 85.7162C337.645 85.1117 337.921 84.5493 338.331 84.0904C338.74 83.6315 339.269 83.2936 339.857 83.1134C341.203 82.6061 342.662 82.4757 344.077 82.7362C345.492 82.9968 346.808 83.6384 347.884 84.5916C348.369 84.9697 348.742 85.4735 348.96 86.0482C349.179 86.6228 349.236 87.2464 349.124 87.8509C349.012 88.4554 348.736 89.0177 348.326 89.4766C347.917 89.9355 347.389 90.2735 346.8 90.4536C345.947 90.8062 345.031 90.9827 344.108 90.9725ZM342.545 83.7232C341.777 83.7134 341.014 83.8588 340.304 84.1506C339.887 84.2568 339.509 84.4799 339.215 84.7937C338.921 85.1074 338.723 85.4986 338.645 85.921C338.567 86.3434 338.612 86.7792 338.774 87.1771C338.936 87.5749 339.209 87.918 339.561 88.1657C340.476 88.9628 341.589 89.4995 342.784 89.7196C343.978 89.9396 345.21 89.8349 346.35 89.4164C346.753 89.2822 347.115 89.05 347.404 88.7408C347.694 88.4316 347.902 88.0552 348.009 87.6457C348.055 87.2251 347.996 86.7997 347.836 86.4078C347.676 86.0159 347.421 85.6699 347.093 85.4013C346.192 84.5814 345.072 84.0413 343.868 83.8469C343.431 83.7657 342.988 83.7243 342.543 83.7232H342.545Z" fill="#2D2D2D"/>
<path d="M342.67 83.1621L341.533 89.975L343.212 90.3567L344.62 83.4405L342.67 83.1621Z" fill="#2D2D2D"/>
<path d="M349.491 90.4902C349.795 90.4902 350.041 90.2445 350.041 89.9414C350.041 89.6383 349.795 89.3926 349.491 89.3926C349.187 89.3926 348.941 89.6383 348.941 89.9414C348.941 90.2445 349.187 90.4902 349.491 90.4902Z" fill="#2D2D2D"/>
<path d="M350.45 87.6816C350.754 87.6816 351 87.4359 351 87.1328C351 86.8297 350.754 86.584 350.45 86.584C350.146 86.584 349.9 86.8297 349.9 87.1328C349.9 87.4359 350.146 87.6816 350.45 87.6816Z" fill="#2D2D2D"/>
</g>
<defs>
<clipPath id="clip0_330_9564">
<rect width="351" height="291" fill="white"/>
</clipPath>
</defs>
</svg>
