<svg width="378" height="366" viewBox="0 0 378 366" fill="none" xmlns="http://www.w3.org/2000/svg">
<g clip-path="url(#clip0_327_8672)">
<path d="M270.989 366.001C330.09 366.001 378.001 361.581 378.001 356.128C378.001 350.676 330.09 346.256 270.989 346.256C211.887 346.256 163.977 350.676 163.977 356.128C163.977 361.581 211.887 366.001 270.989 366.001Z" fill="white"/>
<path opacity="0.1" d="M270.989 366.001C330.09 366.001 378.001 361.581 378.001 356.128C378.001 350.676 330.09 346.256 270.989 346.256C211.887 346.256 163.977 350.676 163.977 356.128C163.977 361.581 211.887 366.001 270.989 366.001Z" fill="#2D2D2D"/>
<path d="M93.3429 209.316H59.2324V219.239H93.3429V209.316Z" fill="#E4EAFB"/>
<path opacity="0.05" d="M68.282 209.316H63.8125V219.239H68.282V209.316Z" fill="#2D2D2D"/>
<path d="M88.9848 211.473H70.4004V217.353H88.9848V211.473Z" fill="white"/>
<path d="M120.552 210.612L88.8574 196.771L84.8849 205.865L116.579 219.705L120.552 210.612Z" fill="#E4EAFB"/>
<path opacity="0.05" d="M120.552 210.612L88.8574 196.771L84.8849 205.865L116.579 219.705L120.552 210.612Z" fill="#2D2D2D"/>
<path d="M116.296 208.753L112.143 206.939L108.17 216.033L112.323 217.846L116.296 208.753Z" fill="white"/>
<path d="M109.311 208.056L92.043 200.516L89.6889 205.904L106.957 213.445L109.311 208.056Z" fill="white"/>
<path opacity="0.05" d="M120.611 335.02H112.039V340.743H120.611V335.02Z" fill="#2D2D2D"/>
<path opacity="0.05" d="M32.9704 335.02H24.3984V340.743H32.9704V335.02Z" fill="#2D2D2D"/>
<path d="M128.468 219.705H16.541V334.827H128.468V219.705Z" fill="#E4EAFB"/>
<path opacity="0.03" d="M128.468 219.705H16.541V334.827H128.468V219.705Z" fill="#2D2D2D"/>
<path d="M149.21 219.705H37.2832V334.827H149.21V219.705Z" fill="#E4EAFB"/>
<path opacity="0.05" d="M141.351 335.02H132.779V340.743H141.351V335.02Z" fill="#2D2D2D"/>
<path opacity="0.05" d="M53.7126 335.02H45.1406V340.743H53.7126V335.02Z" fill="#2D2D2D"/>
<path opacity="0.7" d="M145.008 225.098H41.4844V247.215H145.008V225.098Z" fill="white"/>
<path opacity="0.7" d="M145.008 252.627H41.4844V274.744H145.008V252.627Z" fill="white"/>
<path opacity="0.7" d="M145.008 280.158H41.4844V302.276H145.008V280.158Z" fill="white"/>
<path opacity="0.05" d="M93.2457 239.25C94.9551 239.25 96.3409 237.864 96.3409 236.155C96.3409 234.446 94.9551 233.061 93.2457 233.061C91.5362 233.061 90.1504 234.446 90.1504 236.155C90.1504 237.864 91.5362 239.25 93.2457 239.25Z" fill="#2D2D2D"/>
<path opacity="0.05" d="M93.2457 266.781C94.9551 266.781 96.3409 265.396 96.3409 263.686C96.3409 261.977 94.9551 260.592 93.2457 260.592C91.5362 260.592 90.1504 261.977 90.1504 263.686C90.1504 265.396 91.5362 266.781 93.2457 266.781Z" fill="#2D2D2D"/>
<path opacity="0.05" d="M93.2457 294.312C94.9551 294.312 96.3409 292.927 96.3409 291.218C96.3409 289.509 94.9551 288.123 93.2457 288.123C91.5362 288.123 90.1504 289.509 90.1504 291.218C90.1504 292.927 91.5362 294.312 93.2457 294.312Z" fill="#2D2D2D"/>
<path opacity="0.7" d="M145.008 308.309H41.4844V330.426H145.008V308.309Z" fill="white"/>
<path opacity="0.05" d="M93.2457 322.463C94.9551 322.463 96.3409 321.077 96.3409 319.368C96.3409 317.659 94.9551 316.273 93.2457 316.273C91.5362 316.273 90.1504 317.659 90.1504 319.368C90.1504 321.077 91.5362 322.463 93.2457 322.463Z" fill="#2D2D2D"/>
<path d="M56.2739 105.441L122.457 105.441L122.457 19.3136L56.2739 19.3136L56.2739 105.441Z" fill="#E4EAFB"/>
<path d="M56.274 19.3145H54.127V105.442H56.274V19.3145Z" fill="#E4EAFB"/>
<path opacity="0.05" d="M56.274 19.3145H54.127V105.442H56.274V19.3145Z" fill="#2D2D2D"/>
<path opacity="0.05" d="M68.3298 89.752H110.4V35.0025L68.3298 35.0025V89.752Z" fill="#2D2D2D"/>
<path opacity="0.03" d="M68.331 89.752H70.5234V35.0025H68.331V89.752Z" fill="#2D2D2D"/>
<path d="M2.14659 181.234H56.2734L56.2734 126.621H2.14659L2.14659 181.234Z" fill="#E4EAFB"/>
<path opacity="0.05" d="M12.0071 171.287H46.4141L46.4141 136.571H12.0071L12.0071 171.287Z" fill="#2D2D2D"/>
<path d="M2.14703 126.623H0V181.236H2.14703V126.623Z" fill="#E4EAFB"/>
<path opacity="0.05" d="M2.14703 126.623H0V181.236H2.14703V126.623Z" fill="#2D2D2D"/>
<path opacity="0.03" d="M12.0067 171.287H14.1992L14.1992 136.571H12.0067L12.0067 171.287Z" fill="#2D2D2D"/>
<path d="M332.203 19.1094H194.09V157.195H332.203V19.1094Z" fill="#E4EAFB"/>
<path d="M194.091 19.1094H192.508V157.195H194.091V19.1094Z" fill="#E4EAFB"/>
<path opacity="0.05" d="M194.091 19.1094H192.508V157.195H194.091V19.1094Z" fill="#2D2D2D"/>
<path opacity="0.05" d="M227.549 114.263V78.1348H257.149V99.1244H302.999V136.289H322.486V157.196H302.999H299.245H200.734V114.263H227.549Z" fill="#2D2D2D"/>
<path opacity="0.34" d="M253.35 82.0566H231.795V85.9792H253.35V82.0566Z" fill="#FFFFFA"/>
<path opacity="0.34" d="M253.35 90.1855H231.795V94.1081H253.35V90.1855Z" fill="#FFFFFA"/>
<path opacity="0.34" d="M253.35 98.3145H231.795V102.237H253.35V98.3145Z" fill="#FFFFFA"/>
<path opacity="0.34" d="M208.53 118.07H204.557V121.993H208.53V118.07Z" fill="#FFFFFA"/>
<path opacity="0.34" d="M208.53 126.199H204.557V130.122H208.53V126.199Z" fill="#FFFFFA"/>
<path opacity="0.34" d="M208.53 134.328H204.557V138.251H208.53V134.328Z" fill="#FFFFFA"/>
<path opacity="0.34" d="M215.879 118.07H211.906V121.993H215.879V118.07Z" fill="#FFFFFA"/>
<path opacity="0.34" d="M215.879 126.199H211.906V130.122H215.879V126.199Z" fill="#FFFFFA"/>
<path opacity="0.34" d="M215.879 134.328H211.906V138.251H215.879V134.328Z" fill="#FFFFFA"/>
<path opacity="0.34" d="M223.03 118.07H219.057V121.993H223.03V118.07Z" fill="#FFFFFA"/>
<path opacity="0.34" d="M223.03 126.199H219.057V130.122H223.03V126.199Z" fill="#FFFFFA"/>
<path opacity="0.34" d="M223.03 134.328H219.057V138.251H223.03V134.328Z" fill="#FFFFFA"/>
<path d="M194.09 87.3778H221.88V19.1094H224.179V87.3778H299.244V19.1094H301.543V87.3778H332.203V89.6755H301.543V157.195H299.244V89.6755H224.179V157.195H221.88V89.6755H194.09V87.3778Z" fill="white"/>
<path d="M337.705 157.029H188.588V161.621H337.705V157.029Z" fill="#E4EAFB"/>
<path opacity="0.1" d="M337.705 157.029H188.588V161.621H337.705V157.029Z" fill="#2D2D2D"/>
<path opacity="0.1" d="M188.589 157.029H186.436V161.621H188.589V157.029Z" fill="#2D2D2D"/>
<path opacity="0.1" d="M188.589 157.029H186.436V161.621H188.589V157.029Z" fill="#2D2D2D"/>
<path d="M308.52 180.684C287.375 180.684 270.234 186.451 270.234 193.565V208.901H346.805V193.565C346.805 186.451 329.664 180.684 308.52 180.684Z" fill="#4C75E0"/>
<path opacity="0.49" d="M308.52 180.684C287.375 180.684 270.234 186.451 270.234 193.565V208.901H346.805V193.565C346.805 186.451 329.664 180.684 308.52 180.684Z" fill="white"/>
<path opacity="0.49" d="M336.377 193.567V208.901H270.234V193.567C270.234 187.046 284.63 181.658 303.305 180.807C321.983 181.658 336.377 187.046 336.377 193.567Z" fill="white"/>
<path d="M346.806 357.913H348.091L346.806 207.541L345.532 208.826L346.441 313.865L301.082 314.635L300.167 208.815L298.893 208.826L299.809 314.657L272.428 315.122L271.508 208.815L270.234 207.552L271.519 357.913L272.782 357.902L272.438 316.396L299.819 315.931L300.167 357.913L301.441 357.902L301.093 315.909L346.452 315.138L346.806 357.913Z" fill="#2D2D2D"/>
<path d="M231.322 335.398C231.322 335.398 229.045 347.198 217.995 347.856C206.944 348.514 209.34 357.315 209.34 357.315H251.57V336.221L231.322 335.398Z" fill="#4C75E0"/>
<path d="M255.416 299.907C255.416 299.907 258.583 311.501 248.958 316.968C239.333 322.435 245.369 329.275 245.369 329.275L283.261 310.637L273.948 291.709L255.416 299.907Z" fill="#4C75E0"/>
<path d="M251.406 307.569L222.855 199.861C220.689 187.962 223.949 182.804 228.973 177.794C237.8 168.992 274.376 150.256 274.376 150.256L318.255 150.137C329.89 150.137 341.328 161.607 341.328 173.239C341.328 184.872 329.5 194.737 317.865 194.737L263.831 200.129L278.478 298.749L251.406 307.569Z" fill="#262626"/>
<path d="M278.479 298.749L272.713 259.924L243.5 277.74L251.407 307.569L278.479 298.749Z" fill="#2D2D2D"/>
<path d="M285.099 172.053C285.099 172.053 266.653 176.163 248.385 194.427C237.309 205.501 238.217 225.541 239.879 264.084L258.023 237.29L277.924 201.405L285.099 172.053Z" fill="#2D2D2D"/>
<path d="M348.967 150.125L319.168 149.984L319.156 150.377H310.133C310.133 150.377 287.53 171.17 269.333 184.274C256.097 193.804 248.022 202.891 247.324 212.794C245.62 236.935 226.41 339.895 226.41 339.895L255.321 344.271L280.693 221.227C280.693 221.227 320.364 202.941 329.54 196.579C338.181 190.587 344.284 188.27 347.144 181.731C352.082 170.437 348.967 150.125 348.967 150.125Z" fill="#262626"/>
<path d="M315.536 157.629L267.193 158.269L294.311 174.462L316.875 162.813C317.419 162.521 317.849 162.055 318.096 161.49C318.344 160.924 318.394 160.293 318.24 159.695C318.086 159.098 317.735 158.57 317.245 158.195C316.755 157.82 316.153 157.621 315.536 157.629Z" fill="#2D2D2D"/>
<path opacity="0.2" d="M315.536 157.629L267.193 158.269L294.311 174.462L316.875 162.813C317.419 162.521 317.849 162.055 318.096 161.49C318.344 160.924 318.394 160.293 318.24 159.695C318.086 159.098 317.735 158.57 317.245 158.195C316.755 157.82 316.153 157.621 315.536 157.629Z" fill="white"/>
<path d="M267.47 70.9219L253.796 115.217L226.408 151.068L242.407 169.43L274.99 133.071C276.491 131.885 277.665 130.336 278.402 128.57L278.91 127.342L297.73 81.8141L267.47 70.9219Z" fill="#4C75E0"/>
<path d="M288.535 23.9026C288.535 23.9026 283.025 19.7419 281.66 10.1722C280.603 2.76222 287.439 7.56278 287.439 7.56278C287.439 7.56278 286.73 2.21962 290.624 2.7499C294.518 3.28019 296.697 8.89294 296.697 8.89294" fill="#2D2D2D"/>
<path d="M310.748 3.375C310.748 3.375 330.067 5.4456 323.083 31.6192L321.374 31.7338L317.904 31.9665" fill="#2D2D2D"/>
<path d="M291.77 58.9533C291.854 58.9422 292.797 74.5773 310.964 73.2157C323.542 72.2736 328.027 58.9312 328.315 58.9312C326.959 58.6429 325.283 58.2056 324.617 58.0558C323.165 57.719 321.851 56.9482 320.848 55.8461C319.845 54.7439 319.202 53.3627 319.003 51.886C318.635 49.6697 319.258 38.3304 319.067 36.0879L299.762 40.3964C300.032 45.1328 301.92 56.1125 295.303 58.0558C294.201 58.3767 293.015 58.6739 291.77 58.9533Z" fill="#E09958"/>
<path opacity="0.52" d="M299.492 53.5685C299.795 52.594 299.989 51.5893 300.073 50.5724C300.285 48.2519 300.242 45.9152 299.946 43.604C303.87 43.0753 307.568 41.4565 310.618 38.9316C310.976 40.2554 312.948 46.0397 312.401 47.2956C311.37 49.6731 306.521 53.5685 299.492 53.5685Z" fill="#2D2D2D"/>
<path d="M303.477 50.4744C311.094 49.7913 320.211 44.9797 320.342 34.642L320.461 25.3143C320.592 14.977 315.268 6.52768 305.533 6.40371C295.798 6.28016 288.414 14.5677 288.283 24.9054L288.23 29.0347C288.237 30.4529 288.34 31.869 288.54 33.2732C289.039 36.9881 289.814 42.6361 292.335 46.4568C294.716 50.0639 298.61 50.9105 303.477 50.4744Z" fill="#E09958"/>
<path opacity="0.52" d="M299.943 41.0252C298.371 41.0964 296.804 40.7973 295.369 40.1519C295.311 40.1254 295.265 40.077 295.241 40.0172C295.218 39.9573 295.219 39.8906 295.244 39.8315C295.27 39.7724 295.317 39.7254 295.376 39.7008C295.436 39.6762 295.502 39.6758 295.562 39.6997C298.654 41.018 301.461 40.8252 303.68 39.1418C303.725 39.1064 303.772 39.0734 303.82 39.0429C303.876 39.0167 303.939 39.0123 303.998 39.0308C304.057 39.0493 304.107 39.0892 304.137 39.1427C304.168 39.1961 304.178 39.2592 304.164 39.3193C304.151 39.3795 304.115 39.4324 304.064 39.4675C304.047 39.4785 304.018 39.501 303.979 39.5316C302.813 40.4202 301.407 40.9402 299.943 41.0252Z" fill="#2D2D2D"/>
<path opacity="0.52" d="M300.015 43.3536C299.731 43.3711 299.446 43.3643 299.163 43.3332C299.131 43.3298 299.1 43.3201 299.072 43.3047C299.043 43.2893 299.018 43.2685 298.998 43.2434C298.978 43.2183 298.963 43.1895 298.953 43.1586C298.944 43.1276 298.941 43.0952 298.945 43.0632C298.948 43.0311 298.958 43 298.973 42.9717C298.989 42.9434 299.009 42.9184 299.035 42.8981C299.06 42.8779 299.088 42.8627 299.119 42.8536C299.15 42.8445 299.183 42.8415 299.215 42.8449C300.916 43.0254 301.728 42.2463 301.763 42.2128C301.809 42.1667 301.871 42.1407 301.936 42.1406C302.001 42.1405 302.064 42.1663 302.11 42.2123C302.156 42.2583 302.182 42.3208 302.182 42.3859C302.182 42.451 302.157 42.5135 302.111 42.5596C301.525 43.0584 300.784 43.3389 300.015 43.3536Z" fill="#2D2D2D"/>
<path d="M291.498 31.0229C292.16 31.0229 292.697 30.4861 292.697 29.824C292.697 29.1618 292.16 28.625 291.498 28.625C290.836 28.625 290.299 29.1618 290.299 29.824C290.299 30.4861 290.836 31.0229 291.498 31.0229Z" fill="#2D2D2D"/>
<path d="M303.215 30.2866C303.877 30.2866 304.414 29.7498 304.414 29.0876C304.414 28.4255 303.877 27.8887 303.215 27.8887C302.553 27.8887 302.016 28.4255 302.016 29.0876C302.016 29.7498 302.553 30.2866 303.215 30.2866Z" fill="#2D2D2D"/>
<path d="M319.697 37.7856C322.656 37.8234 325.094 34.6892 325.133 31.7313C325.171 28.7733 322.792 27.1116 319.834 27.0742L318.284 29.0366L317.154 37.7533L319.697 37.7856Z" fill="#E09958"/>
<path d="M316.754 33.0297C316.754 33.0297 315.755 18.4021 311.318 17.4987C308.363 16.8971 301.198 21.0875 294.561 19.8219C291.658 19.2699 288.902 19.9866 288.621 21.358C288.51 21.901 286.702 14.0979 291.248 8.17775C294.868 3.46507 306.715 2.13194 312.105 3.67736C327.029 7.95783 320.443 27.715 320.443 27.715L319.778 32.758L316.754 33.0297Z" fill="#2D2D2D"/>
<g opacity="0.52">
<path d="M298.154 37.5724C298.148 37.5728 298.141 37.5728 298.135 37.5724C297.182 37.563 295.583 37.4403 295.59 36.7275C295.597 36.1365 297.278 29.7752 297.47 29.0518C297.487 28.9895 297.527 28.9363 297.583 28.904C297.639 28.8716 297.705 28.8627 297.767 28.8792C297.83 28.8957 297.883 28.9362 297.915 28.9919C297.947 29.0476 297.956 29.1139 297.94 29.1762C297.192 31.9936 296.08 36.331 296.076 36.7334C296.168 36.9033 297.153 37.0782 298.139 37.0884C298.202 37.0897 298.261 37.1149 298.305 37.1587C298.35 37.2026 298.375 37.2617 298.377 37.3239C298.379 37.3862 298.357 37.4467 298.315 37.4931C298.274 37.5395 298.216 37.5682 298.154 37.5732V37.5724Z" fill="#2D2D2D"/>
</g>
<path d="M294.901 23.322C293.899 23.0463 292.841 23.0463 291.839 23.322C291.347 23.4544 290.878 23.6599 290.447 23.9317C290.02 24.1979 289.63 24.5168 289.283 24.881C289.219 24.9459 289.183 25.0329 289.182 25.1239C289.18 25.2149 289.214 25.3029 289.276 25.3696C289.338 25.4364 289.423 25.4766 289.514 25.4821C289.605 25.4876 289.694 25.4578 289.764 25.399L289.786 25.3803C290.106 25.0835 290.463 24.8282 290.847 24.6208C291.224 24.4142 291.63 24.2659 292.052 24.1809C292.882 24.007 293.743 24.0552 294.548 24.3206L294.581 24.3325C294.713 24.375 294.856 24.3644 294.98 24.303C295.104 24.2416 295.199 24.1342 295.246 24.0037C295.292 23.8732 295.285 23.7298 295.227 23.6041C295.169 23.4784 295.065 23.3803 294.935 23.3305L294.901 23.322Z" fill="#2D2D2D"/>
<path d="M301.997 23.9229C302.759 23.5525 303.606 23.3901 304.452 23.4521C304.881 23.4799 305.303 23.5727 305.704 23.7272C306.112 23.882 306.499 24.0874 306.856 24.3386L306.879 24.3538C306.956 24.4032 307.049 24.4211 307.138 24.4037C307.228 24.3864 307.307 24.3352 307.36 24.2607C307.412 24.1863 307.434 24.0944 307.421 24.0043C307.407 23.9141 307.359 23.8326 307.287 23.7769C306.896 23.4621 306.466 23.198 306.008 22.991C305.544 22.7791 305.052 22.6379 304.546 22.5724C303.516 22.4321 302.468 22.5724 301.512 22.9787C301.447 23.0065 301.389 23.0468 301.341 23.0971C301.292 23.1474 301.254 23.2067 301.228 23.2718C301.203 23.3368 301.19 23.4063 301.191 23.4762C301.193 23.5461 301.208 23.6151 301.236 23.6792C301.292 23.8087 301.397 23.9105 301.529 23.9623C301.594 23.9879 301.663 24.0005 301.733 23.9992C301.803 23.998 301.872 23.983 301.936 23.9552L301.966 23.9412L301.997 23.9229Z" fill="#2D2D2D"/>
<path d="M301.511 8.24546C302.184 5.02293 300.955 2.03971 298.765 1.58227C296.575 1.12483 294.254 3.3664 293.581 6.58893C292.907 9.81146 294.137 12.7947 296.326 13.2521C298.516 13.7095 300.837 11.468 301.511 8.24546Z" fill="#2D2D2D"/>
<path d="M269.196 93.3188C269.768 100.041 273.824 141.978 274.376 150.258H348.934C349.362 142.79 351.286 110.137 352.91 95.5317C354.461 81.5966 356.635 75.2553 354.849 70.9251C351.698 63.2872 341.672 59.8767 334.882 58.9575C330.736 58.3962 324.5 57.9941 324.5 57.9941C324.5 57.9941 323.972 68.6732 311.382 69.2676C294.243 70.0743 295.388 57.9941 295.303 57.9941C292.526 57.9941 277.413 60.0129 273.634 62.4754C268.296 65.9535 266.719 70.6937 266.656 75.0485C266.585 80.0639 268.548 85.6941 269.196 93.3188Z" fill="#4C75E0"/>
<path d="M272.977 133.732C272.924 133.732 272.873 133.712 272.833 133.676C272.794 133.64 272.77 133.591 272.765 133.538L269.94 101.237C269.935 101.181 269.953 101.125 269.989 101.082C270.025 101.039 270.077 101.012 270.133 101.007C270.161 101.004 270.189 101.007 270.216 101.015C270.243 101.023 270.268 101.037 270.289 101.055C270.31 101.073 270.328 101.095 270.341 101.12C270.354 101.145 270.361 101.172 270.363 101.2L273.188 133.501C273.193 133.557 273.175 133.613 273.139 133.656C273.103 133.699 273.051 133.726 272.995 133.731C272.989 133.731 272.983 133.732 272.977 133.732Z" fill="#2D2D2D"/>
<path d="M278.382 152.494L288.62 144.189L286.897 144.676C286.338 144.822 285.744 144.751 285.236 144.476C284.727 144.201 284.342 143.743 284.158 143.196C284.073 142.91 284.047 142.609 284.082 142.313C284.117 142.016 284.212 141.73 284.361 141.472C284.51 141.213 284.71 140.988 284.949 140.809C285.188 140.631 285.462 140.503 285.752 140.433L307.259 135.203L309.109 142.052C309.684 144.179 309.611 146.43 308.898 148.515C308.186 150.6 306.866 152.425 305.11 153.755L297.141 159.768C296.733 160.088 296.227 160.257 295.709 160.248C295.19 160.238 294.691 160.049 294.296 159.714C293.945 159.403 293.702 158.988 293.604 158.53C293.506 158.071 293.557 157.594 293.749 157.166C293.715 157.156 293.684 157.137 293.659 157.11C293.638 157.085 293.623 157.054 293.616 157.021C293.609 156.988 293.611 156.954 293.621 156.922L292.153 158.034C291.699 158.392 291.126 158.565 290.55 158.517C289.974 158.469 289.438 158.204 289.05 157.776C288.716 157.381 288.532 156.882 288.531 156.365C288.529 155.848 288.71 155.348 289.042 154.951C289.018 154.947 288.996 154.94 288.976 154.928L288.373 155.385C287.965 155.705 287.459 155.875 286.94 155.865C286.422 155.855 285.923 155.666 285.528 155.331C285.102 154.954 284.839 154.427 284.793 153.86C284.748 153.294 284.924 152.731 285.284 152.291C285.275 152.279 285.268 152.266 285.263 152.252L280.999 155.71C280.788 155.881 280.545 156.01 280.284 156.087C280.023 156.165 279.749 156.19 279.479 156.162C279.208 156.134 278.945 156.052 278.706 155.923C278.467 155.793 278.256 155.618 278.084 155.406C277.913 155.195 277.784 154.952 277.707 154.691C277.629 154.43 277.604 154.157 277.632 153.886C277.66 153.616 277.742 153.353 277.871 153.114C278.001 152.875 278.177 152.663 278.388 152.492L278.382 152.494Z" fill="#E09958"/>
<path opacity="0.2" d="M285.518 152.376C285.541 152.368 285.562 152.356 285.58 152.34L289.682 148.933C289.703 148.916 289.72 148.895 289.733 148.871C289.746 148.847 289.753 148.82 289.756 148.793C289.758 148.766 289.755 148.739 289.747 148.713C289.739 148.688 289.726 148.664 289.709 148.643C289.692 148.622 289.67 148.605 289.646 148.592C289.622 148.579 289.596 148.572 289.569 148.569C289.542 148.567 289.515 148.57 289.489 148.578C289.463 148.586 289.439 148.599 289.418 148.616L285.317 152.023C285.279 152.054 285.254 152.097 285.245 152.145C285.237 152.193 285.245 152.242 285.269 152.284C285.293 152.326 285.332 152.358 285.377 152.375C285.423 152.392 285.473 152.392 285.518 152.376Z" fill="#0A0A0A"/>
<path opacity="0.2" d="M289.132 154.948C289.154 154.94 289.175 154.928 289.193 154.913L292.437 152.261C292.48 152.226 292.507 152.176 292.512 152.122C292.518 152.067 292.501 152.013 292.467 151.97C292.432 151.928 292.382 151.901 292.328 151.896C292.273 151.89 292.219 151.906 292.176 151.941L288.932 154.594C288.894 154.625 288.868 154.668 288.859 154.716C288.85 154.763 288.858 154.813 288.882 154.855C288.906 154.898 288.944 154.93 288.99 154.947C289.036 154.964 289.086 154.964 289.132 154.948Z" fill="#0A0A0A"/>
<path opacity="0.2" d="M293.881 157.173C293.905 157.165 293.927 157.152 293.946 157.135L295.449 155.847C295.469 155.829 295.486 155.808 295.498 155.784C295.511 155.76 295.518 155.733 295.52 155.706C295.522 155.679 295.519 155.652 295.51 155.626C295.502 155.601 295.489 155.577 295.471 155.556C295.453 155.536 295.432 155.519 295.408 155.507C295.384 155.494 295.357 155.487 295.33 155.485C295.303 155.483 295.276 155.486 295.25 155.495C295.225 155.503 295.201 155.516 295.18 155.534L293.677 156.823C293.641 156.854 293.616 156.897 293.608 156.945C293.6 156.992 293.609 157.041 293.633 157.082C293.658 157.124 293.696 157.156 293.741 157.173C293.786 157.189 293.836 157.189 293.881 157.173Z" fill="#0A0A0A"/>
<path d="M368.864 132.154L368.785 131.806L355.176 71.627L328.254 77.7118L338.875 124.685L296.326 135.139L301.563 159.143L358.264 148.33C358.392 148.305 358.581 148.267 358.71 148.237C360.433 147.848 362.062 147.123 363.505 146.104C364.948 145.085 366.176 143.792 367.119 142.298C368.061 140.805 368.701 139.14 369 137.4C369.3 135.659 369.253 133.877 368.864 132.154Z" fill="#4C75E0"/>
<path d="M296.118 135.185C296.107 135.131 296.117 135.075 296.146 135.028C296.175 134.982 296.221 134.948 296.275 134.935L338.635 124.533L331.747 94.1191C331.74 94.0914 331.737 94.0624 331.741 94.0339C331.745 94.0054 331.755 93.9779 331.769 93.9532C331.784 93.9285 331.804 93.9071 331.827 93.8901C331.85 93.8732 331.877 93.8612 331.905 93.8549C331.933 93.8485 331.962 93.8479 331.99 93.8531C332.018 93.8583 332.045 93.8692 332.069 93.8852C332.093 93.9011 332.114 93.9217 332.13 93.9458C332.145 93.9699 332.156 93.997 332.161 94.0253L339.095 124.643C339.107 124.697 339.098 124.755 339.069 124.802C339.04 124.85 338.993 124.884 338.938 124.898L296.576 135.299C296.576 135.299 296.859 136.537 296.939 136.955C296.946 137.01 296.93 137.064 296.896 137.107C296.862 137.15 296.813 137.178 296.758 137.184C296.704 137.19 296.649 137.175 296.606 137.141C296.563 137.107 296.536 137.057 296.529 137.003C296.432 136.545 296.118 135.185 296.118 135.185Z" fill="#2D2D2D"/>
<path d="M297.779 168.703L281.419 118.424C281.132 117.541 280.572 116.771 279.82 116.225C279.068 115.679 278.163 115.385 277.234 115.385H210.583C209.889 115.385 209.204 115.549 208.585 115.865C207.966 116.18 207.43 116.637 207.022 117.199C206.614 117.761 206.344 118.412 206.236 119.098C206.127 119.784 206.183 120.486 206.398 121.147L222.758 171.425C223.045 172.309 223.605 173.079 224.357 173.625C225.109 174.171 226.014 174.465 226.944 174.465H293.593C294.288 174.465 294.973 174.3 295.592 173.985C296.211 173.669 296.746 173.212 297.155 172.65C297.563 172.088 297.832 171.437 297.941 170.751C298.049 170.065 297.994 169.363 297.779 168.703Z" fill="#2D2D2D"/>
<path opacity="0.2" d="M297.779 168.703L281.419 118.424C281.132 117.541 280.572 116.771 279.82 116.225C279.068 115.679 278.163 115.385 277.234 115.385H210.583C209.889 115.385 209.204 115.549 208.585 115.865C207.966 116.18 207.43 116.637 207.022 117.199C206.614 117.761 206.344 118.412 206.236 119.098C206.127 119.784 206.183 120.486 206.398 121.147L222.758 171.425C223.045 172.309 223.605 173.079 224.357 173.625C225.109 174.171 226.014 174.465 226.944 174.465H293.593C294.288 174.465 294.973 174.3 295.592 173.985C296.211 173.669 296.746 173.212 297.155 172.65C297.563 172.088 297.832 171.437 297.941 170.751C298.049 170.065 297.994 169.363 297.779 168.703Z" fill="white"/>
<path d="M250.168 151.913C254.028 151.913 257.158 148.784 257.158 144.924C257.158 141.065 254.028 137.936 250.168 137.936C246.307 137.936 243.178 141.065 243.178 144.924C243.178 148.784 246.307 151.913 250.168 151.913Z" fill="white"/>
<path d="M184.365 5.3125H52.0809C45.9525 5.3125 40.9844 10.2796 40.9844 16.4068V176.965C40.9844 183.092 45.9525 188.059 52.0809 188.059H184.365C190.494 188.059 195.462 183.092 195.462 176.965V16.4068C195.462 10.2796 190.494 5.3125 184.365 5.3125Z" fill="#2D2D2D"/>
<path d="M189.254 0.423828H56.9696C50.8411 0.423828 45.873 5.39092 45.873 11.5181V172.076C45.873 178.203 50.8411 183.17 56.9696 183.17H189.254C195.382 183.17 200.35 178.203 200.35 172.076V11.5181C200.35 5.39092 195.382 0.423828 189.254 0.423828Z" fill="white"/>
<path d="M189.255 183.596H56.9704C53.9158 183.592 50.9872 182.378 48.8273 180.218C46.6673 178.058 45.4525 175.13 45.4492 172.076V11.5189C45.4526 8.46492 46.6675 5.53701 48.8274 3.37753C50.9873 1.21805 53.9158 0.00337132 56.9704 0L189.255 0C192.309 0.00348368 195.238 1.21821 197.397 3.37768C199.557 5.53714 200.772 8.46499 200.775 11.5189V172.076C200.772 175.13 199.557 178.058 197.398 180.218C195.238 182.377 192.309 183.592 189.255 183.596ZM56.9704 0.849131C54.141 0.852277 51.4284 1.97742 49.4277 3.9777C47.427 5.97799 46.3017 8.69006 46.2985 11.5189V172.076C46.3017 174.905 47.427 177.617 49.4277 179.618C51.4284 181.618 54.141 182.743 56.9704 182.746H189.255C192.084 182.743 194.797 181.618 196.797 179.618C198.798 177.617 199.923 174.905 199.926 172.076V11.5189C199.923 8.69009 198.798 5.97803 196.797 3.97773C194.797 1.97743 192.084 0.852278 189.255 0.849131H56.9704Z" fill="#2D2D2D"/>
<path d="M44.0911 206.146C59.3066 206.146 71.6412 193.814 71.6412 178.601C71.6412 163.389 59.3066 151.057 44.0911 151.057C28.8756 151.057 16.541 163.389 16.541 178.601C16.541 193.814 28.8756 206.146 44.0911 206.146Z" fill="#2D2D2D"/>
<path d="M38.3717 175.006C38.009 175.006 37.6612 174.862 37.4047 174.605C37.1482 174.349 37.004 174.001 37.0039 173.639V167.019C37.0039 163.359 40.1833 160.381 44.0909 160.381C47.9985 160.381 51.1779 163.359 51.1779 167.019V173.184C51.1811 173.366 51.1481 173.546 51.0808 173.715C51.0135 173.884 50.9133 174.037 50.786 174.167C50.6587 174.297 50.5068 174.399 50.3393 174.47C50.1718 174.54 49.992 174.576 49.8103 174.576C49.6287 174.576 49.4488 174.54 49.2813 174.47C49.1138 174.399 48.962 174.297 48.8347 174.167C48.7073 174.037 48.6071 173.884 48.5398 173.715C48.4725 173.546 48.4395 173.366 48.4427 173.184V167.019C48.4427 164.867 46.4893 163.115 44.0909 163.115C41.6925 163.115 39.7391 164.867 39.7391 167.019V173.64C39.7389 174.002 39.5947 174.35 39.3383 174.606C39.0819 174.862 38.7342 175.006 38.3717 175.006Z" fill="white"/>
<path d="M52.8158 172.494H35.366C34.3484 172.494 33.5234 173.319 33.5234 174.336V190.77C33.5234 191.787 34.3484 192.612 35.366 192.612H52.8158C53.8334 192.612 54.6583 191.787 54.6583 190.77V174.336C54.6583 173.319 53.8334 172.494 52.8158 172.494Z" fill="white"/>
<path d="M42.3537 180.926C42.3535 181.252 42.445 181.571 42.6177 181.847C42.7904 182.124 43.0374 182.346 43.3304 182.489V185.158C43.3304 185.359 43.4103 185.552 43.5525 185.694C43.6948 185.836 43.8877 185.916 44.0888 185.916C44.29 185.916 44.4829 185.836 44.6251 185.694C44.7673 185.552 44.8472 185.359 44.8472 185.158V182.489C45.1263 182.354 45.3641 182.146 45.5357 181.888C45.7074 181.629 45.8068 181.33 45.8235 181.02C45.8403 180.71 45.7737 180.402 45.6309 180.126C45.488 179.851 45.274 179.619 45.0111 179.454C44.7483 179.29 44.4461 179.199 44.136 179.19C43.8259 179.182 43.5192 179.256 43.2477 179.407C42.9763 179.557 42.75 179.777 42.5924 180.044C42.4348 180.311 42.3517 180.616 42.3516 180.926H42.3537Z" fill="#2D2D2D"/>
<path d="M177.701 91.6113H68.5199C65.9136 91.6113 63.8008 93.7237 63.8008 96.3295V111.633C63.8008 114.238 65.9136 116.351 68.5199 116.351H177.701C180.307 116.351 182.42 114.238 182.42 111.633V96.3295C182.42 93.7237 180.307 91.6113 177.701 91.6113Z" fill="white"/>
<path d="M177.701 116.774H68.5208C67.157 116.773 65.8496 116.23 64.8853 115.266C63.921 114.302 63.3785 112.995 63.377 111.631V96.3287C63.3785 94.9652 63.921 93.658 64.8852 92.6938C65.8495 91.7297 67.157 91.1872 68.5208 91.1855H177.701C179.065 91.1871 180.372 91.7295 181.337 92.6937C182.301 93.6579 182.844 94.9652 182.845 96.3287V111.631C182.844 112.995 182.301 114.302 181.337 115.266C180.372 116.23 179.065 116.773 177.701 116.774ZM68.5208 92.0347C67.3821 92.0359 66.2904 92.4887 65.4853 93.2938C64.6802 94.0988 64.2274 95.1903 64.2263 96.3287V111.631C64.2275 112.77 64.6803 113.861 65.4855 114.666C66.2906 115.471 67.3822 115.924 68.5208 115.925H177.701C178.84 115.924 179.931 115.471 180.736 114.666C181.542 113.861 181.995 112.77 181.996 111.631V96.3287C181.995 95.1903 181.542 94.0988 180.737 93.2937C179.931 92.4887 178.84 92.0359 177.701 92.0347H68.5208Z" fill="#2D2D2D"/>
<path d="M177.701 126.965H68.5199C65.9136 126.965 63.8008 129.077 63.8008 131.683V146.986C63.8008 149.592 65.9136 151.704 68.5199 151.704H177.701C180.307 151.704 182.42 149.592 182.42 146.986V131.683C182.42 129.077 180.307 126.965 177.701 126.965Z" fill="white"/>
<path d="M177.701 152.129H68.5208C67.1568 152.128 65.8492 151.585 64.8848 150.621C63.9205 149.656 63.3782 148.349 63.377 146.985V131.684C63.3785 130.32 63.921 129.013 64.8853 128.049C65.8496 127.085 67.157 126.543 68.5208 126.541H177.701C179.065 126.542 180.372 127.085 181.337 128.049C182.301 129.013 182.844 130.32 182.845 131.684V146.985C182.844 148.349 182.302 149.656 181.337 150.621C180.373 151.585 179.065 152.128 177.701 152.129ZM68.5208 127.39C67.3822 127.391 66.2906 127.844 65.4855 128.649C64.6803 129.454 64.2275 130.545 64.2263 131.684V146.985C64.2275 148.123 64.6803 149.215 65.4855 150.02C66.2906 150.825 67.3822 151.278 68.5208 151.279H177.701C178.84 151.278 179.931 150.825 180.737 150.02C181.542 149.215 181.995 148.124 181.996 146.985V131.684C181.995 130.545 181.542 129.454 180.737 128.649C179.931 127.844 178.84 127.391 177.701 127.39H68.5208Z" fill="#2D2D2D"/>
<path d="M123.111 73.2075C137.111 73.2075 148.46 61.8606 148.46 47.8635C148.46 33.8664 137.111 22.5195 123.111 22.5195C109.111 22.5195 97.7617 33.8664 97.7617 47.8635C97.7617 61.8606 109.111 73.2075 123.111 73.2075Z" fill="white"/>
<path d="M123.112 73.6329C118.014 73.6329 113.031 72.1216 108.793 69.2901C104.554 66.4586 101.251 62.4341 99.2998 57.7255C97.3491 53.0169 96.8387 47.8357 97.8331 42.8371C98.8276 37.8385 101.282 33.247 104.887 29.6432C108.491 26.0394 113.084 23.5851 118.083 22.5909C123.083 21.5966 128.265 22.1069 132.975 24.0572C137.684 26.0076 141.71 29.3104 144.542 33.548C147.374 37.7857 148.885 42.7677 148.885 47.8643C148.878 54.6962 146.16 61.2461 141.328 66.077C136.496 70.9079 129.945 73.6252 123.112 73.6329ZM123.112 22.9448C118.182 22.9448 113.363 24.4063 109.264 27.1445C105.166 29.8827 101.971 33.7746 100.084 38.328C98.198 42.8815 97.7044 47.8919 98.6661 52.7258C99.6278 57.5597 102.002 61.9999 105.487 65.485C108.973 68.97 113.414 71.3434 118.249 72.3049C123.084 73.2664 128.095 72.7729 132.65 70.8869C137.204 69.0008 141.097 65.8068 143.836 61.7088C146.574 57.6108 148.036 52.7929 148.036 47.8643C148.029 41.2575 145.4 34.9235 140.728 30.2518C136.055 25.5801 129.72 22.9523 123.112 22.9448Z" fill="#2D2D2D"/>
<path opacity="0.5" d="M147.897 47.8637C147.904 53.7297 145.822 59.4068 142.024 63.8778C139.685 61.1511 136.783 58.9625 133.518 57.4623C130.253 55.962 126.702 55.1856 123.109 55.1862C119.516 55.1869 115.966 55.9646 112.701 57.466C109.437 58.9674 106.536 61.157 104.198 63.8846C101.619 60.8412 99.8123 57.2202 98.9325 53.3294C98.0526 49.4386 98.1252 45.393 99.144 41.5362C100.163 37.6794 102.098 34.1256 104.784 31.1765C107.471 28.2274 110.83 25.9703 114.576 24.597C118.322 23.2237 122.344 22.7747 126.3 23.2882C130.257 23.8018 134.031 25.2626 137.302 27.5466C140.573 29.8306 143.245 32.8703 145.089 36.4075C146.934 39.9446 147.897 43.8747 147.897 47.8637Z" fill="#4C75E0"/>
<path d="M142.023 63.8771C139.697 66.6238 136.8 68.8308 133.534 70.3448C130.268 71.8588 126.712 72.6434 123.112 72.6441C119.512 72.6447 115.955 71.8614 112.689 70.3486C109.422 68.8358 106.525 66.6297 104.197 63.8839C106.536 61.1563 109.437 58.9667 112.701 57.4653C115.965 55.9639 119.516 55.1862 123.109 55.1855C126.702 55.1849 130.253 55.9613 133.518 57.4616C136.782 58.9618 139.684 61.1504 142.023 63.8771Z" fill="white"/>
<path d="M123.111 50.5628C128.644 50.5628 133.129 46.0782 133.129 40.5461C133.129 35.014 128.644 30.5293 123.111 30.5293C117.577 30.5293 113.092 35.014 113.092 40.5461C113.092 46.0782 117.577 50.5628 123.111 50.5628Z" fill="white"/>
<g opacity="0.4">
<path d="M72.9918 142.348C74.6561 142.348 76.0052 140.999 76.0052 139.335C76.0052 137.671 74.6561 136.322 72.9918 136.322C71.3276 136.322 69.9785 137.671 69.9785 139.335C69.9785 140.999 71.3276 142.348 72.9918 142.348Z" fill="#2D2D2D"/>
<path d="M82.4176 142.348C84.0818 142.348 85.4309 140.999 85.4309 139.335C85.4309 137.671 84.0818 136.322 82.4176 136.322C80.7534 136.322 79.4043 137.671 79.4043 139.335C79.4043 140.999 80.7534 142.348 82.4176 142.348Z" fill="#2D2D2D"/>
<path d="M91.8434 142.348C93.5076 142.348 94.8567 140.999 94.8567 139.335C94.8567 137.671 93.5076 136.322 91.8434 136.322C90.1792 136.322 88.8301 137.671 88.8301 139.335C88.8301 140.999 90.1792 142.348 91.8434 142.348Z" fill="#2D2D2D"/>
<path d="M101.269 142.348C102.933 142.348 104.283 140.999 104.283 139.335C104.283 137.671 102.933 136.322 101.269 136.322C99.605 136.322 98.2559 137.671 98.2559 139.335C98.2559 140.999 99.605 142.348 101.269 142.348Z" fill="#2D2D2D"/>
<path d="M110.695 142.348C112.359 142.348 113.708 140.999 113.708 139.335C113.708 137.671 112.359 136.322 110.695 136.322C109.031 136.322 107.682 137.671 107.682 139.335C107.682 140.999 109.031 142.348 110.695 142.348Z" fill="#2D2D2D"/>
<path d="M120.121 142.348C121.785 142.348 123.134 140.999 123.134 139.335C123.134 137.671 121.785 136.322 120.121 136.322C118.457 136.322 117.107 137.671 117.107 139.335C117.107 140.999 118.457 142.348 120.121 142.348Z" fill="#2D2D2D"/>
<path d="M129.547 142.348C131.211 142.348 132.56 140.999 132.56 139.335C132.56 137.671 131.211 136.322 129.547 136.322C127.882 136.322 126.533 137.671 126.533 139.335C126.533 140.999 127.882 142.348 129.547 142.348Z" fill="#2D2D2D"/>
</g>
<g opacity="0.3">
<path d="M75.9812 103.797V104.816H72.1113V103.797H75.9812Z" fill="#2D2D2D"/>
<path d="M80.7898 103.797V104.816H76.9199V103.797H80.7898Z" fill="#2D2D2D"/>
<path d="M85.5984 103.797V104.816H81.7285V103.797H85.5984Z" fill="#2D2D2D"/>
<path d="M90.4069 103.797V104.816H86.5371V103.797H90.4069Z" fill="#2D2D2D"/>
<path d="M95.2179 103.797V104.816H91.3477V103.797H95.2179Z" fill="#2D2D2D"/>
<path d="M103.896 109.546C103.035 109.989 102.076 110.205 101.109 110.174C98.5394 110.174 96.3613 108.294 96.3613 105.287C96.3613 102.06 98.6022 99.2715 102.08 99.2715C104.806 99.2715 106.64 101.182 106.64 103.799C106.64 106.149 105.323 107.527 103.85 107.527C103.224 107.527 102.644 107.102 102.691 106.149H102.628C102.426 106.562 102.111 106.91 101.721 107.153C101.331 107.397 100.88 107.526 100.42 107.527C99.5114 107.527 98.7279 106.791 98.7279 105.553C98.7262 105.065 98.821 104.582 99.007 104.13C99.1931 103.679 99.4665 103.269 99.8117 102.924C100.157 102.579 100.567 102.306 101.018 102.12C101.47 101.934 101.953 101.839 102.441 101.841C103.017 101.832 103.588 101.944 104.118 102.17L103.585 105.005C103.35 106.194 103.538 106.746 104.055 106.76C104.854 106.775 105.747 105.71 105.747 103.893C105.747 101.621 104.384 99.9924 101.956 99.9924C99.4018 99.9924 97.2552 102.013 97.2552 105.193C97.2552 107.809 98.9632 109.422 101.282 109.422C102.104 109.442 102.918 109.253 103.648 108.874L103.896 109.546ZM103.034 102.779C102.78 102.705 102.516 102.668 102.251 102.67C100.872 102.67 99.7598 103.97 99.7598 105.489C99.7598 106.178 100.105 106.678 100.794 106.678C101.703 106.678 102.533 105.519 102.705 104.548L103.034 102.779Z" fill="#2D2D2D"/>
<path d="M111.571 103.797V104.816H107.701V103.797H111.571Z" fill="#2D2D2D"/>
<path d="M116.38 103.797V104.816H112.51V103.797H116.38Z" fill="#2D2D2D"/>
<path d="M121.188 103.797V104.816H117.318V103.797H121.188Z" fill="#2D2D2D"/>
</g>
</g>
<defs>
<clipPath id="clip0_327_8672">
<rect width="378" height="366" fill="white"/>
</clipPath>
</defs>
</svg>
