<svg width="1797" height="195" viewBox="0 0 1797 195" fill="none" xmlns="http://www.w3.org/2000/svg">
<path d="M40.3601 0.857843C39.341 1.3646 36.8572 3.26495 34.8192 5.10195C30.8068 8.96598 29.5331 12.0065 30.4247 15.9339C30.9979 18.4677 31.1889 18.7844 40.2327 30.9466C52.6519 47.6697 53.4798 49.2533 50.996 51.4704C50.0407 52.3572 46.9836 52.4839 27.9408 52.6739C8.38856 52.864 5.71365 52.9906 3.93038 54.0042C0.0453998 56.0945 -1.10099 60.7187 1.1281 65.5329C1.76498 66.9899 15.5216 87.8937 31.6985 111.965C47.8753 136.099 61.2498 156.623 61.4409 157.573C61.6956 158.777 61.3772 159.853 60.4855 160.994C59.1481 162.641 59.1481 162.641 48.5121 162.831C38.5768 163.084 37.6215 163.211 35.3924 164.604C31.38 167.075 30.4884 169.672 30.4884 178.984C30.4884 188.929 31.5074 191.653 35.8382 193.806C38.5768 195.073 38.7042 195.073 126.212 194.946L213.847 194.756L215.63 193.426C219.324 190.639 219.961 188.675 219.961 179.237C219.961 171.826 219.77 170.369 218.687 168.532C215.885 163.781 212.828 162.831 200.536 162.767C190.282 162.767 189.072 162.26 189.072 158.27C189.072 155.989 192.065 151.365 219.26 110.888C239.959 80.2289 249.64 65.2795 249.894 63.6959C250.404 61.0988 249.003 56.4746 247.156 54.9543C244.417 52.6106 243.08 52.5472 177.353 52.5472C117.741 52.4839 112.774 52.4205 110.608 51.407C109.334 50.8369 95.8962 39.6249 80.8021 26.5759C65.708 13.5268 52.2061 2.18809 50.7412 1.3646C47.7479 -0.219019 43.3534 -0.472398 40.3601 0.857843ZM134.81 71.9308C138.695 74.2112 139.395 76.1749 139.395 85.2965C139.395 93.5947 139.968 96.3819 142.07 98.6623C144.936 101.639 146.783 102.146 156.718 102.526L166.081 102.906L168.31 105.06C171.558 108.164 172.004 109.874 171.749 117.412C171.558 124.57 170.921 126.027 167.163 128.814C165.635 129.955 164.234 130.208 156.082 130.461C145.7 130.841 143.79 131.412 141.242 135.022C139.905 136.796 139.777 137.999 139.459 146.614C139.013 157.13 138.567 158.586 134.746 160.867C131.753 162.704 119.015 162.704 116.022 160.867C112.391 158.713 111.755 156.559 111.372 146.171C111.118 138.063 110.863 136.669 109.717 135.149C106.723 131.158 105.704 130.778 95.5778 130.461C84.9418 130.081 83.1585 129.448 80.6747 125.584C79.3373 123.43 79.2099 122.417 79.2099 116.082C79.2099 109.938 79.4009 108.797 80.5473 107.277C83.5407 103.286 84.5597 102.906 94.7498 102.59C102.966 102.273 104.367 102.02 106.405 100.816C110.29 98.4089 111.372 95.305 111.372 86.2467C111.372 78.2019 111.818 75.9848 114.111 73.5144C116.467 71.0439 118.888 70.3471 125.639 70.2838C131.307 70.2838 132.262 70.4738 134.81 71.9308Z" fill="#E09958"/>
<path d="M504 112.5V195L512.212 194.664L520.312 194.327L520.875 157.337C521.55 117.544 521.662 116.872 527.85 107.68C532.012 101.627 538.425 96.9192 545.85 94.4531C553.837 91.875 571.387 92.6596 577.8 95.9103C585.112 99.7215 590.062 105.774 592.762 113.733C595.012 120.459 595.125 123.373 595.125 157.897V194.888H603.562H612V159.803C612 140.635 611.437 121.579 610.875 117.656C608.4 100.618 600.862 89.0727 587.812 82.6834C568.237 73.0435 540.9 76.7425 525.937 91.0904C522.9 93.8927 520.425 96.2466 520.425 96.2466C520.312 96.2466 520.312 81.4504 520.312 63.5156V30.6726L512.212 30.3363L504 30V112.5Z" fill="#2D2D2D"/>
<path d="M1688.78 30.5375C1688.34 30.9868 1688 68.1707 1688 113.218V195H1696.39H1704.78V178.262V161.636L1717.64 149.616C1724.69 143.1 1730.84 137.708 1731.4 137.82C1731.85 137.82 1742.36 150.739 1754.89 166.466L1777.6 195H1787.78C1795.72 195 1797.62 194.663 1796.84 193.54C1796.17 192.866 1784.09 177.363 1769.88 159.277C1755.56 141.303 1743.93 126.362 1743.93 126.137C1743.93 125.912 1754.78 115.465 1767.98 102.771C1781.18 90.1889 1792.03 79.5168 1792.03 78.9551C1792.03 78.5057 1787.78 78.1687 1782.52 78.1687H1772.9L1739.12 109.174L1705.34 140.179L1704.78 85.246L1704.22 30.4252L1696.95 30.0881C1692.92 29.8635 1689.23 30.0881 1688.78 30.5375Z" fill="#2D2D2D"/>
<path d="M350 117.5V195H358.372H366.744V170.851V146.703H386.167C435.953 146.703 454.484 139.402 465.87 115.478C470 106.942 470 106.605 470 92.7899C470 79.1993 469.888 78.5254 466.205 70.663C459.395 55.9493 445.442 45.5036 427.47 41.6848C421.665 40.4493 411.172 40 384.94 40H350V117.5ZM422.67 56.1739C431.935 58.1956 438.186 61.3406 443.544 66.7319C458.167 81.4456 456.493 110.087 440.307 121.88C430.037 129.406 426.019 130.192 394.986 130.754L366.744 131.203V92.9022V54.6014H391.079C407.6 54.6014 417.647 55.163 422.67 56.1739Z" fill="#2D2D2D"/>
<path d="M1213 47.3007V54.6014H1240H1267V124.801V195H1275.44H1283.87V124.801V54.6014H1311.44H1339V47.3007V40H1276H1213V47.3007Z" fill="#2D2D2D"/>
<path d="M681.086 77.9202C669.929 79.5928 653.194 86.5061 648.842 91.3008C647.057 93.1964 647.169 93.7539 649.958 98.4371C651.632 101.225 653.417 103.789 653.863 104.124C654.309 104.458 657.322 103.009 660.446 100.89C671.491 93.4194 689.454 89.7397 701.95 92.3043C716.12 95.3149 723.93 104.681 725.045 120.18L725.603 127.874L698.938 128.32C674.838 128.766 671.714 129.101 666.024 131.331C652.413 136.572 645.272 145.269 644.156 158.204C642.148 179.835 659.665 195 686.442 195C700.946 195 712.996 190.651 720.806 182.511L725.268 178.051V185.968V193.885H733.19H741L740.665 150.064L740.331 106.354L737.43 100.221C733.302 91.4123 728.392 86.2831 720.471 82.3804C709.983 77.3627 695.925 75.8017 681.086 77.9202ZM725.268 149.506C725.268 157.757 724.822 159.43 721.921 164.559C715.897 174.929 705.967 180.504 691.797 181.396C677.405 182.177 668.702 178.832 663.123 170.581C658.214 163.221 660.446 150.733 667.586 145.715C673.5 141.478 679.859 140.474 703.289 140.474L725.268 140.363V149.506Z" fill="#2D2D2D"/>
<path d="M829.285 78.2362C820.696 79.5848 810.435 85.3162 804.746 91.7219L799.615 97.4533V87.7886V78.1238H791.808H784V136.562V195H791.696H799.392L799.838 159.825C800.396 121.166 800.842 118.244 807.646 108.017C813.335 99.2514 822.035 94.6438 835.642 93.0705L842 92.3962V84.7543V77L838.431 77.1124C836.423 77.2248 832.296 77.6743 829.285 78.2362Z" fill="#2D2D2D"/>
<path d="M918.281 78.5952C907.277 80.3809 895.937 86.4076 889.649 93.7736L885.719 98.3494V88.6398V78.9301H877.86H870V136.965V195H878.421H886.842V159.509C886.842 126.028 886.954 123.572 889.312 116.764C891.221 111.184 893.018 108.282 897.958 103.483C905.93 95.6709 911.993 93.4388 925.018 93.4388C939.726 93.5504 947.811 98.0146 953.986 109.622L957.018 115.202L957.354 155.045L957.691 195H966H974.309L974.646 158.393C974.982 123.126 975.095 121.675 977.677 115.314C983.404 101.028 995.642 93.4388 1012.93 93.4388C1027.19 93.4388 1037.19 99.0191 1041.9 109.733C1045.38 117.322 1046.28 128.148 1046.28 162.3V195H1054.14H1062V157.166C1062 136.407 1061.44 116.764 1060.88 113.528C1056.27 89.6442 1036.85 76.1399 1010.24 78.2604C994.856 79.4881 984.077 84.7335 974.421 95.3361C969.032 101.474 968.919 101.586 967.796 98.9075C964.54 90.537 951.067 81.2738 938.491 78.9301C932.653 77.814 923.782 77.7024 918.281 78.5952Z" fill="#2D2D2D"/>
<path d="M1132.26 77.5356C1123.66 78.9907 1115.51 81.6771 1108.48 85.4829C1098.2 91.0796 1097.65 91.6393 1099.21 95.2212C1099.88 97.0122 1101.55 99.8105 1103.01 101.49L1105.46 104.512L1110.26 101.154C1120.31 94.3257 1135.28 90.408 1147.45 91.4154C1165.54 92.8706 1175.14 102.833 1175.25 119.847V128.018H1153.81C1141.98 128.018 1129.14 128.578 1125.34 129.137C1104.79 132.495 1093.96 144.696 1095.08 163.277C1095.75 172.904 1098.54 178.724 1105.57 184.881C1112.61 191.149 1120.98 194.171 1133.38 194.843C1150.24 195.85 1161.85 192.045 1171.68 182.53L1176.37 177.941V186V194.059H1184.18H1192V153.427C1192 120.406 1191.67 111.564 1190.33 106.191C1185.52 87.7216 1171.57 78.0952 1148.45 77.0878C1142.65 76.864 1135.39 77.0878 1132.26 77.5356ZM1175.25 150.853C1175.25 161.151 1175.14 161.374 1171.12 166.859C1163.75 176.821 1153.7 181.635 1139.97 181.747C1121.88 181.747 1111.49 174.359 1111.38 161.151C1111.27 154.323 1113.61 149.286 1118.53 145.592C1123.89 141.562 1131.14 140.443 1153.81 140.443L1175.25 140.331V150.853Z" fill="#2D2D2D"/>
<path d="M1402.62 78.2362C1393.8 79.9219 1384.21 85.541 1378.08 92.3962L1372.5 98.8019V88.4629V78.1238H1365.25H1358V136.562V195H1365.81H1373.62V163.758C1373.62 146.564 1374.17 129.482 1374.73 125.773C1376.96 113.411 1382.43 103.971 1390.46 98.8019C1395.48 95.6552 1405.63 92.7333 1411.76 92.7333H1416V84.8667V77L1411.87 77.1124C1409.53 77.2248 1405.4 77.6743 1402.62 78.2362Z" fill="#2D2D2D"/>
<path d="M1462.6 77.1999C1453.05 78.7745 1441.94 82.8236 1434.87 87.435L1428.13 91.8216L1431.28 97.1079C1432.85 100.032 1434.64 102.844 1435.09 103.294C1435.54 103.856 1438.68 102.507 1442.05 100.257C1452.49 93.6211 1460.8 91.2592 1474.38 91.2592C1487.18 91.2592 1492.57 92.9463 1499.3 99.3573C1503.57 103.294 1506.94 112.854 1506.94 120.84V127.476L1480.33 127.926C1455.86 128.376 1453.05 128.713 1446.99 131.075C1443.29 132.425 1438.01 135.687 1435.32 138.274C1428.36 144.685 1426 150.421 1426 161.106C1426 168.417 1426.45 170.779 1429.14 175.952C1434.87 187.2 1447.22 193.836 1464.28 194.848C1480.22 195.86 1493.13 191.811 1502.9 182.701L1508.06 177.977V186.075V194.061H1516.03H1524L1523.55 150.983C1523.1 109.48 1522.99 107.793 1520.63 101.607C1512.77 81.9238 1490.44 72.4759 1462.6 77.1999ZM1506.94 149.971C1506.94 158.969 1506.6 160.318 1503.79 164.93C1499.86 171.004 1494.59 175.615 1487.85 178.764C1480.44 182.251 1460.13 182.139 1453.62 178.652C1440.48 171.678 1437.9 156.269 1448.11 146.597C1453.5 141.535 1461.14 140.186 1485.38 140.186L1506.94 140.073V149.971Z" fill="#2D2D2D"/>
<path d="M1599.09 78.286C1582.99 81.866 1567.45 93.2772 1560.58 106.478C1552.93 121.246 1551.8 143.621 1557.99 158.836C1567.79 183.113 1589.97 196.538 1617.44 194.859C1634.33 193.964 1649.3 187.028 1656.73 176.736L1660 172.261L1656.28 169.24C1648.74 163.087 1648.18 163.087 1643.45 168.345C1624.87 188.818 1587.6 182.441 1574.77 156.486C1571.73 150.221 1571.5 149.103 1571.5 135.901C1571.5 122.924 1571.73 121.47 1574.54 115.764C1579.38 105.919 1584.68 100.661 1594.36 95.9622C1602.47 91.9347 1603.48 91.711 1613.72 91.711C1623.63 91.711 1625.1 92.0466 1631.96 95.4028C1636.02 97.4166 1641.2 100.997 1643.45 103.458C1645.7 105.919 1647.73 107.933 1648.07 107.933C1649.19 107.933 1659.89 100.661 1659.89 99.8778C1659.89 99.5422 1658.09 96.9691 1655.83 94.2841C1650.65 88.131 1642.55 82.761 1634.33 79.8523C1625.55 76.8316 1608.77 76.0485 1599.09 78.286Z" fill="#2D2D2D"/>
</svg>
