<svg width="158" height="119" viewBox="0 0 158 119" fill="none" xmlns="http://www.w3.org/2000/svg">
<path d="M39.5768 95.9068C36.3575 93.4211 22.1547 81.8463 20.6879 65.0911C18.6299 41.5873 43.3082 26.908 50.0772 22.8752C65.5981 13.6488 102.906 -0.275571 126.558 20.5243C145.503 37.1843 144.015 67.8255 132.302 85.3555C112.999 114.241 65.1228 115.632 39.5768 95.9068Z" fill="#EFF5F9"/>
<path d="M126.05 54.9043H118.033C117.887 54.9043 117.77 55.0227 117.77 55.1687V58.465C117.77 58.6111 117.887 58.7295 118.033 58.7295H126.05C126.195 58.7295 126.313 58.6111 126.313 58.465V55.1687C126.313 55.0227 126.195 54.9043 126.05 54.9043Z" stroke="#C9EFFB" stroke-width="2" stroke-miterlimit="10"/>
<path d="M126.05 62.541H118.033C117.887 62.541 117.77 62.6594 117.77 62.8055V66.1018C117.77 66.2478 117.887 66.3662 118.033 66.3662H126.05C126.195 66.3662 126.313 66.2478 126.313 66.1018V62.8055C126.313 62.6594 126.195 62.541 126.05 62.541Z" stroke="#C9EFFB" stroke-width="2" stroke-miterlimit="10"/>
<path d="M130.322 58.7285H122.304C122.159 58.7285 122.041 58.8469 122.041 58.993V62.2893C122.041 62.4353 122.159 62.5537 122.304 62.5537H130.322C130.467 62.5537 130.585 62.4353 130.585 62.2893V58.993C130.585 58.8469 130.467 58.7285 130.322 58.7285Z" fill="#C9EFFB"/>
<path d="M121.779 58.7285H113.761C113.616 58.7285 113.498 58.8469 113.498 58.993V62.2893C113.498 62.4353 113.616 62.5537 113.761 62.5537H121.779C121.924 62.5537 122.042 62.4353 122.042 62.2893V58.993C122.042 58.8469 121.924 58.7285 121.779 58.7285Z" fill="#C9EFFB"/>
<path d="M32.3313 73.8105H24.3141C24.1687 73.8105 24.0508 73.9289 24.0508 74.075V77.3713C24.0508 77.5173 24.1687 77.6357 24.3141 77.6357H32.3313C32.4767 77.6357 32.5946 77.5173 32.5946 77.3713V74.075C32.5946 73.9289 32.4767 73.8105 32.3313 73.8105Z" stroke="#C9EFFB" stroke-width="2" stroke-miterlimit="10"/>
<path d="M36.6028 81.4473H28.5856C28.4402 81.4473 28.3223 81.5657 28.3223 81.7117V85.008C28.3223 85.1541 28.4402 85.2725 28.5856 85.2725H36.6028C36.7482 85.2725 36.8661 85.1541 36.8661 85.008V81.7117C36.8661 81.5657 36.7482 81.4473 36.6028 81.4473Z" stroke="#C9EFFB" stroke-width="2" stroke-miterlimit="10"/>
<path d="M38.3782 77.6348H30.361C30.2156 77.6348 30.0977 77.7532 30.0977 77.8992V81.1955C30.0977 81.3416 30.2156 81.46 30.361 81.46H38.3782C38.5236 81.46 38.6415 81.3416 38.6415 81.1955V77.8992C38.6415 77.7532 38.5236 77.6348 38.3782 77.6348Z" fill="#C9EFFB"/>
<path d="M29.8352 77.6348H21.818C21.6726 77.6348 21.5547 77.7532 21.5547 77.8992V81.1955C21.5547 81.3416 21.6726 81.46 21.818 81.46H29.8352C29.9806 81.46 30.0985 81.3416 30.0985 81.1955V77.8992C30.0985 77.7532 29.9806 77.6348 29.8352 77.6348Z" fill="#C9EFFB"/>
<path d="M82.0227 22.8477H74.0055C73.8601 22.8477 73.7422 22.9661 73.7422 23.1121V26.4084C73.7422 26.5544 73.8601 26.6728 74.0055 26.6728H82.0227C82.1681 26.6728 82.286 26.5544 82.286 26.4084V23.1121C82.286 22.9661 82.1681 22.8477 82.0227 22.8477Z" fill="#C9EFFB"/>
<path d="M84.9094 30.498H76.8922C76.7468 30.498 76.6289 30.6164 76.6289 30.7625V34.0588C76.6289 34.2048 76.7468 34.3232 76.8922 34.3232H84.9094C85.0549 34.3232 85.1728 34.2048 85.1728 34.0588V30.7625C85.1728 30.6164 85.0549 30.498 84.9094 30.498Z" fill="#C9EFFB"/>
<path d="M88.0696 26.6719H80.0524C79.907 26.6719 79.7891 26.7903 79.7891 26.9363V30.2326C79.7891 30.3787 79.907 30.4971 80.0524 30.4971H88.0696C88.215 30.4971 88.3329 30.3787 88.3329 30.2326V26.9363C88.3329 26.7903 88.215 26.6719 88.0696 26.6719Z" stroke="#C9EFFB" stroke-width="2" stroke-miterlimit="10"/>
<path d="M79.5266 26.6719H71.5094C71.364 26.6719 71.2461 26.7903 71.2461 26.9363V30.2326C71.2461 30.3787 71.364 30.4971 71.5094 30.4971H79.5266C79.672 30.4971 79.7899 30.3787 79.7899 30.2326V26.9363C79.7899 26.7903 79.672 26.6719 79.5266 26.6719Z" stroke="#C9EFFB" stroke-width="2" stroke-miterlimit="10"/>
<path d="M37.4626 28.5516H27.1228C27.0403 28.5524 26.9585 28.5366 26.8822 28.5052C26.8058 28.4738 26.7365 28.4275 26.6781 28.3689C26.6198 28.3103 26.5736 28.2406 26.5424 28.164C26.5111 28.0873 26.4954 28.0051 26.4961 27.9223V17.5415C26.4956 17.4587 26.5114 17.3766 26.5428 17.3C26.5741 17.2234 26.6202 17.1538 26.6785 17.0953C26.7368 17.0367 26.8061 16.9904 26.8824 16.959C26.9587 16.9275 27.0404 16.9116 27.1228 16.9121H37.46C37.5425 16.9116 37.6242 16.9275 37.7005 16.959C37.7767 16.9904 37.846 17.0367 37.9043 17.0953C37.9626 17.1538 38.0088 17.2234 38.0401 17.3C38.0714 17.3766 38.0873 17.4587 38.0867 17.5415V27.9223C38.0834 28.0877 38.0166 28.2454 37.9004 28.3627C37.7841 28.4799 37.6273 28.5476 37.4626 28.5516Z" fill="#A04833"/>
<path d="M37.7255 28.8473H26.8498C26.6752 28.8473 26.5077 28.7777 26.3843 28.6537C26.2608 28.5297 26.1915 28.3616 26.1915 28.1862V17.2647C26.1904 17.1776 26.2067 17.0911 26.2394 17.0104C26.2721 16.9297 26.3206 16.8564 26.3819 16.7948C26.4433 16.7332 26.5163 16.6846 26.5966 16.6517C26.677 16.6189 26.763 16.6025 26.8498 16.6036H37.7255C37.9001 16.6036 38.0675 16.6732 38.191 16.7972C38.3144 16.9212 38.3838 17.0893 38.3838 17.2647V28.1862C38.3838 28.3616 38.3144 28.5297 38.191 28.6537C38.0675 28.7777 37.9001 28.8473 37.7255 28.8473ZM26.8498 17.2647V28.1862H37.7307V17.266L26.8498 17.2647Z" fill="#FFC065"/>
<path d="M29.7461 25.2912C29.8795 25.0052 30.029 24.7271 30.1938 24.4582C30.4176 24.2598 30.6151 24.0351 30.8389 23.8235L32.1161 22.541L32.0371 22.7261V21.1394C32.0371 20.875 32.0239 20.6105 32.0503 20.3461C32.1293 20.0816 32.2083 19.8172 32.3004 19.5527C32.4017 19.8112 32.4853 20.0762 32.5506 20.3461C32.5638 20.6105 32.5506 20.875 32.5638 21.1394V22.8451L32.4848 22.9244L31.2076 24.207C30.9969 24.4185 30.7731 24.6301 30.5756 24.8548C30.3123 25.0003 30.0358 25.159 29.7461 25.2912Z" fill="#FFC065"/>
<path d="M140.138 14.959H75.8926V50.105H140.138V14.959Z" fill="#CC7829"/>
<path d="M141.808 50.2441H74.4473V51.3125H141.808V50.2441Z" fill="#BED5E6"/>
<path d="M118.389 26.3036H113.688V22.1492C113.688 21.5727 113.909 21.6441 114.305 21.2236L114.932 20.5625H117.145L117.77 21.2236C118.165 21.6401 118.389 21.5687 118.389 22.1492V26.3036Z" fill="#E3EAF3"/>
<path d="M117.426 19.4199H114.652C114.336 19.4199 114.08 19.6768 114.08 19.9938V19.9977C114.08 20.3147 114.336 20.5716 114.652 20.5716H117.426C117.741 20.5716 117.997 20.3147 117.997 19.9977V19.9938C117.997 19.6768 117.741 19.4199 117.426 19.4199Z" fill="#E3EAF3"/>
<path d="M118.388 23.0723H113.688V24.5611H118.388V23.0723Z" fill="#EF3E3B"/>
<path d="M123.677 26.3036H118.977V22.1492C118.977 21.5727 119.198 21.6441 119.594 21.2236L120.219 20.5625H122.434L123.06 21.2236C123.455 21.6401 123.677 21.5687 123.677 22.1492V26.3036Z" fill="#E3EAF3"/>
<path d="M122.713 19.4199H119.939C119.623 19.4199 119.367 19.6768 119.367 19.9938V19.9977C119.367 20.3147 119.623 20.5716 119.939 20.5716H122.713C123.028 20.5716 123.284 20.3147 123.284 19.9977V19.9938C123.284 19.6768 123.028 19.4199 122.713 19.4199Z" fill="#E3EAF3"/>
<path d="M123.677 23.0723H118.977V24.5611H123.677V23.0723Z" fill="#EF3E3B"/>
<path d="M132.767 38.4227H128.066V34.2683C128.066 33.6931 128.288 33.7632 128.684 33.3428L129.309 32.6816H131.523L132.149 33.3428C132.544 33.7579 132.767 33.6879 132.767 34.2683V38.4227Z" fill="#E3EAF3"/>
<path d="M131.803 31.541H129.028C128.713 31.541 128.457 31.7979 128.457 32.1149V32.1188C128.457 32.4358 128.713 32.6927 129.028 32.6927H131.803C132.118 32.6927 132.374 32.4358 132.374 32.1188V32.1149C132.374 31.7979 132.118 31.541 131.803 31.541Z" fill="#E3EAF3"/>
<path d="M132.767 35.1914H128.066V36.6802H132.767V35.1914Z" fill="#EF3E3B"/>
<path d="M138.055 38.4227H133.354V34.2683C133.354 33.6931 133.575 33.7632 133.971 33.3428L134.598 32.6816H136.811L137.436 33.3428C137.831 33.7579 138.055 33.6879 138.055 34.2683V38.4227Z" fill="#54A4CC"/>
<path d="M137.092 31.541H134.318C134.002 31.541 133.746 31.7979 133.746 32.1149V32.1188C133.746 32.4358 134.002 32.6927 134.318 32.6927H137.092C137.407 32.6927 137.663 32.4358 137.663 32.1188V32.1149C137.663 31.7979 137.407 31.541 137.092 31.541Z" fill="#E3EAF3"/>
<path d="M93.0325 38.4227H88.332V34.2683C88.332 33.6931 88.5532 33.7632 88.9495 33.3428L89.5763 32.6816H91.7896L92.415 33.3428C92.81 33.7579 93.0325 33.6879 93.0325 34.2683V38.4227Z" fill="#E3EAF3"/>
<path d="M92.0703 31.541H89.296C88.9805 31.541 88.7246 31.7979 88.7246 32.1149V32.1188C88.7246 32.4358 88.9805 32.6927 89.296 32.6927H92.0703C92.3859 32.6927 92.6417 32.4358 92.6417 32.1188V32.1149C92.6417 31.7979 92.3859 31.541 92.0703 31.541Z" fill="#E3EAF3"/>
<path d="M93.0325 35.1914H88.332V36.6802H93.0325V35.1914Z" fill="#54A4CC"/>
<path d="M98.3216 38.4227H93.6211V34.2683C93.6211 33.6931 93.8423 33.7632 94.2386 33.3428L94.864 32.6816H97.0773L97.7041 33.3428C98.0991 33.7579 98.3216 33.6879 98.3216 34.2683V38.4227Z" fill="#E3EAF3"/>
<path d="M97.3574 31.541H94.5831C94.2676 31.541 94.0117 31.7979 94.0117 32.1149V32.1188C94.0117 32.4358 94.2676 32.6927 94.5831 32.6927H97.3574C97.673 32.6927 97.9288 32.4358 97.9288 32.1188V32.1149C97.9288 31.7979 97.673 31.541 97.3574 31.541Z" fill="#E3EAF3"/>
<path d="M98.3216 35.1914H93.6211V36.6802H98.3216V35.1914Z" fill="#EF3E3B"/>
<path d="M84.5443 50.2626H79.8438V46.1082C79.8438 45.533 80.065 45.6031 80.4613 45.1826L81.0867 44.5215H83.3L83.9267 45.1826C84.3217 45.5978 84.5443 45.5277 84.5443 46.1082V50.2626Z" fill="#E3EAF3"/>
<path d="M83.58 43.377H80.8058C80.4902 43.377 80.2344 43.6339 80.2344 43.9508V43.9548C80.2344 44.2717 80.4902 44.5286 80.8058 44.5286H83.58C83.8956 44.5286 84.1515 44.2717 84.1515 43.9548V43.9508C84.1515 43.6339 83.8956 43.377 83.58 43.377Z" fill="#E3EAF3"/>
<path d="M84.5443 47.0312H79.8438V48.5201H84.5443V47.0312Z" fill="#54A4CC"/>
<path d="M89.8314 50.2626H85.1309V46.1082C85.1309 45.533 85.3521 45.6031 85.7484 45.1826L86.3751 44.5215H88.5884L89.2138 45.1826C89.6088 45.5978 89.8314 45.5277 89.8314 46.1082V50.2626Z" fill="#E3EAF3"/>
<path d="M88.8691 43.377H86.0949C85.7793 43.377 85.5234 43.6339 85.5234 43.9508V43.9548C85.5234 44.2717 85.7793 44.5286 86.0949 44.5286H88.8691C89.1847 44.5286 89.4405 44.2717 89.4405 43.9548V43.9508C89.4405 43.6339 89.1847 43.377 88.8691 43.377Z" fill="#E3EAF3"/>
<path d="M89.8314 47.0312H85.1309V48.5201H89.8314V47.0312Z" fill="#EF3E3B"/>
<path d="M138.615 26.3046H131.887V20.3639C131.887 19.5401 132.204 19.642 132.772 19.0417L133.667 18.1016H136.836L137.731 19.0417C138.299 19.638 138.615 19.5362 138.615 20.3639V26.3046Z" fill="#54A4CC"/>
<path d="M137.235 16.4492H133.266C132.814 16.4492 132.447 16.8174 132.447 17.2716V17.2756C132.447 17.7298 132.814 18.098 133.266 18.098H137.235C137.687 18.098 138.054 17.7298 138.054 17.2756V17.2716C138.054 16.8174 137.687 16.4492 137.235 16.4492Z" fill="#E3EAF3"/>
<path d="M138.615 21.6797H131.887V23.8111H138.615V21.6797Z" fill="#EF3E3B"/>
<path d="M86.0114 38.4233H79.2832V32.4733C79.2832 31.6495 79.5992 31.7513 80.1667 31.151L81.0633 30.2109H84.2312L85.1266 31.151C85.6941 31.7474 86.0114 31.6455 86.0114 32.4733V38.4233Z" fill="#E3EAF3"/>
<path d="M84.6312 28.5703H80.6627C80.2104 28.5703 79.8438 28.9385 79.8438 29.3927V29.3967C79.8438 29.8509 80.2104 30.2191 80.6627 30.2191H84.6312C85.0835 30.2191 85.4501 29.8509 85.4501 29.3967V29.3927C85.4501 28.9385 85.0835 28.5703 84.6312 28.5703Z" fill="#54A4CC"/>
<path d="M86.0114 33.7988H79.2832V35.9303H86.0114V33.7988Z" fill="#EF3E3B"/>
<path d="M126.462 38.4233H119.732V32.4733C119.732 31.6495 120.05 31.7513 120.617 31.151L121.513 30.2109H124.688L125.584 31.151C126.151 31.7474 126.468 31.6455 126.468 32.4733L126.462 38.4233Z" fill="#E3EAF3"/>
<path d="M125.08 28.5703H121.112C120.66 28.5703 120.293 28.9385 120.293 29.3927V29.3967C120.293 29.8509 120.66 30.2191 121.112 30.2191H125.08C125.533 30.2191 125.899 29.8509 125.899 29.3967V29.3927C125.899 28.9385 125.533 28.5703 125.08 28.5703Z" fill="#54A4CC"/>
<path d="M126.461 33.7988H119.732V35.9303H126.461V33.7988Z" fill="#EF3E3B"/>
<path d="M113.047 49.9526H106.318V44.0026C106.318 43.1775 106.634 43.2793 107.202 42.6803L108.098 41.7402H111.266L112.163 42.6803C112.731 43.2753 113.047 43.1735 113.047 44.0026V49.9526Z" fill="#E3EAF3"/>
<path d="M111.666 40.0996H107.698C107.246 40.0996 106.879 40.4678 106.879 40.922V40.926C106.879 41.3802 107.246 41.7484 107.698 41.7484H111.666C112.119 41.7484 112.485 41.3802 112.485 40.926V40.922C112.485 40.4678 112.119 40.0996 111.666 40.0996Z" fill="#E3EAF3"/>
<path d="M113.047 45.3262H106.318V47.4576H113.047V45.3262Z" fill="#EF3E3B"/>
<path d="M133.802 50.2631H127.074V44.3131C127.074 43.4894 127.392 43.5899 127.958 42.9909L128.854 42.0508H132.022L132.919 42.9909C133.486 43.5859 133.802 43.4854 133.802 44.3131V50.2631Z" fill="#E3EAF3"/>
<path d="M132.401 40.4102H128.432C127.98 40.4102 127.613 40.7784 127.613 41.2326V41.2365C127.613 41.6908 127.98 42.059 128.432 42.059H132.401C132.853 42.059 133.22 41.6908 133.22 41.2365V41.2326C133.22 40.7784 132.853 40.4102 132.401 40.4102Z" fill="#EF3E3B"/>
<path d="M133.802 45.0938H127.074V47.2252H133.802V45.0938Z" fill="#54A4CC"/>
<path d="M130.438 26.3044H126.035V16.918H127.659L128.237 21.6119L128.834 16.918H130.438V26.3044Z" fill="#E3EAF3"/>
<path d="M127.175 22.7256C127.464 22.7256 127.698 22.4906 127.698 22.2007C127.698 21.9108 127.464 21.6758 127.175 21.6758C126.886 21.6758 126.652 21.9108 126.652 22.2007C126.652 22.4906 126.886 22.7256 127.175 22.7256Z" fill="#ABBCCA"/>
<path d="M127.175 24.335C127.464 24.335 127.698 24.1 127.698 23.8101C127.698 23.5202 127.464 23.2852 127.175 23.2852C126.886 23.2852 126.652 23.5202 126.652 23.8101C126.652 24.1 126.886 24.335 127.175 24.335Z" fill="#ABBCCA"/>
<path d="M127.175 25.9834C127.464 25.9834 127.698 25.7484 127.698 25.4585C127.698 25.1686 127.464 24.9336 127.175 24.9336C126.886 24.9336 126.652 25.1686 126.652 25.4585C126.652 25.7484 126.886 25.9834 127.175 25.9834Z" fill="#ABBCCA"/>
<path d="M129.337 22.7256C129.626 22.7256 129.86 22.4906 129.86 22.2007C129.86 21.9108 129.626 21.6758 129.337 21.6758C129.048 21.6758 128.814 21.9108 128.814 22.2007C128.814 22.4906 129.048 22.7256 129.337 22.7256Z" fill="#ABBCCA"/>
<path d="M129.337 24.335C129.626 24.335 129.86 24.1 129.86 23.8101C129.86 23.5202 129.626 23.2852 129.337 23.2852C129.048 23.2852 128.814 23.5202 128.814 23.8101C128.814 24.1 129.048 24.335 129.337 24.335Z" fill="#ABBCCA"/>
<path d="M129.337 25.9834C129.626 25.9834 129.86 25.7484 129.86 25.4585C129.86 25.1686 129.626 24.9336 129.337 24.9336C129.048 24.9336 128.814 25.1686 128.814 25.4585C128.814 25.7484 129.048 25.9834 129.337 25.9834Z" fill="#ABBCCA"/>
<path d="M105.294 38.4242H100.891V29.0391H102.514L103.092 33.7316L103.689 29.0391H105.294V38.4242Z" fill="#E3EAF3"/>
<path d="M102.029 34.8467C102.317 34.8467 102.551 34.6117 102.551 34.3218C102.551 34.0319 102.317 33.7969 102.029 33.7969C101.74 33.7969 101.506 34.0319 101.506 34.3218C101.506 34.6117 101.74 34.8467 102.029 34.8467Z" fill="#ABBCCA"/>
<path d="M102.029 36.4541C102.317 36.4541 102.551 36.2191 102.551 35.9292C102.551 35.6393 102.317 35.4043 102.029 35.4043C101.74 35.4043 101.506 35.6393 101.506 35.9292C101.506 36.2191 101.74 36.4541 102.029 36.4541Z" fill="#ABBCCA"/>
<path d="M102.029 38.1045C102.317 38.1045 102.551 37.8695 102.551 37.5796C102.551 37.2897 102.317 37.0547 102.029 37.0547C101.74 37.0547 101.506 37.2897 101.506 37.5796C101.506 37.8695 101.74 38.1045 102.029 38.1045Z" fill="#ABBCCA"/>
<path d="M104.193 34.8467C104.481 34.8467 104.715 34.6117 104.715 34.3218C104.715 34.0319 104.481 33.7969 104.193 33.7969C103.904 33.7969 103.67 34.0319 103.67 34.3218C103.67 34.6117 103.904 34.8467 104.193 34.8467Z" fill="#ABBCCA"/>
<path d="M104.193 36.4541C104.481 36.4541 104.715 36.2191 104.715 35.9292C104.715 35.6393 104.481 35.4043 104.193 35.4043C103.904 35.4043 103.67 35.6393 103.67 35.9292C103.67 36.2191 103.904 36.4541 104.193 36.4541Z" fill="#ABBCCA"/>
<path d="M104.193 38.1045C104.481 38.1045 104.715 37.8695 104.715 37.5796C104.715 37.2897 104.481 37.0547 104.193 37.0547C103.904 37.0547 103.67 37.2897 103.67 37.5796C103.67 37.8695 103.904 38.1045 104.193 38.1045Z" fill="#ABBCCA"/>
<path d="M120.198 50.2621H115.795V40.877H117.418L117.996 45.5695L118.593 40.877H120.198V50.2621Z" fill="#E3EAF3"/>
<path d="M116.933 46.6866C117.222 46.6866 117.456 46.4515 117.456 46.1616C117.456 45.8717 117.222 45.6367 116.933 45.6367C116.644 45.6367 116.41 45.8717 116.41 46.1616C116.41 46.4515 116.644 46.6866 116.933 46.6866Z" fill="#ABBCCA"/>
<path d="M116.933 48.294C117.222 48.294 117.456 48.059 117.456 47.7691C117.456 47.4792 117.222 47.2441 116.933 47.2441C116.644 47.2441 116.41 47.4792 116.41 47.7691C116.41 48.059 116.644 48.294 116.933 48.294Z" fill="#ABBCCA"/>
<path d="M116.933 49.9424C117.222 49.9424 117.456 49.7074 117.456 49.4175C117.456 49.1276 117.222 48.8926 116.933 48.8926C116.644 48.8926 116.41 49.1276 116.41 49.4175C116.41 49.7074 116.644 49.9424 116.933 49.9424Z" fill="#ABBCCA"/>
<path d="M119.097 46.6866C119.386 46.6866 119.62 46.4515 119.62 46.1616C119.62 45.8717 119.386 45.6367 119.097 45.6367C118.808 45.6367 118.574 45.8717 118.574 46.1616C118.574 46.4515 118.808 46.6866 119.097 46.6866Z" fill="#ABBCCA"/>
<path d="M119.097 48.294C119.386 48.294 119.62 48.059 119.62 47.7691C119.62 47.4792 119.386 47.2441 119.097 47.2441C118.808 47.2441 118.574 47.4792 118.574 47.7691C118.574 48.059 118.808 48.294 119.097 48.294Z" fill="#ABBCCA"/>
<path d="M119.097 49.9424C119.386 49.9424 119.62 49.7074 119.62 49.4175C119.62 49.1276 119.386 48.8926 119.097 48.8926C118.808 48.8926 118.574 49.1276 118.574 49.4175C118.574 49.7074 118.808 49.9424 119.097 49.9424Z" fill="#ABBCCA"/>
<path d="M125.299 41.6641H120.896V50.2625H125.299V41.6641Z" fill="#BED5E6"/>
<path d="M122.032 46.6866C122.321 46.6866 122.555 46.4515 122.555 46.1616C122.555 45.8717 122.321 45.6367 122.032 45.6367C121.744 45.6367 121.51 45.8717 121.51 46.1616C121.51 46.4515 121.744 46.6866 122.032 46.6866Z" fill="#EF3E3B"/>
<path d="M122.032 48.294C122.321 48.294 122.555 48.059 122.555 47.7691C122.555 47.4792 122.321 47.2441 122.032 47.2441C121.744 47.2441 121.51 47.4792 121.51 47.7691C121.51 48.059 121.744 48.294 122.032 48.294Z" fill="#EF3E3B"/>
<path d="M122.032 49.9424C122.321 49.9424 122.555 49.7074 122.555 49.4175C122.555 49.1276 122.321 48.8926 122.032 48.8926C121.744 48.8926 121.51 49.1276 121.51 49.4175C121.51 49.7074 121.744 49.9424 122.032 49.9424Z" fill="#EF3E3B"/>
<path d="M124.197 46.6866C124.485 46.6866 124.719 46.4515 124.719 46.1616C124.719 45.8717 124.485 45.6367 124.197 45.6367C123.908 45.6367 123.674 45.8717 123.674 46.1616C123.674 46.4515 123.908 46.6866 124.197 46.6866Z" fill="#EF3E3B"/>
<path d="M124.197 48.294C124.485 48.294 124.719 48.059 124.719 47.7691C124.719 47.4792 124.485 47.2441 124.197 47.2441C123.908 47.2441 123.674 47.4792 123.674 47.7691C123.674 48.059 123.908 48.294 124.197 48.294Z" fill="#EF3E3B"/>
<path d="M124.197 49.9424C124.485 49.9424 124.719 49.7074 124.719 49.4175C124.719 49.1276 124.485 48.8926 124.197 48.8926C123.908 48.8926 123.674 49.1276 123.674 49.4175C123.674 49.7074 123.908 49.9424 124.197 49.9424Z" fill="#EF3E3B"/>
<path d="M122.015 43.376C122.304 43.376 122.538 43.141 122.538 42.8511C122.538 42.5612 122.304 42.3262 122.015 42.3262C121.726 42.3262 121.492 42.5612 121.492 42.8511C121.492 43.141 121.726 43.376 122.015 43.376Z" fill="#EF3E3B"/>
<path d="M122.015 45.0245C122.304 45.0245 122.538 44.7894 122.538 44.4995C122.538 44.2096 122.304 43.9746 122.015 43.9746C121.726 43.9746 121.492 44.2096 121.492 44.4995C121.492 44.7894 121.726 45.0245 122.015 45.0245Z" fill="#EF3E3B"/>
<path d="M124.179 43.376C124.468 43.376 124.702 43.141 124.702 42.8511C124.702 42.5612 124.468 42.3262 124.179 42.3262C123.89 42.3262 123.656 42.5612 123.656 42.8511C123.656 43.141 123.89 43.376 124.179 43.376Z" fill="#EF3E3B"/>
<path d="M124.179 45.0245C124.468 45.0245 124.702 44.7894 124.702 44.4995C124.702 44.2096 124.468 43.9746 124.179 43.9746C123.89 43.9746 123.656 44.2096 123.656 44.4995C123.656 44.7894 123.89 45.0245 124.179 45.0245Z" fill="#EF3E3B"/>
<path d="M93.6633 26.3044H89.2617V16.918H90.8839L91.4619 21.6119L92.0596 16.918H93.6633V26.3044Z" fill="#E3EAF3"/>
<path d="M90.3997 22.7256C90.6884 22.7256 90.9224 22.4906 90.9224 22.2007C90.9224 21.9108 90.6884 21.6758 90.3997 21.6758C90.111 21.6758 89.877 21.9108 89.877 22.2007C89.877 22.4906 90.111 22.7256 90.3997 22.7256Z" fill="#54A4CC"/>
<path d="M90.3997 24.335C90.6884 24.335 90.9224 24.1 90.9224 23.8101C90.9224 23.5202 90.6884 23.2852 90.3997 23.2852C90.111 23.2852 89.877 23.5202 89.877 23.8101C89.877 24.1 90.111 24.335 90.3997 24.335Z" fill="#54A4CC"/>
<path d="M90.3997 25.9834C90.6884 25.9834 90.9224 25.7484 90.9224 25.4585C90.9224 25.1686 90.6884 24.9336 90.3997 24.9336C90.111 24.9336 89.877 25.1686 89.877 25.4585C89.877 25.7484 90.111 25.9834 90.3997 25.9834Z" fill="#54A4CC"/>
<path d="M92.5618 22.7256C92.8505 22.7256 93.0845 22.4906 93.0845 22.2007C93.0845 21.9108 92.8505 21.6758 92.5618 21.6758C92.2731 21.6758 92.0391 21.9108 92.0391 22.2007C92.0391 22.4906 92.2731 22.7256 92.5618 22.7256Z" fill="#54A4CC"/>
<path d="M92.5618 24.335C92.8505 24.335 93.0845 24.1 93.0845 23.8101C93.0845 23.5202 92.8505 23.2852 92.5618 23.2852C92.2731 23.2852 92.0391 23.5202 92.0391 23.8101C92.0391 24.1 92.2731 24.335 92.5618 24.335Z" fill="#54A4CC"/>
<path d="M92.5618 25.9834C92.8505 25.9834 93.0845 25.7484 93.0845 25.4585C93.0845 25.1686 92.8505 24.9336 92.5618 24.9336C92.2731 24.9336 92.0391 25.1686 92.0391 25.4585C92.0391 25.7484 92.2731 25.9834 92.5618 25.9834Z" fill="#54A4CC"/>
<path d="M98.7643 17.7051H94.3613V26.3035H98.7643V17.7051Z" fill="#E3EAF3"/>
<path d="M95.4993 22.7256C95.788 22.7256 96.022 22.4906 96.022 22.2007C96.022 21.9108 95.788 21.6758 95.4993 21.6758C95.2106 21.6758 94.9766 21.9108 94.9766 22.2007C94.9766 22.4906 95.2106 22.7256 95.4993 22.7256Z" fill="#ABBCCA"/>
<path d="M95.4993 24.335C95.788 24.335 96.022 24.1 96.022 23.8101C96.022 23.5202 95.788 23.2852 95.4993 23.2852C95.2106 23.2852 94.9766 23.5202 94.9766 23.8101C94.9766 24.1 95.2106 24.335 95.4993 24.335Z" fill="#ABBCCA"/>
<path d="M95.4993 25.9834C95.788 25.9834 96.022 25.7484 96.022 25.4585C96.022 25.1686 95.788 24.9336 95.4993 24.9336C95.2106 24.9336 94.9766 25.1686 94.9766 25.4585C94.9766 25.7484 95.2106 25.9834 95.4993 25.9834Z" fill="#ABBCCA"/>
<path d="M97.6633 22.7256C97.952 22.7256 98.1861 22.4906 98.1861 22.2007C98.1861 21.9108 97.952 21.6758 97.6633 21.6758C97.3746 21.6758 97.1406 21.9108 97.1406 22.2007C97.1406 22.4906 97.3746 22.7256 97.6633 22.7256Z" fill="#ABBCCA"/>
<path d="M97.6633 24.335C97.952 24.335 98.1861 24.1 98.1861 23.8101C98.1861 23.5202 97.952 23.2852 97.6633 23.2852C97.3746 23.2852 97.1406 23.5202 97.1406 23.8101C97.1406 24.1 97.3746 24.335 97.6633 24.335Z" fill="#ABBCCA"/>
<path d="M97.6633 25.9834C97.952 25.9834 98.1861 25.7484 98.1861 25.4585C98.1861 25.1686 97.952 24.9336 97.6633 24.9336C97.3746 24.9336 97.1406 25.1686 97.1406 25.4585C97.1406 25.7484 97.3746 25.9834 97.6633 25.9834Z" fill="#ABBCCA"/>
<path d="M95.4797 19.417C95.7684 19.417 96.0025 19.182 96.0025 18.8921C96.0025 18.6022 95.7684 18.3672 95.4797 18.3672C95.1911 18.3672 94.957 18.6022 94.957 18.8921C94.957 19.182 95.1911 19.417 95.4797 19.417Z" fill="#ABBCCA"/>
<path d="M95.4797 21.0655C95.7684 21.0655 96.0025 20.8305 96.0025 20.5405C96.0025 20.2506 95.7684 20.0156 95.4797 20.0156C95.1911 20.0156 94.957 20.2506 94.957 20.5405C94.957 20.8305 95.1911 21.0655 95.4797 21.0655Z" fill="#ABBCCA"/>
<path d="M97.6438 19.417C97.9325 19.417 98.1665 19.182 98.1665 18.8921C98.1665 18.6022 97.9325 18.3672 97.6438 18.3672C97.3551 18.3672 97.1211 18.6022 97.1211 18.8921C97.1211 19.182 97.3551 19.417 97.6438 19.417Z" fill="#ABBCCA"/>
<path d="M97.6438 21.0655C97.9325 21.0655 98.1665 20.8305 98.1665 20.5405C98.1665 20.2506 97.9325 20.0156 97.6438 20.0156C97.3551 20.0156 97.1211 20.2506 97.1211 20.5405C97.1211 20.8305 97.3551 21.0655 97.6438 21.0655Z" fill="#ABBCCA"/>
<path d="M116.635 38.4237L112.661 37.9649L108.688 38.4237V32.2793L112.661 32.7381L116.635 32.2793V38.4237Z" fill="#54A4CC"/>
<path d="M108.687 32.2793H107.195V38.4237H108.687V32.2793Z" fill="#EF3E3B"/>
<path d="M118.127 32.2793H116.635V38.4237H118.127V32.2793Z" fill="#EF3E3B"/>
<path d="M114.788 34.1074H110.535V36.5879H114.788V34.1074Z" fill="#E3EAF3"/>
<path d="M110.293 26.3045L106.319 25.8457L102.346 26.3045V20.1602L106.319 20.619L110.293 20.1602V26.3045Z" fill="#EF3E3B"/>
<path d="M102.345 20.1602H100.854V26.3045H102.345V20.1602Z" fill="#54A4CC"/>
<path d="M111.785 20.1602H110.293V26.3045H111.785V20.1602Z" fill="#54A4CC"/>
<path d="M108.444 21.9863H104.191V24.4668H108.444V21.9863Z" fill="#E3EAF3"/>
<path d="M86.6193 26.3045L82.6456 25.8457L78.6719 26.3045V20.1602L82.6456 20.619L86.6193 20.1602V26.3045Z" fill="#E3EAF3"/>
<path d="M78.6734 20.1602H77.1816V26.3045H78.6734V20.1602Z" fill="#EF3E3B"/>
<path d="M88.1129 20.1602H86.6211V26.3045H88.1129V20.1602Z" fill="#EF3E3B"/>
<path d="M84.7724 21.9863H80.5195V24.4668H84.7724V21.9863Z" fill="#54A4CC"/>
<path d="M102.295 50.2635L98.3214 49.8047L94.3477 50.2635V44.1191L98.3214 44.578L102.295 44.1191V50.2635Z" fill="#EF3E3B"/>
<path d="M94.3473 44.1191H92.8555V50.2635H94.3473V44.1191Z" fill="#E3EAF3"/>
<path d="M103.787 44.1191H102.295V50.2635H103.787V44.1191Z" fill="#E3EAF3"/>
<path d="M100.448 45.9453H96.1953V48.4258H100.448V45.9453Z" fill="#54A4CC"/>
<path d="M143.833 13.2656H72.4238V15.401H143.833V13.2656Z" fill="#A04833"/>
<path d="M141.808 38.2734H74.4473V39.3418H141.808V38.2734Z" fill="#E3EAF3"/>
<path d="M141.808 26.3047H74.4473V27.373H141.808V26.3047Z" fill="#E3EAF3"/>
<path d="M74.1035 14.332V51.8554H141.937V14.332H74.1035ZM140.14 50.1034H75.8942V14.9574H140.14V50.1034Z" fill="#A04833"/>
<path d="M99.9998 40.5632C99.9998 40.5632 99.6707 44.5682 98.0907 46.3056C96.5107 48.043 98.0617 40.4297 98.0617 40.4297L99.9998 40.5632Z" fill="black"/>
<path d="M94.9324 48.2517C95.0153 47.9582 94.669 47.2455 94.4584 46.8343C95.8883 47.0538 97.5894 46.041 98.4755 44.248C98.5288 44.2769 98.586 44.2979 98.6454 44.3102C98.6454 44.3102 98.7849 48.0402 99.5894 48.0865C100.531 48.897 103.607 51.6419 102.98 52.9165C102.453 53.9836 99.6144 53.4335 95.3813 52.6111C94.9694 52.5474 94.5853 52.3635 94.2767 52.0822C93.3879 51.232 93.6315 49.7022 93.7566 49.3571C93.9172 48.9076 94.8139 48.6735 94.9324 48.2517Z" fill="#EA9D7D"/>
<path d="M98.0191 48.6765C98.5813 47.4547 97.4016 47.1956 97.4016 47.1956L97.4108 47.1784C96.6313 47.7073 95.7597 47.936 94.9789 47.784L94.8696 47.7589C94.7583 47.4367 94.6204 47.1245 94.4575 46.8254C95.8874 47.0449 97.5069 45.9368 98.393 44.1426C98.415 44.1904 98.4506 44.2305 98.4954 44.2578C98.5402 44.2852 98.5921 44.2984 98.6445 44.296C98.6445 44.296 98.6708 44.9901 98.7643 45.7821C98.8867 46.8307 99.129 48.055 99.5885 48.0815C100.864 49.1683 103.945 51.9371 103.327 53.1654C102.708 54.3938 98.4799 53.9588 95.3805 52.6061C94.9078 52.3999 94.522 52.1989 94.2402 52.0429C96.1771 52.261 97.5148 49.7726 98.0191 48.6765Z" fill="#D18165"/>
<path d="M96.6704 37.2114C98.3017 37.5301 99.3037 39.6179 99.0733 42.0415H99.0865C99.5315 42.1288 99.7948 42.7026 99.6737 43.3333C99.5526 43.964 99.0917 44.3911 98.6454 44.3091C98.5947 44.3067 98.5451 44.2937 98.4998 44.271C98.4544 44.2482 98.4143 44.2161 98.382 44.1769C97.4762 46.0121 95.8106 47.1003 94.3623 46.8213C92.5624 46.4683 91.9264 44.2403 92.4557 41.5192C92.985 38.7981 94.8718 36.8584 96.6704 37.2114Z" fill="#EA9D7D"/>
<path d="M99.1004 42.5996C99.2104 42.6746 99.2935 42.783 99.3374 42.909C99.3864 43.039 99.3969 43.1804 99.3677 43.3163C99.34 43.451 99.2757 43.5755 99.182 43.6759C99.1369 43.7239 99.0861 43.7661 99.0306 43.8015C98.9746 43.8353 98.9144 43.8615 98.8516 43.8795C98.8769 43.8224 98.9054 43.7668 98.9371 43.7129C98.9608 43.6574 98.9924 43.6098 99.0109 43.5582C99.0559 43.4639 99.0895 43.3644 99.1109 43.262C99.148 43.0425 99.1444 42.8179 99.1004 42.5996Z" fill="#D18165"/>
<path d="M93.2656 45.0269C94.5822 45.0877 94.7297 44.0723 94.7297 44.0723C94.2017 44.2399 93.6415 44.2784 93.0957 44.1847C93.0957 44.1847 93.4828 44.6263 93.2656 45.0269Z" fill="#BE3E5F"/>
<path d="M93.6351 41.3203C93.6845 41.5936 93.6898 41.8731 93.6509 42.148C93.6329 42.2937 93.592 42.4356 93.5298 42.5685C93.4929 42.6439 93.4573 42.6901 93.4231 42.7496C93.3889 42.8091 93.356 42.8607 93.327 42.9162C93.2683 43.0112 93.2323 43.1184 93.2217 43.2296C93.2204 43.2491 93.2231 43.2687 93.2297 43.2871C93.2362 43.3056 93.2465 43.3224 93.2598 43.3367C93.2951 43.3729 93.3371 43.4017 93.3836 43.4213C93.6336 43.4969 93.8918 43.5413 94.1525 43.5535C93.8841 43.6454 93.5965 43.6659 93.3178 43.613C93.2356 43.5931 93.1597 43.5531 93.0966 43.4967C93.0257 43.4302 92.9816 43.3398 92.9728 43.2428C92.9698 43.0826 93.0122 42.9248 93.0953 42.788C93.1295 42.7245 93.1664 42.6637 93.2045 42.6055C93.2427 42.5473 93.2862 42.4878 93.3125 42.4442C93.3703 42.335 93.4146 42.2191 93.4442 42.0991C93.5245 41.8532 93.5758 41.5887 93.6351 41.3203Z" fill="#D18165"/>
<path d="M94.457 40.7774C94.7193 40.8204 94.9783 40.8809 95.2325 40.9585C95.3549 40.9981 95.4742 41.0467 95.5894 41.104C95.7079 41.1582 95.8145 41.2362 95.9396 41.3049C95.8798 41.1742 95.7895 41.0599 95.6763 40.9717C95.5637 40.8803 95.4351 40.8108 95.2971 40.7668C95.161 40.7221 95.0188 40.6994 94.8757 40.6994C94.7324 40.697 94.59 40.7235 94.457 40.7774Z" fill="black"/>
<path d="M93.1102 40.5195C92.9943 40.472 92.8717 40.443 92.7468 40.4336C92.7231 40.4997 92.7021 40.5658 92.6797 40.6319C92.8082 40.6352 92.9363 40.6485 93.0628 40.6716C93.1945 40.6901 93.3156 40.7324 93.4578 40.7655C93.3626 40.6574 93.2436 40.5732 93.1102 40.5195Z" fill="black"/>
<path d="M92.8025 42.3193C92.8549 42.3294 92.9091 42.3182 92.9533 42.2882C92.9975 42.2582 93.028 42.2118 93.0382 42.1593L93.1514 41.5775C93.1578 41.551 93.1587 41.5235 93.1541 41.4966C93.1496 41.4697 93.1397 41.444 93.125 41.4211C93.1104 41.3982 93.0912 41.3784 93.0688 41.3631C93.0463 41.3478 93.021 41.3372 92.9944 41.3319C92.9678 41.3267 92.9404 41.3269 92.9138 41.3325C92.8872 41.3382 92.8621 41.3491 92.8399 41.3648C92.8176 41.3804 92.7988 41.4004 92.7845 41.4236C92.7701 41.4467 92.7606 41.4726 92.7564 41.4995L92.6445 42.0813C92.6341 42.1339 92.6448 42.1885 92.6745 42.2331C92.7041 42.2778 92.7502 42.3087 92.8025 42.3193Z" fill="black"/>
<path d="M94.8308 42.4443C94.8833 42.4544 94.9377 42.4433 94.9821 42.4133C95.0265 42.3833 95.0573 42.337 95.0678 42.2843L95.1811 41.7025C95.1877 41.6759 95.1888 41.6481 95.1844 41.621C95.1801 41.5939 95.1702 41.5679 95.1555 41.5447C95.1408 41.5216 95.1215 41.5016 95.0989 41.4862C95.0763 41.4707 95.0507 41.4601 95.0239 41.4548C94.997 41.4496 94.9693 41.45 94.9426 41.4558C94.9159 41.4617 94.8906 41.473 94.8683 41.489C94.8461 41.505 94.8273 41.5254 94.8132 41.5489C94.799 41.5724 94.7898 41.5986 94.7861 41.6258L94.6676 42.2063C94.6626 42.2327 94.6629 42.2598 94.6685 42.2861C94.674 42.3124 94.6847 42.3373 94.6999 42.3594C94.715 42.3815 94.7344 42.4004 94.7569 42.415C94.7794 42.4296 94.8045 42.4395 94.8308 42.4443Z" fill="black"/>
<path d="M100.002 40.055C100.002 40.055 99.2593 35.4761 96.9407 37.0721C96.9407 37.0721 94.6787 36.2549 93.6003 37.95C92.522 39.6451 92.0098 39.2114 92.0098 39.2114C92.0098 39.2114 93.8781 40.5932 95.1434 39.8963L96.734 40.3697C96.9598 40.4367 97.1589 40.5734 97.3031 40.7604C97.4472 40.9474 97.5291 41.1753 97.5371 41.4116L97.6017 43.2865C97.6461 43.379 97.7164 43.4565 97.8039 43.5096C97.8915 43.5627 97.9925 43.589 98.0947 43.5853C98.1969 43.5817 98.2959 43.5482 98.3795 43.4891C98.463 43.4299 98.5277 43.3476 98.5654 43.2521C98.6629 43.0221 98.7643 42.7669 98.8577 42.5064C99.1856 41.5941 100.224 40.9052 100.002 40.055Z" fill="black"/>
<path d="M80.8662 62.6244L79.5074 62.6799C79.5074 62.6799 79.2112 62.4432 78.8096 62.1365C78.0525 61.556 76.9175 60.719 76.6845 60.7336C76.3277 60.7547 75.7075 61.0152 77.2506 62.2092L77.2388 62.2198C77.1874 62.2581 76.9491 62.4154 76.3395 62.4525C75.6377 62.4961 73.2743 62.6574 72.8898 62.8029C72.6818 62.8809 72.2144 63.5103 75.718 63.386C75.7458 63.3842 75.7735 63.3886 75.7994 63.3988C75.8252 63.4091 75.8485 63.425 75.8675 63.4453C75.8865 63.4656 75.9007 63.49 75.9093 63.5165C75.9178 63.5431 75.9204 63.5712 75.9169 63.5988C75.905 63.6636 75.8576 63.7218 75.7312 63.7311C75.4139 63.7509 72.6739 63.7972 72.7213 64.2943C72.7555 64.6566 73.4731 64.568 75.8813 64.4609C75.8813 64.4609 76.2631 64.5601 75.959 64.7571C75.8537 64.8245 73.1387 65.0797 73.0057 65.2952C72.8727 65.5108 72.5225 65.8651 76.5963 65.4182C76.5963 65.4182 76.6674 65.4592 76.3132 65.6668C75.9366 65.8876 74.8227 66.1851 74.5383 66.6016C74.2539 67.0181 75.0795 66.6875 77.1716 65.9815L80.1052 65.6086C82.0446 65.8823 89.3021 66.5038 91.1046 64.6236C92.7939 62.8624 93.7024 56.558 93.7024 56.558L89.572 56.4258L87.8419 61.125C87.7851 61.279 87.688 61.4149 87.5608 61.5182C87.4336 61.6215 87.281 61.6885 87.1191 61.712L80.6253 62.6534" fill="#EA9D7D"/>
<path d="M80.793 62.625V65.559" stroke="#2F170B" stroke-width="6" stroke-linecap="round" stroke-linejoin="round"/>
<path d="M88.8516 56.7231L90.4316 51.7582C90.7374 50.7669 91.3339 49.8913 92.1432 49.2459C92.3498 49.081 92.5731 48.9383 92.8095 48.8202C92.83 48.8101 92.8527 48.8055 92.8755 48.8069C92.8983 48.8083 92.9204 48.8156 92.9395 48.8281C92.9586 48.8407 92.9742 48.858 92.9846 48.8784C92.995 48.8988 93 48.9216 92.9991 48.9445L92.7384 56.7231H88.8516Z" fill="#EF3E3B"/>
<path d="M88.8516 56.7231L90.4316 51.7582C90.7374 50.7669 91.3339 49.8913 92.1432 49.2459C92.3498 49.081 92.5731 48.9383 92.8095 48.8202C92.83 48.8101 92.8527 48.8055 92.8755 48.8069C92.8983 48.8083 92.9204 48.8156 92.9395 48.8281C92.9586 48.8407 92.9742 48.858 92.9846 48.8784C92.995 48.8988 93 48.9216 92.9991 48.9445L92.7384 56.7231H88.8516Z" fill="#E3EAF3"/>
<path d="M92.9355 50.5982L92.738 56.724H90.6616C90.6142 55.2365 90.7248 53.593 91.5832 51.7644C92.1731 50.5188 92.5141 50.4567 92.6576 50.4633C92.7636 50.4725 92.8625 50.5205 92.9355 50.5982Z" fill="#ABBCCA"/>
<path d="M111.957 74.4851C111.897 74.2473 111.865 74.0032 111.861 73.7578C111.831 71.6991 111.635 63.8412 110.455 60.2712C110.08 59.1314 106.629 53.3242 106.629 53.3242L101.699 54.3714L106.044 61.6159C106.237 61.9371 106.378 62.2863 106.464 62.6512L109.112 73.976C109.148 74.1315 109.15 74.2932 109.116 74.4492C109.082 74.6052 109.013 74.7517 108.916 74.8778C108.359 75.5957 107.256 77.0541 107.273 77.3212C107.298 77.6796 107.561 78.3023 108.739 76.7434C108.739 76.7434 108.941 76.9523 108.987 77.6571C109.033 78.3618 109.136 81.075 109.357 81.12C109.578 81.1649 110.08 81.8102 109.914 78.1238C109.914 78.1238 110.24 77.9413 110.261 78.256C110.283 78.5707 110.464 81.6013 110.841 81.276C111.217 80.9507 111.104 80.5184 110.988 78.1027C110.988 78.1027 111.235 77.9057 111.282 78.022C111.329 78.1384 111.599 80.9996 111.838 80.9838C112.076 80.9679 112.406 81.4651 111.935 77.3794C111.935 77.3794 112.067 77.3106 112.217 77.7205C112.367 78.1304 112.941 79.93 113.128 79.4394C113.315 78.9489 113.211 78.8933 112.495 76.8029L111.961 74.4798L111.957 74.4851Z" fill="#EA9D7D"/>
<path d="M101.699 54.3683L102.862 54.1211C103.731 55.2291 104.811 56.033 106.217 58.101C107.313 59.7128 108.023 61.3523 108.338 62.0452C109.202 63.9439 109.026 64.9131 109.602 69.5977C109.948 72.4114 110.121 73.8182 110.302 74.5534C110.302 74.5534 111.603 79.8238 110.969 81.1288C110.939 81.1894 110.893 81.2406 110.837 81.2769C110.46 81.6022 110.279 78.5756 110.258 78.2569C110.236 77.9383 109.91 78.1247 109.91 78.1247C110.076 81.8111 109.576 81.1658 109.353 81.1209C109.13 81.0759 109.03 78.3759 108.984 77.6633C108.938 76.9585 108.737 76.7496 108.737 76.7496C107.552 78.3085 107.288 77.6857 107.27 77.3274C107.253 77.063 108.356 75.6085 108.913 74.8839C109.011 74.7578 109.079 74.6114 109.113 74.4554C109.147 74.2994 109.146 74.1377 109.109 73.9822L106.462 62.6574C106.376 62.2925 106.234 61.9433 106.042 61.6221L101.699 54.3683Z" fill="#D18165"/>
<path d="M89.1197 55.8848H92.6102V56.4137H88.9512L89.1197 55.8848Z" fill="#25BEEF"/>
<path d="M90.6563 55.8848H92.6102V56.4137H90.6563C90.6536 56.2391 90.6536 56.0619 90.6563 55.8848Z" fill="#1A87C4"/>
<path d="M89.5045 54.668H92.546V55.1969H89.3359L89.5045 54.668Z" fill="#25BEEF"/>
<path d="M90.7421 54.668H92.5473V55.1969H90.6895C90.7026 55.0223 90.7197 54.8465 90.7421 54.668Z" fill="#1A87C4"/>
<path d="M92.9576 65.7359H103.163C103.323 65.736 103.481 65.7014 103.626 65.6345C103.772 65.5676 103.901 65.47 104.005 65.3484C104.109 65.2267 104.186 65.0839 104.23 64.9296C104.275 64.7754 104.285 64.6134 104.261 64.4546L101.852 48.4928L99.3711 47.9414C98.485 49.8282 95.7556 49.9142 94.8839 48.0207L93.0011 48.74C92.6763 48.8191 92.3892 49.0098 92.1897 49.2791C91.9901 49.5483 91.8906 49.8791 91.9083 50.2143L91.928 50.8106C92.0834 55.6041 92.2396 60.3972 92.3967 65.1898C92.3941 65.2295 92.4046 65.4225 92.9576 65.7359Z" fill="#E3EAF3"/>
<path d="M108.509 56.4863C108.568 56.4466 108.618 56.3954 108.656 56.3357C108.695 56.276 108.721 56.2091 108.734 56.139C108.746 56.0689 108.744 55.9969 108.728 55.9276C108.712 55.8582 108.682 55.7928 108.64 55.7353L104.927 50.5575C104.927 50.5575 103.611 48.8545 101.853 48.4922L100.85 53.7467L104.405 59.1678C104.418 59.1878 104.434 59.205 104.454 59.2183C104.474 59.2316 104.496 59.2407 104.52 59.2452C104.543 59.2496 104.567 59.2493 104.59 59.2442C104.613 59.239 104.635 59.2293 104.655 59.2154L108.509 56.4863Z" fill="#E3EAF3"/>
<path d="M104.394 59.1624L100.869 53.7836L100.877 53.732C100.892 53.634 100.932 53.5416 100.993 53.4638C101.054 53.386 101.135 53.3255 101.226 53.2882C101.317 53.2509 101.417 53.2381 101.515 53.251C101.613 53.2639 101.705 53.302 101.784 53.3618C102.457 53.8761 103.317 54.7607 104.104 55.5712C104.926 56.4174 105.808 57.3258 106.217 58.1006L104.637 59.21C104.599 59.2358 104.552 59.2453 104.506 59.2364C104.46 59.2275 104.42 59.2009 104.394 59.1624Z" fill="#ABBCCA"/>
<path d="M108.279 55.2374L103.861 58.3691L104.165 58.8012L108.583 55.6694L108.279 55.2374Z" fill="#25BEEF"/>
<path d="M105.568 57.1621C105.683 57.3036 105.79 57.4437 105.889 57.5799L104.167 58.8017L104.018 58.5861L103.873 58.364L105.568 57.1621Z" fill="#1A87C4"/>
<path d="M107.56 54.2097L103.082 57.1543L103.371 57.5968L107.848 54.6521L107.56 54.2097Z" fill="#25BEEF"/>
<path d="M105.011 56.5248L103.37 57.6038L103.232 57.3922L103.082 57.1621L104.645 56.1348C104.769 56.2643 104.892 56.3952 105.011 56.5248Z" fill="#1A87C4"/>
<path d="M92.3926 65.1859C93.1668 64.9122 95.1786 64.903 98.2267 63.9378C101.088 63.0334 101.663 62.2982 101.924 61.772C102.536 60.5357 102.136 58.9662 101.971 58.321C101.676 57.1627 101.592 56.7197 101 55.2508C100.801 54.7576 100.736 53.5636 101 53.4658C101.306 53.352 102.174 54.6822 103.062 56.5293L104.257 64.4508C104.281 64.6095 104.27 64.7715 104.226 64.9258C104.182 65.08 104.105 65.2228 104.001 65.3445C103.897 65.4662 103.767 65.5638 103.622 65.6306C103.477 65.6975 103.319 65.7321 103.159 65.732H92.9574C92.8117 65.7318 92.6717 65.6747 92.5671 65.5728C92.4625 65.4709 92.4013 65.3322 92.3965 65.1859H92.3926Z" fill="#ABBCCA"/>
<path d="M77.209 62.2168C77.209 62.2168 77.7778 64.3562 79.7225 63.7651" stroke="#2F170B" stroke-width="2" stroke-miterlimit="10"/>
<path d="M85.2335 107.638C86.666 106.536 90.3158 105.391 91.2296 103.34C91.7233 103.963 94.4844 103.787 95.5324 103.737C95.5324 103.737 95.8761 105.449 95.7958 106.645C95.7154 107.842 95.6496 108.188 95.6496 108.188L93.7049 108.262L93.7457 107.763C93.7457 107.763 92.6147 107.712 91.9524 108.282C91.2901 108.852 89.4823 109.517 87.6245 109.254C85.7667 108.991 83.7996 108.741 85.2335 107.638Z" fill="#7C2F13"/>
<path d="M87.6279 109.251C89.4844 109.516 91.2922 108.855 91.9545 108.281C92.6168 107.707 93.7452 107.763 93.7452 107.763L93.6964 108.277L95.6412 108.203C95.6412 108.203 95.7017 107.863 95.7873 106.66C95.8151 106.023 95.7829 105.384 95.6912 104.753C95.6148 104.174 95.5292 103.744 95.5292 103.744C94.4759 103.789 91.8097 103.949 91.2277 103.348C90.9472 103.687 90.4153 104.009 90.098 104.342C89.9979 104.449 89.89 104.555 89.782 104.657C89.674 104.758 89.595 104.819 89.5002 104.9C89.3778 105 89.2527 105.102 89.121 105.2C87.8044 106.186 86.144 106.945 85.2316 107.646C83.8004 108.741 85.7701 108.987 87.6279 109.251Z" fill="#25BEEF"/>
<path d="M95.5324 103.742C95.5324 103.742 95.876 105.454 95.7957 106.651C95.7746 106.933 95.7562 107.165 95.7391 107.358C95.0544 107.377 94.2539 107.323 94.5686 106.933C95.0952 106.286 95.1045 103.751 95.1045 103.751L95.5324 103.742Z" fill="#E3EAF3"/>
<path d="M84.9396 107.902C85.0296 107.806 85.1279 107.717 85.2332 107.638C85.8362 107.174 86.7658 106.684 87.7072 106.121C88.458 106.333 89.1261 106.771 89.6217 107.376C90.0549 107.923 90.0904 108.817 90.2076 108.963C89.727 109.469 84.8435 108.871 84.75 108.366C84.75 108.366 84.75 108.354 84.75 108.349C84.7594 108.182 84.8264 108.024 84.9396 107.902Z" fill="#E3EAF3"/>
<path d="M87.6272 109.251C86.1354 109.038 84.5738 108.838 84.7569 108.193C89.3296 109.81 91.3639 108.075 91.7589 107.532C92.1539 106.989 92.9873 107.015 92.9873 107.015C94.5055 107.147 95.3573 106.718 95.8011 106.371C95.8011 106.465 95.8011 106.559 95.7905 106.649C95.7036 107.852 95.6444 108.192 95.6444 108.192L93.6997 108.266L93.7457 107.762C93.7457 107.762 92.6147 107.712 91.9524 108.282C91.2902 108.852 89.485 109.514 87.6272 109.251Z" fill="#7C2F13"/>
<path d="M89.7852 104.649C89.8681 104.72 89.9563 104.789 90.0485 104.852C90.1674 104.942 90.2934 105.021 90.4251 105.09C90.5674 105.17 90.7204 105.229 90.8793 105.265C90.8376 105.097 90.7623 104.94 90.6581 104.802C90.562 104.671 90.446 104.555 90.3145 104.46C90.2481 104.412 90.1781 104.37 90.1051 104.334C90.0011 104.441 89.8931 104.547 89.7852 104.649Z" fill="#7C2F13"/>
<path d="M89.125 105.192C89.1856 105.238 89.2461 105.285 89.308 105.324C89.4283 105.412 89.5541 105.491 89.6846 105.562C89.827 105.642 89.9799 105.701 90.1388 105.737C90.0974 105.569 90.0221 105.412 89.9176 105.274C89.8215 105.143 89.7055 105.027 89.574 104.932C89.5517 104.915 89.5284 104.9 89.5042 104.887C89.3818 104.992 89.2567 105.094 89.125 105.192Z" fill="#7C2F13"/>
<path d="M93.4186 107.63C94.8511 106.527 98.3166 105.658 99.2304 103.611C99.7241 104.234 102.509 103.656 103.557 103.611C103.557 103.611 104.061 105.447 103.976 106.652C103.89 107.858 103.829 108.195 103.829 108.195L101.885 108.27L101.933 107.755C101.933 107.755 100.802 107.705 100.14 108.276C99.4779 108.847 97.6701 109.51 95.8123 109.247C93.9545 108.984 91.9848 108.726 93.4186 107.63Z" fill="#7C2F13"/>
<path d="M95.8123 109.235C97.6688 109.5 99.4766 108.839 100.139 108.265C100.801 107.691 101.932 107.744 101.932 107.744L101.883 108.258L103.828 108.184C103.828 108.184 103.889 107.845 103.974 106.641C104.018 106.041 103.886 105.327 103.811 104.749C103.755 104.362 103.67 103.98 103.556 103.605C102.502 103.649 99.9414 103.791 99.2304 103.605C98.874 103.783 98.5535 104.025 98.285 104.319C98.1849 104.428 98.077 104.532 97.969 104.635C97.8755 104.717 97.782 104.798 97.6872 104.877C97.5648 104.979 97.4397 105.08 97.308 105.178C95.9914 106.164 94.3311 106.923 93.4186 107.624C91.9848 108.726 93.9545 108.971 95.8123 109.235Z" fill="#25BEEF"/>
<path d="M103.557 103.605C103.557 103.605 104.061 105.441 103.975 106.647C103.954 106.928 103.936 107.161 103.919 107.355C103.234 107.374 102.434 107.318 102.748 106.93C103.275 106.282 103.284 103.747 103.284 103.747C103.45 103.738 103.437 103.611 103.557 103.605Z" fill="#E3EAF3"/>
<path d="M93.1251 107.894C93.2155 107.798 93.3137 107.71 93.4188 107.63C94.0218 107.166 94.9514 106.677 95.8928 106.113C96.6432 106.325 97.3113 106.762 97.8072 107.365C98.2404 107.913 98.2759 108.807 98.3931 108.952C97.9125 109.457 93.029 108.86 92.9355 108.354C92.9355 108.354 92.9355 108.344 92.9355 108.337C92.9461 108.172 93.0131 108.016 93.1251 107.894Z" fill="#E3EAF3"/>
<path d="M95.8108 109.237C94.319 109.025 92.7574 108.824 92.9405 108.179C97.5132 109.796 99.5475 108.061 99.9425 107.518C100.337 106.974 101.171 107.001 101.171 107.001C102.689 107.133 103.548 106.703 103.985 106.355C103.985 106.451 103.985 106.543 103.974 106.633C103.887 107.836 103.828 108.176 103.828 108.176L101.883 108.25L101.932 107.736C101.932 107.736 100.801 107.686 100.139 108.257C99.4764 108.828 97.6686 109.5 95.8108 109.237Z" fill="#7C2F13"/>
<path d="M97.9688 104.634C98.0517 104.704 98.1399 104.767 98.2321 104.837C98.3507 104.926 98.4767 105.006 98.6086 105.075C98.7512 105.154 98.9041 105.213 99.0629 105.251C99.0211 105.082 98.9459 104.925 98.8417 104.786C98.7452 104.655 98.6293 104.54 98.498 104.444C98.4317 104.397 98.3617 104.355 98.2887 104.318C98.1847 104.427 98.0767 104.531 97.9688 104.634Z" fill="#7C2F13"/>
<path d="M97.3086 105.177C97.3692 105.223 97.4297 105.269 97.4916 105.309C97.6116 105.397 97.7374 105.476 97.8682 105.547C98.0108 105.626 98.1636 105.685 98.3224 105.723C98.2812 105.554 98.2059 105.396 98.1012 105.259C98.0047 105.127 97.8888 105.012 97.7576 104.916C97.7365 104.9 97.7115 104.886 97.6878 104.871C97.564 104.985 97.4403 105.079 97.3086 105.177Z" fill="#7C2F13"/>
<path d="M104.439 74.3099C105.15 72.5053 105.415 70.5543 105.211 68.6244C105.076 67.3978 104.75 66.1999 104.247 65.0742C104.247 65.0742 95.0539 66.444 92.4837 65.1522C92.4837 65.1522 90.4271 83.4703 90.3626 85.0834C90.2981 86.6965 91.2303 103.479 91.2303 103.479C91.2303 103.479 93.7319 104.49 95.5265 103.802C95.5265 103.802 96.9406 90.9356 96.726 87.671L96.8432 85.447C96.9143 87.0601 99.2448 103.704 99.2448 103.704C99.2448 103.704 101.816 104.498 103.553 103.663C103.553 103.663 103.887 90.724 103.4 87.4832L103.353 81.2688L104.439 74.3099Z" fill="#EF3E3B"/>
<path d="M97.0462 79.4781C96.7039 75.5115 95.9929 71.7074 95.7612 71.7325C95.5834 71.7511 95.7612 73.7251 95.8257 78.2524C95.8731 81.9441 95.8007 84.4246 95.694 87.9337C95.4926 94.7829 95.22 95.9583 94.9264 96.905C94.1599 99.3333 92.9001 101.575 91.2266 103.49C92.0705 103.87 93.4359 104.308 94.9619 103.97C95.1517 103.928 95.339 103.875 95.5228 103.812C95.5228 103.812 96.9369 90.9458 96.7223 87.6812L97.1792 81.6836C97.1687 81.0754 97.1279 80.4143 97.0462 79.4781Z" fill="#C82833"/>
<path d="M105.21 68.6342C105.075 67.4075 104.75 66.2097 104.247 65.084C104.247 65.084 95.0536 66.4538 92.4835 65.1633C92.3834 65.9157 99.5474 66.0651 101.979 70.5699C102.584 71.6898 102.437 84.321 102.582 87.8262C102.868 94.6727 102.678 95.864 102.451 96.8305C101.86 99.3036 100.764 101.627 99.234 103.653V103.665C99.4104 103.73 99.6093 103.797 99.8265 103.854C100.518 104.001 101.708 104.172 102.784 103.928C102.851 103.911 102.915 103.895 102.985 103.875C103.159 103.823 103.33 103.761 103.497 103.69L103.565 103.656C103.565 103.641 103.549 103.259 103.572 102.578C103.64 99.3943 103.795 90.156 103.395 87.4877L103.347 81.2733L103.479 80.3874V80.3808V80.3702L104.424 74.3144C105.14 72.5126 105.409 70.5635 105.21 68.6342Z" fill="#C82833"/>
<path d="M97.8964 67.0543C99.9411 67.0543 102.636 66.8864 104.667 66.1566L104.578 65.908C101.206 67.1218 95.9345 66.7542 95.0642 66.6828L95.0971 65.6739L94.8338 65.666L94.793 66.9235L94.9154 66.9353C94.9431 66.938 96.1926 67.0543 97.8964 67.0543Z" fill="#7C2F13"/>
<path d="M94.9162 66.9366L94.9399 66.6722C94.0781 66.588 93.2238 66.439 92.3842 66.2266L92.3145 66.4818C93.1691 66.6988 94.0388 66.8508 94.9162 66.9366Z" fill="#7C2F13"/>
<path d="M95.6512 71.8046L95.8724 71.6605C94.9507 70.2391 95.3062 66.874 95.3102 66.8396L95.0468 66.8105C95.0324 66.9533 94.6795 70.3052 95.6512 71.8046Z" fill="#7C2F13"/>
<path d="M103.693 71.8606L103.758 71.6041C102.122 71.1876 100.11 68.4731 100.089 68.4453L99.877 68.6027C99.9625 68.7177 101.967 71.4203 103.693 71.8606Z" fill="#7C2F13"/>
<path d="M95.5809 66.5843C95.0727 66.5843 95.0713 65.791 95.5809 65.791C96.0904 65.791 96.0904 66.5843 95.5809 66.5843Z" fill="#7C2F13"/>
<path d="M101.021 103.746L101.285 103.734C101.285 103.621 100.775 92.4367 100.495 86.9098C100.121 79.6019 101.74 70.4865 101.756 70.3953L101.493 70.3477C101.476 70.4389 99.8509 79.5847 100.226 86.923C100.513 92.4499 101.016 103.633 101.021 103.746Z" fill="#7C2F13"/>
<path d="M138.236 88.0499C137.724 85.7426 136.938 83.5728 135.3 83.7593C133.662 83.9457 132.354 86.2001 132.304 88.7268C132.257 91.0897 134.114 92.8257 135.752 92.6406C137.39 92.4555 138.882 90.9535 138.236 88.0499Z" fill="#7BCE34"/>
<path d="M136.63 89.4729C134.991 89.6593 133.136 87.9219 133.182 85.5578C133.182 85.5049 133.182 85.4507 133.182 85.3965C132.612 86.4143 132.308 87.5598 132.296 88.7272C132.25 91.09 134.106 92.8261 135.744 92.6409C137.262 92.4677 138.653 91.1667 138.337 88.6663C137.873 89.1188 137.273 89.4027 136.63 89.4729Z" fill="#3C8F2D"/>
<path d="M142.69 94.7881C142.558 92.4279 141.241 91.747 139.597 91.9334C137.952 92.1198 136.651 94.3729 136.601 96.8997C136.554 99.2638 137.423 100.179 139.061 99.9924C140.699 99.8059 142.86 97.9773 142.69 94.7881Z" fill="#7BCE34"/>
<path d="M141.647 97.8661C140.009 98.0525 139.145 97.1362 139.187 94.7734C139.202 93.7856 139.419 92.8115 139.826 91.9121C139.751 91.9121 139.675 91.924 139.597 91.9333C137.959 92.1197 136.651 94.3728 136.601 96.8995C136.554 99.2637 137.423 100.179 139.061 99.9922C140.084 99.8759 141.312 99.1169 142.049 97.7881C141.917 97.8232 141.782 97.8493 141.647 97.8661Z" fill="#3C8F2D"/>
<path d="M132.645 92.0834C131.328 91.0257 129.831 90.9053 129.17 91.5955C128.509 92.2857 128.974 93.5392 130.133 94.9236C131.216 96.2193 132.559 96.9228 133.528 96.2458C134.308 95.6878 134.301 93.4228 132.645 92.0834Z" fill="#7BCE34"/>
<path d="M132.984 92.3975C133.002 93.0467 132.815 93.5875 132.485 93.8229C131.516 94.5078 130.172 93.8044 129.089 92.5086C129.014 92.4187 128.942 92.3301 128.873 92.2441C128.797 92.9502 129.268 93.9022 130.129 94.9256C131.213 96.2214 132.556 96.9248 133.525 96.2478C134.249 95.7295 134.293 93.7462 132.984 92.3975Z" fill="#3C8F2D"/>
<path d="M130.773 92.4414C131.132 92.6598 131.468 92.9131 131.777 93.1977C131.812 93.2355 131.845 93.2762 131.874 93.3194C131.906 93.3617 131.939 93.4027 131.97 93.4423C132.035 93.5256 132.102 93.6036 132.163 93.6896C132.282 93.8602 132.411 94.0241 132.523 94.2C132.989 94.8921 133.378 95.6334 133.683 96.4107C133.995 97.1856 134.218 97.9933 134.35 98.8185L134.401 99.1266C134.409 99.1781 134.419 99.2297 134.425 99.2813L134.438 99.4373C134.454 99.6449 134.475 99.8525 134.489 100.061C134.476 100.271 134.451 100.48 134.414 100.687C134.381 100.894 134.346 101.099 134.306 101.303C134.269 101.095 134.234 100.892 134.202 100.688C134.17 100.484 134.151 100.284 134.095 100.084C134.076 99.8829 134.064 99.6872 134.045 99.4809L134.032 99.3302C134.032 99.2799 134.016 99.231 134.01 99.1808L133.96 98.8833C133.833 98.0862 133.617 97.306 133.316 96.5575C133.022 95.8063 132.646 95.0901 132.195 94.4221C132.087 94.2515 131.962 94.0929 131.847 93.9289C131.731 93.765 131.598 93.6129 131.471 93.4569C131.255 93.1118 131.025 92.7746 130.773 92.4414Z" fill="#2E6821"/>
<path d="M135.417 84.5547C135.531 85.2449 135.617 85.9377 135.701 86.6306L135.767 88.717C135.806 90.108 135.837 91.4937 135.85 92.8913C135.863 94.2889 135.86 95.6772 135.822 97.0708C135.802 97.7677 135.772 98.4658 135.718 99.1639C135.661 99.5103 135.598 99.8568 135.519 100.201C135.447 100.546 135.338 100.882 135.191 101.203L135.244 100.946L135.274 100.682C135.291 100.51 135.302 100.337 135.31 100.165C135.323 99.8184 135.33 99.4733 135.324 99.1256C135.377 98.438 135.407 97.7452 135.427 97.0523C135.465 95.6666 135.468 94.2757 135.455 92.8887C135.442 91.5016 135.411 90.112 135.372 88.7223C135.351 88.0282 135.331 87.3327 135.302 86.6385C135.335 85.9457 135.367 85.2528 135.417 84.5547Z" fill="#2E6821"/>
<path d="M136.598 101.041C136.768 100.716 136.908 100.38 137.049 100.051C137.243 99.7507 137.422 99.4399 137.601 99.1252C137.956 98.5025 138.291 97.8652 138.623 97.2265C138.954 96.5879 139.272 95.9413 139.585 95.2935L140.053 94.319C140.259 94.0175 140.466 93.7174 140.691 93.4238C140.61 93.7835 140.508 94.1365 140.408 94.4816L139.941 95.4601C139.625 96.1106 139.302 96.758 138.973 97.4024C138.64 98.0437 138.303 98.6849 137.943 99.3156L137.671 99.7864C137.575 99.9411 137.485 100.1 137.388 100.253C137.152 100.543 136.888 100.807 136.598 101.041Z" fill="#2E6821"/>
<path d="M139.065 109.136H133.028C132.652 109.136 132.287 109.001 132.002 108.754C131.717 108.507 131.529 108.165 131.473 107.791L130.409 100.677C130.336 100.183 133.947 100.573 136.159 100.552C138.242 100.531 141.647 100.335 141.61 100.583L140.621 107.791C140.566 108.166 140.378 108.507 140.092 108.754C139.806 109.001 139.442 109.137 139.065 109.136Z" fill="#ABBCCA"/>
<path d="M136.013 100.555C133.802 100.577 130.34 100.185 130.413 100.678L131.477 107.793C131.533 108.167 131.721 108.508 132.006 108.755C132.291 109.002 132.656 109.137 133.032 109.137H135.421C134.795 108.442 134.445 107.54 134.437 106.603C134.437 106.41 134.461 105.161 135.359 104.164C135.899 103.569 136.773 103.265 138.519 102.656C139.36 102.364 140.032 102.217 140.757 101.598C141.063 101.352 141.341 101.071 141.584 100.761L141.608 100.584C141.647 100.337 138.093 100.534 136.013 100.555Z" fill="#91A6B5"/>
<path d="M78.6064 46.3379H54.6141C54.3159 46.3379 54.0742 46.5806 54.0742 46.88V62.0922C54.0742 62.3916 54.3159 62.6343 54.6141 62.6343H78.6064C78.9045 62.6343 79.1462 62.3916 79.1462 62.0922V46.88C79.1462 46.5806 78.9045 46.3379 78.6064 46.3379Z" fill="#9D9F9F"/>
<path d="M78.9688 46.3379H76.6172C76.519 46.3379 76.4395 46.4178 76.4395 46.5164V62.4558C76.4395 62.5544 76.519 62.6343 76.6172 62.6343H78.9688C79.0669 62.6343 79.1465 62.5544 79.1465 62.4558V46.5164C79.1465 46.4178 79.0669 46.3379 78.9688 46.3379Z" fill="#454851"/>
<path d="M72.2534 64.8326H61.3633L65.8781 59.0148C65.878 58.9882 65.883 58.9618 65.8931 58.9372C65.9032 58.9126 65.918 58.8902 65.9367 58.8714C65.9555 58.8525 65.9778 58.8377 66.0023 58.8275C66.0268 58.8174 66.0531 58.8123 66.0796 58.8125H67.1408C67.1673 58.8123 67.1936 58.8174 67.2181 58.8275C67.2426 58.8377 67.2649 58.8525 67.2837 58.8714C67.3024 58.8902 67.3172 58.9126 67.3273 58.9372C67.3374 58.9618 67.3424 58.9882 67.3423 59.0148L72.2534 64.8326Z" fill="#E3EAF3"/>
<path d="M67.3429 59.0148C67.3431 58.9882 67.338 58.9618 67.3279 58.9372C67.3179 58.9126 67.303 58.8902 67.2843 58.8714C67.2655 58.8525 67.2433 58.8376 67.2187 58.8275C67.1942 58.8174 67.1679 58.8123 67.1414 58.8125H66.0802C66.0537 58.8123 66.0274 58.8174 66.0029 58.8275C65.9784 58.8376 65.9561 58.8525 65.9374 58.8714C65.9186 58.8902 65.9038 58.9126 65.8937 58.9372C65.8837 58.9618 65.8786 58.9882 65.8788 59.0148L65.5391 59.4511L70.0802 64.8339H72.2541L67.3429 59.0148Z" fill="#ABBCCA"/>
<path d="M60.961 64.834H72.2461C72.317 64.834 72.3872 64.848 72.4527 64.8753C72.5182 64.9025 72.5777 64.9424 72.6279 64.9928C72.678 65.0431 72.7177 65.1029 72.7449 65.1686C72.772 65.2344 72.786 65.3049 72.786 65.3761V66.6018H60.4277V65.3761C60.4277 65.2335 60.4837 65.0966 60.5835 64.9951C60.6833 64.8936 60.819 64.8357 60.961 64.834Z" fill="#9D9F9F"/>
<path d="M71.2438 64.834H72.5894C72.6432 64.834 72.6948 64.8554 72.7328 64.8936C72.7708 64.9318 72.7922 64.9836 72.7922 65.0376V66.6018H71.041V65.0376C71.041 64.9836 71.0624 64.9318 71.1004 64.8936C71.1384 64.8554 71.19 64.834 71.2438 64.834Z" fill="#454851"/>
<path d="M67.1841 51.4727H65.2776C64.7133 51.4727 64.2559 51.932 64.2559 52.4987V54.0444C64.2559 54.611 64.7133 55.0704 65.2776 55.0704H67.1841C67.7484 55.0704 68.2059 54.611 68.2059 54.0444V52.4987C68.2059 51.932 67.7484 51.4727 67.1841 51.4727Z" fill="#E3EAF3"/>
<path d="M67.9973 70.3262H65.8906V109.073H67.9973V70.3262Z" fill="#396E8E"/>
<path d="M120.665 69.2676H51.4199V100.477H120.665V69.2676Z" fill="#54A4CC"/>
<path d="M120.664 69.2676H105.18V100.477H120.664V69.2676Z" fill="#396E8E"/>
<path d="M93.4991 79.3223H62.4258V88.71H93.4991V79.3223Z" fill="#E3EAF3"/>
<path d="M52.4719 70.3262H50.3652V109.139H52.4719V70.3262Z" fill="#54A4CC"/>
<path d="M125.082 66.6016H47.002V70.3263H125.082V66.6016Z" fill="#895237"/>
<path d="M121.718 70.3262H119.611V109.073H121.718V70.3262Z" fill="#396E8E"/>
<path d="M106.232 70.3262H104.125V109.139H106.232V70.3262Z" fill="#54A4CC"/>
<path d="M125.082 66.6016H47.002V70.3263H125.082V66.6016Z" fill="#C9EFFB"/>
<path d="M125.08 66.6016H100.834V70.3263H125.08V66.6016Z" fill="#87DBF6"/>
<path d="M31.7501 37.2872C31.7501 37.2872 30.3465 37.3573 30.2675 38.9731C30.1885 40.5888 28.9785 40.1379 28.9785 40.1379C28.9785 40.1379 29.7883 41.3755 31.4104 40.0903C33.0325 38.8051 33.2445 38.6359 33.2445 38.6359C33.2445 38.6359 33.2379 37.3507 31.8554 37.2793" fill="#000001"/>
<path d="M31.1133 40.6674C31.1133 40.6674 31.4424 44.6737 33.0198 46.4111C34.5972 48.1485 33.0488 40.5352 33.0488 40.5352L31.1133 40.6674Z" fill="#000001"/>
<path d="M36.1798 48.3592C36.0969 48.0656 36.4366 47.3529 36.6538 46.9417C35.2252 47.1612 33.5228 46.1484 32.6367 44.3555C32.5835 44.3845 32.5262 44.405 32.4668 44.4163C32.4668 44.4163 32.3286 48.1476 31.5228 48.1926C30.5813 49.0044 27.5056 51.7493 28.1323 53.0226C28.659 54.091 31.4977 53.5396 35.7321 52.7185C36.1439 52.6543 36.5279 52.4704 36.8368 52.1896C37.7243 51.3381 37.482 49.8096 37.3635 49.4645C37.195 49.0137 36.2983 48.7809 36.1798 48.3592Z" fill="#EA9D7D"/>
<path d="M33.0931 48.7819C32.5309 47.5602 33.7106 47.3011 33.7106 47.3011L33.7027 47.2839C34.4822 47.8128 35.3525 48.0415 36.1333 47.8881C36.1702 47.8815 36.2057 47.8723 36.2426 47.863C36.3544 47.5411 36.4923 47.2289 36.6547 46.9295C35.2261 47.1503 33.6053 46.0423 32.7192 44.248C32.6978 44.2966 32.6624 44.3375 32.6176 44.3656C32.5727 44.3937 32.5205 44.4075 32.4677 44.4054C32.4677 44.4054 32.4414 45.0996 32.3479 45.8916C32.2241 46.9388 31.9819 48.1645 31.5223 48.1896C30.2465 49.2778 27.1655 52.0465 27.7843 53.2735C28.4032 54.5006 32.631 54.0669 35.7317 52.7156C36.2031 52.5093 36.5902 52.3083 36.8706 52.1523C34.9351 52.3665 33.5974 49.8781 33.0931 48.7819Z" fill="#D18165"/>
<path d="M34.4443 37.3168C32.8116 37.6368 31.8109 39.7246 32.04 42.1482H32.0282C31.5818 42.2355 31.3185 42.8093 31.4396 43.44C31.5608 44.0707 32.0216 44.4978 32.4679 44.4145C32.5187 44.4126 32.5685 44.3999 32.6139 44.3771C32.6593 44.3543 32.6993 44.3219 32.7313 44.2823C33.6385 46.1162 35.3027 47.2057 36.7511 46.9267C38.5496 46.575 39.1856 44.3471 38.655 41.6193C38.1243 38.8916 36.2415 36.9651 34.4443 37.3168Z" fill="#EA9D7D"/>
<path d="M36.2207 44.9994C36.7202 45.0336 37.2168 45.1016 37.7072 45.203C37.7072 45.203 37.6585 44.4943 37.0686 44.4097C36.4788 44.3251 36.2207 44.9994 36.2207 44.9994Z" fill="#BE3E5F"/>
<path d="M37.4823 41.4434C37.5415 41.7078 37.5929 41.9722 37.6653 42.2274C37.698 42.3472 37.7449 42.4626 37.8049 42.5712C37.8299 42.6162 37.876 42.677 37.9128 42.7338C37.9497 42.7907 37.9879 42.8515 38.0221 42.915C38.1049 43.0519 38.1474 43.2096 38.1446 43.3698C38.1358 43.4669 38.0917 43.5572 38.0208 43.6237C37.9581 43.6806 37.882 43.7207 37.7996 43.7401C37.5209 43.7936 37.2332 43.7731 36.9648 43.6806C37.2252 43.6691 37.4831 43.6246 37.7325 43.5483C37.7795 43.529 37.8221 43.5002 37.8575 43.4637C37.8706 43.4493 37.8807 43.4324 37.8873 43.414C37.8938 43.3956 37.8967 43.3761 37.8957 43.3566C37.8852 43.2458 37.8492 43.139 37.7904 43.0446C37.7614 42.989 37.7285 42.9335 37.693 42.878C37.6574 42.8224 37.6232 42.7709 37.5876 42.6955C37.5246 42.5629 37.4837 42.4209 37.4665 42.275C37.4265 41.9988 37.4318 41.7179 37.4823 41.4434Z" fill="#D18165"/>
<path d="M35.0977 41.087C35.3624 41.0798 35.6264 41.0541 35.8877 41.0103C36.0142 40.9881 36.1388 40.9558 36.2603 40.9138C36.3919 40.8754 36.5025 40.8159 36.6355 40.7617C36.5577 40.8833 36.4521 40.9844 36.3274 41.0566C36.2038 41.1325 36.0672 41.1845 35.9245 41.21C35.7836 41.2348 35.6398 41.238 35.4979 41.2192C35.357 41.2027 35.2208 41.1577 35.0977 41.087Z" fill="#000001"/>
<path d="M38.413 40.6797C38.4341 40.7432 38.4551 40.8119 38.4749 40.8727H38.4551C38.3143 40.8982 38.1703 40.9014 38.0285 40.882C37.8872 40.8656 37.7505 40.8206 37.627 40.7498C37.8902 40.7441 38.1528 40.7206 38.413 40.6797Z" fill="#000001"/>
<path d="M38.3156 42.4444C38.2897 42.4495 38.263 42.4495 38.2371 42.4442C38.2111 42.439 38.1865 42.4286 38.1646 42.4137C38.1427 42.3989 38.1239 42.3798 38.1094 42.3576C38.0948 42.3354 38.0849 42.3105 38.08 42.2844L37.9667 41.7026C37.9597 41.6513 37.9725 41.5993 38.0025 41.5572C38.0325 41.5151 38.0774 41.4862 38.1281 41.4763C38.1787 41.4665 38.2311 41.4765 38.2746 41.5044C38.318 41.5322 38.3492 41.5757 38.3617 41.6259L38.4737 42.2077C38.4788 42.2336 38.4788 42.2604 38.4737 42.2864C38.4685 42.3123 38.4583 42.337 38.4436 42.359C38.429 42.381 38.4101 42.3999 38.3881 42.4145C38.3662 42.4292 38.3415 42.4393 38.3156 42.4444Z" fill="#000001"/>
<path d="M36.2855 42.566C36.2594 42.5714 36.2326 42.5715 36.2065 42.5663C36.1804 42.5611 36.1556 42.5508 36.1335 42.5359C36.1115 42.521 36.0926 42.5019 36.078 42.4796C36.0634 42.4573 36.0533 42.4323 36.0485 42.406L35.9352 41.8256C35.9289 41.799 35.928 41.7715 35.9325 41.7446C35.9371 41.7178 35.947 41.6921 35.9616 41.6692C35.9763 41.6462 35.9954 41.6265 36.0179 41.6112C36.0403 41.5958 36.0656 41.5852 36.0923 41.58C36.1189 41.5747 36.1463 41.5749 36.1729 41.5806C36.1994 41.5862 36.2246 41.5972 36.2468 41.6128C36.269 41.6285 36.2879 41.6485 36.3022 41.6716C36.3165 41.6948 36.3261 41.7206 36.3302 41.7475L36.4435 42.3293C36.4535 42.3817 36.4426 42.436 36.413 42.4803C36.3834 42.5247 36.3376 42.5555 36.2855 42.566Z" fill="#000001"/>
<path d="M32.0119 42.709C31.9686 42.9269 31.9655 43.151 32.0027 43.3701C32.0244 43.4722 32.0576 43.5716 32.1014 43.6663C32.1199 43.7178 32.1515 43.7654 32.1765 43.821C32.2015 43.8765 32.2357 43.9241 32.2608 43.9876C32.1983 43.9685 32.1382 43.9423 32.0817 43.9096C32.0267 43.874 31.9763 43.8318 31.9316 43.784C31.8367 43.6836 31.772 43.5585 31.7446 43.423C31.7155 43.2876 31.726 43.1466 31.7749 43.0171C31.8193 42.8917 31.9023 42.7838 32.0119 42.709Z" fill="#D18165"/>
<path d="M32.0275 42.1398C32.0275 42.1398 32.799 44.8663 33.4337 45.7707C34.0209 46.6063 35.119 47.4327 36.8293 47.2515C37.1542 47.2196 37.4629 47.0937 37.7181 46.8893C38.2184 46.4833 38.9347 45.6292 38.7978 44.1218C38.7978 44.1218 38.3619 43.626 37.1875 43.6511C36.013 43.6763 35.7168 43.979 35.5153 44.2078C35.3139 44.4365 34.4172 45.5379 33.9695 45.1928C33.5219 44.8477 32.4409 42.6291 32.9504 41.4338C33.46 40.2385 34.0472 40.733 33.4244 39.3711C33.4244 39.3711 34.3158 39.0432 35.8734 39.387C36.194 39.4615 36.5306 39.4174 36.8214 39.2627C37.0558 39.1305 37.2665 38.9427 37.2467 38.6743C37.6621 39.194 38.0156 39.7607 38.3001 40.3628C38.3001 40.3628 39.0545 39.2111 38.0012 38.2565C37.1045 37.4433 36.8241 36.9567 36.5239 36.843C35.9287 36.6169 35.6799 36.9752 35.094 37.0784C34.5081 37.1815 34.3961 36.8073 33.7141 37.1722C33.0321 37.5372 32.7411 38.0885 32.508 38.6108C32.508 38.6108 31.8379 38.5183 31.2269 39.7255C30.9583 40.261 30.8622 42.9887 32.0275 42.1398ZM36.0341 44.2342C36.1934 44.0795 36.6542 43.8283 37.3231 43.9473C37.9617 44.0597 38.0473 44.4762 38.146 44.7935C38.1956 44.9451 38.2109 45.1059 38.1908 45.2642C38.146 45.5816 37.9841 45.6979 37.7036 45.7297C37.356 45.7667 37.2796 45.2576 37.0308 45.2854C36.7819 45.3132 36.8175 45.7429 36.2013 45.7693C35.5851 45.7958 35.6233 44.6309 36.0341 44.2342Z" fill="#000001"/>
<path d="M42.6607 108.945C40.8173 109.209 39.0227 108.59 38.3644 108.048C37.706 107.506 36.6356 107.72 36.6356 107.72L36.6672 109.01L34.7409 108.953C34.7409 108.953 34.6461 107.674 34.5592 106.524C34.5158 105.947 34.7027 105.627 34.7765 105.069C34.8502 104.511 35.2478 103.615 35.2478 103.615C36.288 103.649 38.9687 103.807 39.4612 103.209C39.6503 103.595 39.9036 103.945 40.2103 104.246C40.3091 104.347 40.4157 104.448 40.5237 104.546C40.6317 104.644 40.708 104.699 40.8028 104.774C40.9253 104.871 41.0491 104.966 41.1794 105.06C42.4961 105.994 44.1366 106.709 45.0438 107.373C46.4632 108.424 44.504 108.679 42.6607 108.945Z" fill="#EA9D7D"/>
<path d="M24.2869 107.974C22.5832 107.218 21.3903 105.735 21.119 104.925C20.8478 104.114 19.8669 103.566 19.8669 103.566L19.327 104.43L17.7207 103.354C17.7207 103.354 18.1618 102.624 18.6964 101.602C18.9597 101.092 19.2928 100.92 19.647 100.49C20.0012 100.06 20.8122 99.5117 20.8122 99.5117C21.676 100.095 23.8643 101.658 24.595 101.41C24.5507 101.838 24.5801 102.27 24.6819 102.688C24.7122 102.828 24.7491 102.969 24.7899 103.109C24.8268 103.226 24.8649 103.338 24.9044 103.453C24.9571 103.6 25.0124 103.747 25.0743 103.895C25.6918 105.386 26.7083 106.869 27.1257 107.914C27.7814 109.559 25.9907 108.73 24.2869 107.974Z" fill="#EA9D7D"/>
<path d="M35.2468 103.621C35.2468 103.621 34.4726 105.37 34.5595 106.522C34.5793 106.786 34.5977 107.014 34.6148 107.199C35.2956 107.212 36.0895 107.154 35.7775 106.783C35.2587 106.166 35.6761 103.633 35.6761 103.633L35.2468 103.621Z" fill="#7C2F13"/>
<path d="M45.332 107.63C45.2419 107.538 45.1441 107.454 45.0397 107.379C44.4406 106.94 43.5176 106.477 42.5828 105.945C41.8433 106.152 41.1822 106.575 40.6842 107.162C40.2536 107.691 40.2194 108.545 40.1035 108.69C40.5801 109.172 45.4268 108.558 45.519 108.077C45.5196 108.071 45.5196 108.066 45.519 108.061C45.5097 107.899 45.4434 107.747 45.332 107.63Z" fill="#7C2F13"/>
<path d="M42.6589 108.945C44.1388 108.73 45.6872 108.527 45.5082 107.913C40.9696 109.5 38.9485 107.852 38.5562 107.339C38.1638 106.826 37.3369 106.853 37.3369 106.853C35.8294 106.985 34.9775 106.588 34.543 106.258C34.543 106.348 34.543 106.438 34.5548 106.522C34.6404 107.673 34.7365 108.951 34.7365 108.951L36.6668 109.008L36.6352 107.719C36.6352 107.719 37.6437 107.558 38.2652 108.406C38.73 109.038 40.8156 109.217 42.6589 108.945Z" fill="#7C2F13"/>
<path d="M38.2695 103.621C38.4361 103.981 38.6623 104.311 38.9384 104.596C39.2044 104.885 39.4957 105.151 39.8087 105.389C40.1189 105.628 40.4459 105.844 40.787 106.035C40.9568 106.131 41.132 106.218 41.3137 106.3C41.4954 106.382 41.6731 106.456 41.8601 106.518C41.7166 106.386 41.5651 106.254 41.415 106.135C41.2649 106.016 41.1162 105.89 40.9621 105.774C40.6632 105.533 40.3551 105.306 40.0549 105.07C39.7547 104.835 39.4519 104.604 39.1543 104.366C38.8568 104.128 38.5566 103.891 38.2695 103.621Z" fill="#7C2F13"/>
<path d="M20.8133 99.5117C20.8133 99.5117 19.2333 100.581 18.6975 101.603C18.5724 101.843 18.471 102.041 18.3867 102.208C18.9568 102.581 19.6613 102.955 19.5928 102.472C19.4782 101.679 21.1728 99.7484 21.1728 99.7484C21.0332 99.6585 20.9108 99.5778 20.8133 99.5117Z" fill="#7C2F13"/>
<path d="M27.2415 108.29C27.2148 108.164 27.1764 108.041 27.1269 107.922C26.8517 107.229 26.3132 106.346 25.8024 105.397C25.0661 105.179 24.2819 105.186 23.5495 105.417C22.907 105.635 22.4251 106.342 22.25 106.403C22.4001 107.064 26.8307 109.129 27.1651 108.77L27.1756 108.757C27.254 108.614 27.2774 108.448 27.2415 108.29Z" fill="#7C2F13"/>
<path d="M24.2882 107.974C25.6563 108.582 27.0783 109.234 27.2468 108.618C22.5634 107.543 21.7168 105.071 21.6589 104.427C21.6009 103.783 20.882 103.369 20.882 103.369C19.5338 102.68 19.0229 101.887 18.828 101.375C18.7819 101.453 18.7372 101.531 18.6964 101.608C18.1618 102.63 17.7207 103.358 17.7207 103.358L19.327 104.435L19.8656 103.57C19.8656 103.57 20.8465 104.12 21.119 104.929C21.3916 105.738 22.5845 107.219 24.2882 107.974Z" fill="#7C2F13"/>
<path d="M23.3767 101.123C23.3278 101.517 23.3452 101.917 23.428 102.305C23.5008 102.693 23.6074 103.073 23.7467 103.442C23.8826 103.81 24.0454 104.168 24.2338 104.512C24.3273 104.684 24.43 104.85 24.534 105.017C24.6381 105.184 24.7566 105.341 24.8816 105.493C24.8342 105.3 24.7697 105.115 24.7078 104.931C24.646 104.747 24.5762 104.563 24.5143 104.384C24.3826 104.02 24.251 103.663 24.1193 103.303C23.9876 102.944 23.856 102.588 23.7243 102.227C23.5926 101.866 23.4781 101.504 23.3767 101.123Z" fill="#7C2F13"/>
<path d="M38.2711 65.0039C38.2711 65.0039 40.3277 83.3206 40.3922 84.935C40.4567 86.5495 39.5245 103.33 39.5245 103.33C39.5245 103.33 37.0229 104.341 35.2282 103.652C35.2282 103.652 33.8141 90.7872 34.0288 87.5213L33.5574 81.3174C33.5574 81.3174 33.1716 86.4807 32.7858 87.0836C32.4 87.6866 24.9016 101.844 24.9016 101.844C24.9016 101.844 20.6172 99.9066 20.6172 99.3473C20.6172 99.3473 23.1017 89.0194 26.2723 86.1369L26.3157 74.1536C25.6048 72.3489 25.3401 70.398 25.5442 68.4681C25.6801 67.2429 26.0053 66.0465 26.508 64.9219C26.508 64.9219 35.7009 66.2957 38.2711 65.0039Z" fill="#FFC065"/>
<path d="M33.7059 79.3199C34.0495 75.3533 34.7592 71.5492 34.991 71.5743C35.1687 71.5929 34.991 73.5669 34.9264 78.0929C34.879 81.7859 34.9515 84.265 35.0581 87.7755C35.2596 94.6246 35.5321 95.7988 35.8257 96.7468C36.5918 99.1748 37.8517 101.417 39.5256 103.33C38.6829 103.712 37.3162 104.15 35.7902 103.811C35.6002 103.77 35.4129 103.717 35.2293 103.653C35.2293 103.653 33.8152 90.7876 34.0298 87.5217L33.5742 81.5201C33.59 80.9211 33.6256 80.26 33.7059 79.3199Z" fill="#FFAA39"/>
<path d="M23.8042 95.2938C24.3309 92.4563 25.9293 91.8984 27.2446 88.5783C28.0346 86.5791 28.1268 84.285 28.3098 79.6969C28.5903 72.66 27.8516 72.1219 28.7746 70.4109C31.2065 65.9061 38.3705 65.7567 38.2704 65.003C35.4949 65.9603 27.7884 65.089 26.6495 64.9435L26.5574 64.9316H26.5126C26.0079 66.0551 25.6805 67.2506 25.5422 68.4752C25.3381 70.4052 25.6029 72.356 26.3138 74.1608L26.2703 86.1441C23.0998 89.0265 20.6152 99.3544 20.6152 99.3544C20.714 99.4866 20.8206 99.6096 20.9352 99.7338C21.7963 100.404 24.1479 101.504 24.7535 101.783H24.7654H24.7772L24.8088 101.797L24.8273 101.806H24.8391L24.8575 101.814H24.8641L24.8984 101.83C24.1386 100.273 23.3144 97.9105 23.8042 95.2938Z" fill="#FFAA39"/>
<path d="M32.2711 66.9043C32.2711 66.9043 30.2961 69.8132 28.1895 70.0776" stroke="white" stroke-width="3" stroke-miterlimit="10" stroke-linecap="round"/>
<path d="M30.231 69.1074C30.231 69.1074 29.9677 83.1084 29.046 86.0173C28.1244 88.9262 25.0539 89.6243 22.2441 100.58" stroke="white" stroke-width="3" stroke-miterlimit="10"/>
<path d="M41.4866 56.5684L43.2167 61.2689C43.2735 61.4229 43.3706 61.5588 43.4978 61.6621C43.625 61.7654 43.7776 61.8324 43.9395 61.8559L50.4294 62.7973C50.6733 62.8332 50.922 62.8157 51.1586 62.7461C51.3952 62.6765 51.614 62.5564 51.8 62.3941C52.5189 61.7687 53.6736 60.7968 53.9159 60.7968C54.2727 60.7968 54.9087 61.019 53.4393 62.3042C53.4393 62.3042 53.6605 62.4919 54.3609 62.4919C55.0614 62.4919 57.7658 62.4126 57.8251 62.6321C57.8843 62.8516 58.5598 63.3104 54.8863 63.3897C54.8863 63.3897 54.727 63.7282 55.0456 63.7282C55.3642 63.7282 58.382 63.7084 58.0832 64.1077C57.7843 64.507 57.3485 64.4263 54.9455 64.4673C54.9455 64.4673 54.7665 64.7318 54.8863 64.7661C55.0061 64.8005 57.8659 64.8851 57.8659 65.1245C57.8659 65.3638 58.382 65.6639 54.2898 65.4643C54.2898 65.4643 54.2306 65.5965 54.648 65.7287C55.0654 65.8609 56.8863 66.3065 56.4149 66.522C55.9436 66.7376 55.8791 66.6424 53.754 66.0632L51.9014 65.7644C51.5856 65.7126 51.2637 65.7091 50.9468 65.7538C49.0087 66.0275 41.7499 66.649 39.9474 64.7688C38.2581 63.0076 37.3496 56.7098 37.3496 56.7098L41.4866 56.5684Z" fill="#EA9D7D"/>
<path d="M57.8718 65.1245C57.8718 64.8852 55.0107 64.8059 54.8922 64.7662C54.7737 64.7266 54.9514 64.4674 54.9514 64.4674C56.7855 64.437 57.4741 64.4753 57.8296 64.318C56.9567 64.0469 55.3174 64.3682 52.4748 64.6671C47.3108 65.2105 45.8019 64.8813 45.2068 64.7305C43.5701 64.3167 42.0086 63.8724 41.0356 62.5092C39.8506 60.8485 40.3469 58.9127 40.3904 56.6055L37.3555 56.7086C37.3555 56.7086 38.264 63.0063 39.9533 64.7675C41.7545 66.6464 48.9988 66.0276 50.9461 65.7526C51.2652 65.7078 51.5892 65.7114 51.9073 65.7632L53.7598 66.062C55.8849 66.6411 55.9442 66.7403 56.4208 66.5208C56.8974 66.3013 55.0712 65.8425 54.6538 65.7275C54.2365 65.6124 54.2957 65.463 54.2957 65.463C58.3879 65.664 57.8718 65.3639 57.8718 65.1245Z" fill="#D18165"/>
<path d="M53.4421 62.3047C53.4421 62.3047 53.3525 64.5168 51.3262 64.3674" stroke="#2F170B" stroke-width="2" stroke-miterlimit="10"/>
<path d="M50.252 62.7715V65.7042" stroke="#2F170B" stroke-width="6" stroke-linecap="round" stroke-linejoin="round"/>
<path d="M44.0733 61.3056C43.9244 61.2571 43.7891 61.1736 43.6788 61.0621C43.5684 60.9506 43.4861 60.8142 43.4387 60.6644L40.6184 51.9046C40.3126 50.9134 39.716 50.0378 38.9067 49.3924C38.7007 49.2267 38.4773 49.084 38.2405 48.9667C38.22 48.9566 38.1972 48.952 38.1744 48.9534C38.1516 48.9548 38.1296 48.9621 38.1105 48.9746C38.0914 48.9872 38.0758 49.0045 38.0654 49.0249C38.0549 49.0453 38.0499 49.068 38.0509 49.091L38.3024 56.8656L38.5104 62.452C38.5472 63.454 38.9696 64.4025 39.6886 65.0982C40.4076 65.7938 41.3672 66.1823 42.3656 66.182H49.7916L49.602 62.4375C49.7561 62.4414 45.5757 61.7883 44.0733 61.3056Z" fill="#25BEEF"/>
<path d="M49.7316 64.8963C43.9751 65.5244 41.9211 64.3357 41.1298 63.0928C40.2305 61.6807 40.2634 59.1023 40.3003 56.286C40.3003 56.286 40.3319 53.8994 39.455 51.9108C39.2983 51.5551 38.8651 50.5886 38.3806 50.6097C38.2773 50.6198 38.1811 50.6667 38.1094 50.7419L38.3069 56.8678L38.5149 62.4542C38.5517 63.4561 38.974 64.4047 39.6931 65.1003C40.4121 65.796 41.3717 66.1845 42.3701 66.1842H49.7961L49.7316 64.8963Z" fill="#1A87C4"/>
<path d="M38.0933 65.8824H26.4039C26.3517 65.8823 26.3001 65.8707 26.2528 65.8483C26.2056 65.826 26.1638 65.7935 26.1305 65.7531C26.0972 65.7127 26.0732 65.6654 26.0601 65.6146C26.0471 65.5638 26.0453 65.5108 26.055 65.4592L29.1992 48.6393L31.6798 48.0879C32.5659 49.9747 35.2953 50.0606 36.167 48.1672L38.0498 48.8865C38.3746 48.9656 38.6617 49.1563 38.8612 49.4256C39.0608 49.6948 39.1604 50.0256 39.1426 50.3608L39.1229 50.9571C38.9675 55.7506 38.8113 60.5437 38.6542 65.3363C38.6528 65.3759 38.6423 65.569 38.0933 65.8824Z" fill="#25BEEF"/>
<path d="M19.0919 74.6309C19.1522 74.3927 19.1844 74.1482 19.188 73.9024C19.2183 71.845 19.4145 63.9923 20.5942 60.4157C20.9708 59.2746 24.4218 53.4688 24.4218 53.4688L29.3501 54.5159L25.0051 61.7604C24.8126 62.0816 24.6709 62.4309 24.5851 62.7957L21.9372 74.1205C21.9012 74.2758 21.9001 74.4372 21.9341 74.593C21.968 74.7488 22.0361 74.895 22.1334 75.021C22.6904 75.7389 23.7937 77.1987 23.7766 77.4658C23.7516 77.8241 23.4883 78.4455 22.3099 76.888C22.3099 76.888 22.1084 77.0969 22.0623 77.8016C22.0162 78.5063 21.9135 81.2182 21.6923 81.2632C21.4711 81.3081 20.9695 81.9547 21.1354 78.2684C21.1354 78.2684 20.8089 78.0859 20.7878 78.4006C20.7667 78.7153 20.585 81.7458 20.2085 81.4205C19.8319 81.0953 19.9451 80.6629 20.061 78.2472C20.061 78.2472 19.8148 78.0502 19.7674 78.1665C19.72 78.2829 19.4501 81.1442 19.2117 81.1283C18.9734 81.1125 18.6429 81.6096 19.1143 77.5239C19.1143 77.5239 18.9826 77.4539 18.8325 77.8638C18.6824 78.2736 18.1084 80.0745 17.9214 79.5826C17.7344 79.0908 17.8385 79.0366 18.5547 76.9461L19.0919 74.6309Z" fill="#EA9D7D"/>
<path d="M29.3461 54.5148L28.1835 54.2676C27.3145 55.3756 26.2349 56.1795 24.8287 58.2475C23.7319 59.8593 23.0222 61.4988 22.7075 62.1917C21.8438 64.0904 22.0189 65.0596 21.4435 69.7442C21.0972 72.5579 20.9247 73.9647 20.743 74.6999C20.743 74.6999 19.4422 79.9689 20.0768 81.274C20.1065 81.3347 20.152 81.3864 20.2085 81.4234C20.585 81.7486 20.7667 78.7221 20.7878 78.4034C20.8089 78.0848 21.1354 78.2712 21.1354 78.2712C20.9695 81.9576 21.4698 81.3123 21.6924 81.266C21.9149 81.2198 22.0149 78.5211 22.061 77.8097C22.1071 77.105 22.3086 76.8961 22.3086 76.8961C23.487 78.4537 23.7503 77.8322 23.7753 77.4739C23.7924 77.2095 22.6891 75.7471 22.1321 75.0291C22.0348 74.9031 21.9667 74.7569 21.9328 74.6011C21.8988 74.4454 21.8999 74.284 21.9359 74.1287L24.5838 62.8038C24.6696 62.439 24.8113 62.0898 25.0038 61.7685L29.3461 54.5148Z" fill="#D18165"/>
<path d="M19.199 73.8019C19.1166 73.8024 19.037 73.7712 18.9768 73.7146C18.9166 73.6581 18.8802 73.5805 18.8751 73.4978C18.7751 71.9112 19.0068 64.5715 19.9008 60.9023C20.5591 58.2222 25.2689 51.2792 25.2689 51.2792C25.2689 51.2792 27.4361 49.001 29.1978 48.6348L30.2011 53.8893L25.1319 62.2999C25.0832 62.3753 23.0621 71.5674 22.5789 73.4608C22.5541 73.5575 22.4979 73.6431 22.4192 73.7041C22.3405 73.7652 22.2438 73.7982 22.1444 73.798L19.199 73.8019Z" fill="#25BEEF"/>
<path d="M26.6517 59.3088L30.1764 53.93L30.1685 53.8785C30.1536 53.7805 30.1136 53.6881 30.0524 53.6103C29.9913 53.5325 29.911 53.472 29.8196 53.4347C29.7282 53.3974 29.6287 53.3845 29.5308 53.3974C29.4329 53.4103 29.3401 53.4485 29.2613 53.5083C28.5885 54.0213 27.7287 54.9072 26.9414 55.7177C26.1198 56.5639 25.2376 57.4723 24.8281 58.2471L26.4081 59.3565C26.4468 59.3823 26.4941 59.3918 26.5397 59.3829C26.5853 59.374 26.6255 59.3474 26.6517 59.3088Z" fill="#1A87C4"/>
<path d="M38.6542 65.3361C37.88 65.0624 35.8681 65.0518 32.82 64.0879C29.9602 63.1835 29.3835 62.4483 29.1228 61.9221C28.5106 60.6845 28.9109 59.1163 29.0754 58.4711C29.3704 57.3128 29.4546 56.8699 30.0471 55.4009C30.2459 54.9077 30.3105 53.7137 30.0471 53.6159C29.7403 53.5022 28.533 54.8905 27.6455 56.7377L26.0708 65.4511C26.0594 65.5033 26.0597 65.5574 26.0719 65.6094C26.0841 65.6614 26.1077 65.71 26.1411 65.7516C26.1744 65.7933 26.2167 65.8268 26.2647 65.8499C26.3127 65.8729 26.3652 65.8848 26.4184 65.8848H38.0933C38.239 65.8845 38.379 65.8274 38.4836 65.7256C38.5882 65.6237 38.6494 65.485 38.6542 65.3387V65.3361Z" fill="#1A87C4"/>
<path d="M22.1459 73.8027C22.2453 73.803 22.342 73.77 22.4207 73.7089C22.4994 73.6479 22.5556 73.5622 22.5804 73.4656C23.0636 71.5721 25.0821 62.3801 25.1334 62.3047L28.4251 56.8347L28.7687 55.166L24.8187 58.2481C24.8187 58.2481 23.2269 60.2129 22.8003 62.7714C22.3737 65.3299 20.9056 73.7935 20.9043 73.8027H22.1459Z" fill="#1A87C4"/>
</svg>
