<svg width="157" height="149" viewBox="0 0 157 149" fill="none" xmlns="http://www.w3.org/2000/svg">
<path d="M117.75 37.25V23.2812H39.25V55.875V69.8438H117.75V55.875V37.25Z" fill="#0071BC"/>
<path d="M112.844 27.9375H44.1562V65.1875H112.844V27.9375Z" fill="#0585CC"/>
<path d="M58.875 44.2344C59.5256 44.2344 60.1496 43.9891 60.6096 43.5525C61.0697 43.1159 61.3281 42.5237 61.3281 41.9062V41.5663C61.3226 40.1567 60.8441 38.7854 59.9619 37.6514C59.0797 36.5173 57.8397 35.6795 56.4219 35.2595V32.5938C56.4219 31.9763 56.1634 31.3841 55.7034 30.9475C55.2433 30.5109 54.6194 30.2656 53.9688 30.2656C53.3181 30.2656 52.6942 30.5109 52.2341 30.9475C51.7741 31.3841 51.5156 31.9763 51.5156 32.5938V35.2595C50.1854 35.6521 49.0095 36.4137 48.1394 37.4462C47.2693 38.4787 46.7448 39.7347 46.6334 41.0526C46.522 42.3704 46.8289 43.6897 47.5146 44.8406C48.2002 45.9915 49.2331 46.9212 50.4804 47.51L55.2615 49.78C55.6837 49.9801 56.0223 50.3096 56.2225 50.7151C56.4227 51.1207 56.4728 51.5785 56.3646 52.0144C56.2565 52.4503 55.9964 52.8388 55.6266 53.1169C55.2567 53.3951 54.7988 53.5466 54.3269 53.5469H53.6106C53.0552 53.5463 52.5227 53.3366 52.1299 52.9639C51.7372 52.5911 51.5163 52.0858 51.5156 51.5587V51.2188C51.5156 50.6013 51.2572 50.0091 50.7971 49.5725C50.3371 49.1359 49.7131 48.8906 49.0625 48.8906C48.4119 48.8906 47.7879 49.1359 47.3279 49.5725C46.8678 50.0091 46.6094 50.6013 46.6094 51.2188V51.5587C46.6149 52.9683 47.0934 54.3396 47.9756 55.4736C48.8578 56.6077 50.0978 57.4455 51.5156 57.8655V60.5312C51.5156 61.1487 51.7741 61.7409 52.2341 62.1775C52.6942 62.6141 53.3181 62.8594 53.9688 62.8594C54.6194 62.8594 55.2433 62.6141 55.7034 62.1775C56.1634 61.7409 56.4219 61.1487 56.4219 60.5312V57.8655C57.7521 57.4729 58.928 56.7113 59.7981 55.6788C60.6682 54.6463 61.1927 53.3903 61.3041 52.0724C61.4155 50.7546 61.1086 49.4353 60.4229 48.2844C59.7373 47.1335 58.7044 46.2038 57.4571 45.615L52.676 43.345C52.2538 43.1449 51.9152 42.8154 51.715 42.4099C51.5148 42.0043 51.4647 41.5465 51.5729 41.1106C51.681 40.6747 51.9411 40.2862 52.3109 40.0081C52.6808 39.7299 53.1387 39.5784 53.6106 39.5781H54.3269C54.8823 39.5787 55.4148 39.7884 55.8076 40.1611C56.2003 40.5339 56.4212 41.0392 56.4219 41.5663V41.9062C56.4219 42.5237 56.6803 43.1159 57.1404 43.5525C57.6004 43.9891 58.2244 44.2344 58.875 44.2344Z" fill="#0071BC"/>
<path d="M149.641 93.125H7.35938V125.719H149.641V93.125Z" fill="#AFAEAE"/>
<path d="M85.8594 81.4844V69.8438H71.1406V81.4844L62.8196 83.0628C61.707 83.2739 60.7058 83.8444 59.9866 84.6773C59.2674 85.5101 58.8746 86.5538 58.875 87.6306V93.125H98.125V87.6306C98.1255 86.5538 97.7326 85.5101 97.0134 84.6773C96.2942 83.8444 95.293 83.2739 94.1804 83.0628L85.8594 81.4844Z" fill="#CCCCCC"/>
<path d="M117.75 55.875H125.109C125.76 55.875 126.384 56.1203 126.844 56.5569C127.304 56.9935 127.562 57.5857 127.562 58.2031V72.1719C127.562 74.0242 128.338 75.8007 129.718 77.1106C131.098 78.4204 132.97 79.1562 134.922 79.1562C136.874 79.1562 138.746 78.4204 140.126 77.1106C141.506 75.8007 142.281 74.0242 142.281 72.1719V46.5625C142.281 44.0927 141.247 41.724 139.407 39.9776C137.567 38.2311 135.071 37.25 132.469 37.25H117.75V55.875Z" fill="#D1303D"/>
<path d="M127.562 79.1562H142.281C143.582 79.1562 144.83 79.6468 145.75 80.52C146.671 81.3932 147.188 82.5776 147.188 83.8125V93.125H122.656V83.8125C122.656 82.5776 123.173 81.3932 124.093 80.52C125.013 79.6468 126.261 79.1562 127.562 79.1562Z" fill="#CCCCCC"/>
<path d="M12.2656 55.8754H35.3618C36.8489 55.7183 38.3422 56.1163 39.5256 56.9853C40.7091 57.8542 41.49 59.126 41.7031 60.5317V83.8129H17.1719V65.1879" fill="#F9AE53"/>
<path d="M12.2656 55.875C13.5668 55.875 14.8148 56.3656 15.7349 57.2388C16.655 58.112 17.1719 59.2963 17.1719 60.5312V65.1875H7.35938V60.5312C7.35938 59.2963 7.87628 58.112 8.79638 57.2388C9.71648 56.3656 10.9644 55.875 12.2656 55.875Z" fill="#F29322"/>
<path d="M46.6094 83.8125H12.2656V93.125H46.6094V83.8125Z" fill="#CCCCCC"/>
<path d="M31.8906 67.5156H26.9844C26.3338 67.5156 25.7098 67.2703 25.2498 66.8337C24.7897 66.3971 24.5312 65.805 24.5312 65.1875C24.5312 64.57 24.7897 63.9779 25.2498 63.5413C25.7098 63.1047 26.3338 62.8594 26.9844 62.8594H31.8906C32.5412 62.8594 33.1652 63.1047 33.6252 63.5413C34.0853 63.9779 34.3438 64.57 34.3438 65.1875C34.3438 65.805 34.0853 66.3971 33.6252 66.8337C33.1652 67.2703 32.5412 67.5156 31.8906 67.5156ZM31.8906 76.8281H26.9844C26.3338 76.8281 25.7098 76.5828 25.2498 76.1462C24.7897 75.7096 24.5312 75.1175 24.5312 74.5C24.5312 73.8825 24.7897 73.2904 25.2498 72.8538C25.7098 72.4172 26.3338 72.1719 26.9844 72.1719H31.8906C32.5412 72.1719 33.1652 72.4172 33.6252 72.8538C34.0853 73.2904 34.3438 73.8825 34.3438 74.5C34.3438 75.1175 34.0853 75.7096 33.6252 76.1462C33.1652 76.5828 32.5412 76.8281 31.8906 76.8281Z" fill="#ED8145"/>
<path d="M80.9531 34.9219H68.6875C68.0369 34.9219 67.4129 34.6766 66.9529 34.24C66.4928 33.8034 66.2344 33.2112 66.2344 32.5938C66.2344 31.9763 66.4928 31.3841 66.9529 30.9475C67.4129 30.5109 68.0369 30.2656 68.6875 30.2656H80.9531C81.6037 30.2656 82.2277 30.5109 82.6877 30.9475C83.1478 31.3841 83.4062 31.9763 83.4062 32.5938C83.4062 33.2112 83.1478 33.8034 82.6877 34.24C82.2277 34.6766 81.6037 34.9219 80.9531 34.9219ZM103.031 34.9219H90.7656C90.115 34.9219 89.4911 34.6766 89.031 34.24C88.571 33.8034 88.3125 33.2112 88.3125 32.5938C88.3125 31.9763 88.571 31.3841 89.031 30.9475C89.4911 30.5109 90.115 30.2656 90.7656 30.2656H103.031C103.682 30.2656 104.306 30.5109 104.766 30.9475C105.226 31.3841 105.484 31.9763 105.484 32.5938C105.484 33.2112 105.226 33.8034 104.766 34.24C104.306 34.6766 103.682 34.9219 103.031 34.9219ZM80.9531 44.2344H68.6875C68.0369 44.2344 67.4129 43.9891 66.9529 43.5525C66.4928 43.1159 66.2344 42.5237 66.2344 41.9062C66.2344 41.2888 66.4928 40.6966 66.9529 40.26C67.4129 39.8234 68.0369 39.5781 68.6875 39.5781H80.9531C81.6037 39.5781 82.2277 39.8234 82.6877 40.26C83.1478 40.6966 83.4062 41.2888 83.4062 41.9062C83.4062 42.5237 83.1478 43.1159 82.6877 43.5525C82.2277 43.9891 81.6037 44.2344 80.9531 44.2344ZM98.125 44.2344H90.7656C90.115 44.2344 89.4911 43.9891 89.031 43.5525C88.571 43.1159 88.3125 42.5237 88.3125 41.9062C88.3125 41.2888 88.571 40.6966 89.031 40.26C89.4911 39.8234 90.115 39.5781 90.7656 39.5781H98.125C98.7756 39.5781 99.3996 39.8234 99.8596 40.26C100.32 40.6966 100.578 41.2888 100.578 41.9062C100.578 42.5237 100.32 43.1159 99.8596 43.5525C99.3996 43.9891 98.7756 44.2344 98.125 44.2344ZM80.9531 53.5469H68.6875C68.0369 53.5469 67.4129 53.3016 66.9529 52.865C66.4928 52.4284 66.2344 51.8362 66.2344 51.2188C66.2344 50.6013 66.4928 50.0091 66.9529 49.5725C67.4129 49.1359 68.0369 48.8906 68.6875 48.8906H80.9531C81.6037 48.8906 82.2277 49.1359 82.6877 49.5725C83.1478 50.0091 83.4062 50.6013 83.4062 51.2188C83.4062 51.8362 83.1478 52.4284 82.6877 52.865C82.2277 53.3016 81.6037 53.5469 80.9531 53.5469ZM98.125 53.5469H90.7656C90.115 53.5469 89.4911 53.3016 89.031 52.865C88.571 52.4284 88.3125 51.8362 88.3125 51.2188C88.3125 50.6013 88.571 50.0091 89.031 49.5725C89.4911 49.1359 90.115 48.8906 90.7656 48.8906H98.125C98.7756 48.8906 99.3996 49.1359 99.8596 49.5725C100.32 50.0091 100.578 50.6013 100.578 51.2188C100.578 51.8362 100.32 52.4284 99.8596 52.865C99.3996 53.3016 98.7756 53.5469 98.125 53.5469ZM80.9531 62.8594H68.6875C68.0369 62.8594 67.4129 62.6141 66.9529 62.1775C66.4928 61.7409 66.2344 61.1487 66.2344 60.5312C66.2344 59.9138 66.4928 59.3216 66.9529 58.885C67.4129 58.4484 68.0369 58.2031 68.6875 58.2031H80.9531C81.6037 58.2031 82.2277 58.4484 82.6877 58.885C83.1478 59.3216 83.4062 59.9138 83.4062 60.5312C83.4062 61.1487 83.1478 61.7409 82.6877 62.1775C82.2277 62.6141 81.6037 62.8594 80.9531 62.8594ZM103.031 62.8594H90.7656C90.115 62.8594 89.4911 62.6141 89.031 62.1775C88.571 61.7409 88.3125 61.1487 88.3125 60.5312C88.3125 59.9138 88.571 59.3216 89.031 58.885C89.4911 58.4484 90.115 58.2031 90.7656 58.2031H103.031C103.682 58.2031 104.306 58.4484 104.766 58.885C105.226 59.3216 105.484 59.9138 105.484 60.5312C105.484 61.1487 105.226 61.7409 104.766 62.1775C104.306 62.6141 103.682 62.8594 103.031 62.8594Z" fill="#0071BC"/>
<path d="M78.5 109.422C77.5296 109.422 76.5811 109.149 75.7742 108.637C74.9674 108.126 74.3386 107.398 73.9672 106.547C73.5959 105.697 73.4987 104.76 73.688 103.857C73.8773 102.954 74.3446 102.124 75.0308 101.473C75.7169 100.822 76.5911 100.379 77.5428 100.199C78.4946 100.019 79.481 100.111 80.3775 100.464C81.274 100.816 82.0403 101.413 82.5794 102.179C83.1185 102.944 83.4062 103.845 83.4062 104.766C83.4062 106.001 82.8893 107.185 81.9692 108.058C81.0491 108.931 79.8012 109.422 78.5 109.422ZM90.7656 118.734H66.2344C65.5838 118.734 64.9598 118.489 64.4998 118.052C64.0397 117.616 63.7812 117.024 63.7812 116.406C63.7812 115.789 64.0397 115.197 64.4998 114.76C64.9598 114.323 65.5838 114.078 66.2344 114.078H90.7656C91.4162 114.078 92.0402 114.323 92.5002 114.76C92.9603 115.197 93.2188 115.789 93.2188 116.406C93.2188 117.024 92.9603 117.616 92.5002 118.052C92.0402 118.489 91.4162 118.734 90.7656 118.734Z" fill="#CCCCCC"/>
<path d="M85.8594 69.8438H71.1406V74.5H85.8594V69.8438Z" fill="#BFBFBF"/>
<path d="M41.7031 81.4844H17.1719V83.8125H41.7031V81.4844Z" fill="#F29322"/>
<path d="M117.75 37.25H112.844C110.134 37.25 107.938 39.3347 107.938 41.9062V51.2188C107.938 53.7903 110.134 55.875 112.844 55.875H117.75C120.46 55.875 122.656 53.7903 122.656 51.2188V41.9062C122.656 39.3347 120.46 37.25 117.75 37.25Z" fill="#CCCCCC"/>
<path d="M115.297 51.2188C114.646 51.2188 114.022 50.9735 113.562 50.5369C113.102 50.1003 112.844 49.5081 112.844 48.8906V44.2344C112.844 43.6169 113.102 43.0247 113.562 42.5881C114.022 42.1515 114.646 41.9062 115.297 41.9062C115.947 41.9062 116.571 42.1515 117.031 42.5881C117.492 43.0247 117.75 43.6169 117.75 44.2344V48.8906C117.75 49.5081 117.492 50.1003 117.031 50.5369C116.571 50.9735 115.947 51.2188 115.297 51.2188Z" fill="#B3B3B3"/>
</svg>
