<svg width="18" height="19" viewBox="0 0 18 19" fill="none" xmlns="http://www.w3.org/2000/svg">
<g clip-path="url(#clip0_513_2218)">
<path d="M16.0575 9.185L9.3075 2.435C9.0375 2.165 8.6625 2 8.25 2H3C2.175 2 1.5 2.675 1.5 3.5V8.75C1.5 9.1625 1.665 9.5375 1.9425 9.815L8.6925 16.565C8.9625 16.835 9.3375 17 9.75 17C10.1625 17 10.5375 16.835 10.8075 16.5575L16.0575 11.3075C16.335 11.0375 16.5 10.6625 16.5 10.25C16.5 9.8375 16.3275 9.455 16.0575 9.185ZM9.75 15.5075L3 8.75V3.5H8.25V3.4925L15 10.2425L9.75 15.5075Z" fill="#4C75E0"/>
<path d="M4.875 6.5C5.49632 6.5 6 5.99632 6 5.375C6 4.75368 5.49632 4.25 4.875 4.25C4.25368 4.25 3.75 4.75368 3.75 5.375C3.75 5.99632 4.25368 6.5 4.875 6.5Z" fill="#4C75E0"/>
<path d="M6.67578 9.9125C6.67578 10.34 6.84828 10.715 7.12578 11L9.75078 13.625L12.3758 11C12.6533 10.7225 12.8258 10.3325 12.8258 9.9125C12.8258 9.065 12.1358 8.375 11.2883 8.375C10.8608 8.375 10.4783 8.5475 10.2008 8.825L9.75078 9.275L9.30078 8.8325C9.02328 8.5475 8.63328 8.375 8.21328 8.375C7.36578 8.375 6.67578 9.065 6.67578 9.9125Z" fill="#4C75E0"/>
</g>
<defs>
<clipPath id="clip0_513_2218">
<rect width="18" height="18" fill="white" transform="translate(0 0.5)"/>
</clipPath>
</defs>
</svg>
