<svg width="18" height="19" viewBox="0 0 18 19" fill="none" xmlns="http://www.w3.org/2000/svg">
<g clip-path="url(#clip0_513_1415)">
<path d="M8.85023 8.675C7.14773 8.2325 6.60023 7.775 6.60023 7.0625C6.60023 6.245 7.35773 5.675 8.62523 5.675C9.96023 5.675 10.4552 6.3125 10.5002 7.25H12.1577C12.1052 5.96 11.3177 4.775 9.75023 4.3925V2.75H7.50023V4.37C6.04523 4.685 4.87523 5.63 4.87523 7.0775C4.87523 8.81 6.30773 9.6725 8.40023 10.175C10.2752 10.625 10.6502 11.285 10.6502 11.9825C10.6502 12.5 10.2827 13.325 8.62523 13.325C7.08023 13.325 6.47273 12.635 6.39023 11.75H4.74023C4.83023 13.3925 6.06023 14.315 7.50023 14.6225V16.25H9.75023V14.6375C11.2127 14.36 12.3752 13.5125 12.3752 11.975C12.3752 9.845 10.5527 9.1175 8.85023 8.675Z" fill="#10BC17"/>
</g>
<defs>
<clipPath id="clip0_513_1415">
<rect width="18" height="18" fill="white" transform="translate(0 0.5)"/>
</clipPath>
</defs>
</svg>
