<svg width="24" height="24" viewBox="0 0 24 24" fill="none" xmlns="http://www.w3.org/2000/svg">
<g clip-path="url(#clip0_240_1877)">
<path d="M8.5 14H9.29L9.57 13.73C8.59 12.59 8 11.11 8 9.5C8 5.91 10.91 3 14.5 3C18.09 3 21 5.91 21 9.5C21 13.09 18.09 16 14.5 16C12.89 16 11.41 15.41 10.27 14.43L10 14.71V15.5L5 20.49L3.51 19L8.5 14ZM14.5 14C16.99 14 19 11.99 19 9.5C19 7.01 16.99 5 14.5 5C12.01 5 10 7.01 10 9.5C10 11.99 12.01 14 14.5 14Z" fill="#AFB0B2"/>
</g>
<defs>
<clipPath id="clip0_240_1877">
<rect width="24" height="24" fill="white" transform="matrix(-1 0 0 1 24 0)"/>
</clipPath>
</defs>
</svg>
