<svg width="378" height="365" viewBox="0 0 378 365" fill="none" xmlns="http://www.w3.org/2000/svg">
<g clip-path="url(#clip0_327_8868)">
<path d="M322.753 5.43555H257.777V90.0087H322.753V5.43555Z" fill="#E4EAFB"/>
<path d="M322.753 90.0098H324.861V5.43661H322.753V90.0098Z" fill="#E4EAFB"/>
<path opacity="0.05" d="M322.753 90.0098H324.861V5.43661H322.753V90.0098Z" fill="#2D2D2D"/>
<path opacity="0.05" d="M310.917 20.8418H269.613V74.603H310.917V20.8418Z" fill="#2D2D2D"/>
<path opacity="0.03" d="M310.916 20.8418H308.764V74.603H310.916V20.8418Z" fill="#2D2D2D"/>
<path d="M375.891 110.807H322.752V164.434H375.891V110.807Z" fill="#E4EAFB"/>
<path opacity="0.05" d="M366.213 120.576H332.434V154.666H366.213V120.576Z" fill="#2D2D2D"/>
<path d="M375.892 164.434H378V110.806H375.892V164.434Z" fill="#E4EAFB"/>
<path opacity="0.05" d="M375.892 164.434H378V110.806H375.892V164.434Z" fill="#2D2D2D"/>
<path opacity="0.03" d="M366.213 120.576H364.061V154.666H366.213V120.576Z" fill="#2D2D2D"/>
<path d="M184.069 0H7.05273V177.016H184.069V0Z" fill="#E4EAFB"/>
<path d="M186.097 0H184.068V177.016H186.097V0Z" fill="#E4EAFB"/>
<path opacity="0.05" d="M186.097 0H184.068V177.016H186.097V0Z" fill="#2D2D2D"/>
<path opacity="0.05" d="M141.185 121.979V75.666H103.247V102.573H44.4819V150.215H19.5059V177.017H44.4819H49.2937H175.553V121.979H141.185Z" fill="#2D2D2D"/>
<path opacity="0.34" d="M135.744 80.6934H108.117V85.7219H135.744V80.6934Z" fill="#FFFFFA"/>
<path opacity="0.34" d="M135.744 91.1133H108.117V96.1418H135.744V91.1133Z" fill="#FFFFFA"/>
<path opacity="0.34" d="M135.744 101.533H108.117V106.562H135.744V101.533Z" fill="#FFFFFA"/>
<path opacity="0.34" d="M170.654 126.859H165.562V131.888H170.654V126.859Z" fill="#FFFFFA"/>
<path opacity="0.34" d="M170.654 137.279H165.562V142.308H170.654V137.279Z" fill="#FFFFFA"/>
<path opacity="0.34" d="M170.654 147.699H165.562V152.728H170.654V147.699Z" fill="#FFFFFA"/>
<path opacity="0.34" d="M161.235 126.859H156.143V131.888H161.235V126.859Z" fill="#FFFFFA"/>
<path opacity="0.34" d="M161.235 137.279H156.143V142.308H161.235V137.279Z" fill="#FFFFFA"/>
<path opacity="0.34" d="M161.235 147.699H156.143V152.728H161.235V147.699Z" fill="#FFFFFA"/>
<path opacity="0.34" d="M152.069 126.859H146.977V131.888H152.069V126.859Z" fill="#FFFFFA"/>
<path opacity="0.34" d="M152.069 137.279H146.977V142.308H152.069V137.279Z" fill="#FFFFFA"/>
<path opacity="0.34" d="M152.069 147.699H146.977V152.728H152.069V147.699Z" fill="#FFFFFA"/>
<path d="M184.069 87.5153H148.45V0H145.505V87.5153H49.2951V0H46.3492V87.5153H7.05273V90.4612H46.3492V177.016H49.2951V90.4612H145.505V177.016H148.45V90.4612H184.069V87.5153Z" fill="white"/>
<path d="M191.12 176.803H0V182.69H191.12V176.803Z" fill="#E4EAFB"/>
<path opacity="0.1" d="M191.12 176.803H0V182.69H191.12V176.803Z" fill="#2D2D2D"/>
<path opacity="0.1" d="M193.88 176.803H191.121V182.69H193.88V176.803Z" fill="#2D2D2D"/>
<path opacity="0.1" d="M193.88 176.803H191.121V182.69H193.88V176.803Z" fill="#2D2D2D"/>
<path opacity="0.05" d="M284.562 356.805H274.729V363.372H284.562V356.805Z" fill="#2D2D2D"/>
<path opacity="0.05" d="M346.29 356.805H336.457V363.372H346.29V356.805Z" fill="#2D2D2D"/>
<path d="M355.303 256.752H265.715V356.805H355.303V256.752Z" fill="#E4EAFB"/>
<path opacity="0.03" d="M355.303 256.752H265.715V356.805H355.303V256.752Z" fill="#2D2D2D"/>
<path d="M331.51 256.752H241.922V356.805H331.51V256.752Z" fill="#E4EAFB"/>
<path opacity="0.05" d="M260.769 356.805H250.936V363.372H260.769V356.805Z" fill="#2D2D2D"/>
<path opacity="0.05" d="M322.497 356.805H312.664V363.372H322.497V356.805Z" fill="#2D2D2D"/>
<path opacity="0.7" d="M326.689 262.938H246.74V288.313H326.689V262.938Z" fill="white"/>
<path opacity="0.7" d="M326.689 294.525H246.74V319.901H326.689V294.525Z" fill="white"/>
<path opacity="0.7" d="M326.689 326.111H246.74V351.487H326.689V326.111Z" fill="white"/>
<path opacity="0.05" d="M286.717 279.178C288.678 279.178 290.268 277.588 290.268 275.627C290.268 273.666 288.678 272.076 286.717 272.076C284.756 272.076 283.166 273.666 283.166 275.627C283.166 277.588 284.756 279.178 286.717 279.178Z" fill="#2D2D2D"/>
<path opacity="0.05" d="M286.717 310.764C288.678 310.764 290.268 309.174 290.268 307.213C290.268 305.252 288.678 303.662 286.717 303.662C284.756 303.662 283.166 305.252 283.166 307.213C283.166 309.174 284.756 310.764 286.717 310.764Z" fill="#2D2D2D"/>
<path opacity="0.05" d="M286.717 342.352C288.678 342.352 290.268 340.762 290.268 338.801C290.268 336.84 288.678 335.25 286.717 335.25C284.756 335.25 283.166 336.84 283.166 338.801C283.166 340.762 284.756 342.352 286.717 342.352Z" fill="#2D2D2D"/>
<path d="M42.1073 314.768C42.0577 314.768 42.0085 314.758 41.9627 314.739C41.9169 314.72 41.8753 314.692 41.8403 314.657C41.3082 314.125 40.4408 304.363 38.1048 275.299C37.149 263.407 36.2461 252.174 35.5871 245.348C35.5403 244.86 35.3511 244.804 35.2892 244.785C34.387 244.513 31.6443 246.675 30.113 248.57C30.05 248.648 29.9586 248.697 29.859 248.708C29.7594 248.718 29.6596 248.689 29.5817 248.626C29.5038 248.563 29.4541 248.472 29.4435 248.372C29.433 248.272 29.4624 248.173 29.5254 248.095C30.5382 246.842 33.8387 243.56 35.5063 244.062C35.8424 244.162 36.2616 244.455 36.3371 245.275C36.9968 252.108 37.8997 263.343 38.8559 275.239C40.2754 292.901 41.8833 312.91 42.412 314.17C42.4525 314.226 42.4767 314.293 42.4818 314.362C42.4869 314.431 42.4729 314.501 42.4412 314.562C42.4095 314.624 42.3614 314.676 42.3022 314.712C42.2429 314.749 42.1748 314.768 42.1054 314.768H42.1073Z" fill="#4F5258"/>
<path d="M34.6161 257.875C40.8824 252.852 42.9593 245.033 39.255 240.412C35.5507 235.791 27.4679 236.117 21.2016 241.14C14.9353 246.162 12.8584 253.981 16.5627 258.602C20.267 263.223 28.3498 262.898 34.6161 257.875Z" fill="#10BC17"/>
<path opacity="0.2" d="M34.6161 257.875C40.8824 252.852 42.9593 245.033 39.255 240.412C35.5507 235.791 27.4679 236.117 21.2016 241.14C14.9353 246.162 12.8584 253.981 16.5627 258.602C20.267 263.223 28.3498 262.898 34.6161 257.875Z" fill="white"/>
<path d="M18.3197 259.777C18.2838 259.777 18.2487 259.766 18.2185 259.747C18.1882 259.728 18.164 259.701 18.1488 259.668C18.1336 259.636 18.1278 259.6 18.1324 259.564C18.1369 259.529 18.1514 259.495 18.1743 259.467L36.0328 237.932C36.0486 237.912 36.0681 237.897 36.09 237.885C36.1119 237.874 36.136 237.866 36.1607 237.864C36.1854 237.862 36.2103 237.864 36.234 237.872C36.2577 237.879 36.2797 237.891 36.2988 237.907C36.3179 237.923 36.3337 237.942 36.3453 237.964C36.3568 237.986 36.364 238.01 36.3663 238.035C36.3686 238.059 36.366 238.084 36.3586 238.108C36.3513 238.132 36.3394 238.154 36.3235 238.173L18.4651 259.708C18.4473 259.73 18.4251 259.747 18.4 259.759C18.3749 259.771 18.3474 259.777 18.3197 259.777Z" fill="white"/>
<path d="M46.0005 310.152C45.9583 310.152 45.9164 310.145 45.8766 310.13C45.782 310.098 45.7044 310.028 45.6608 309.938C45.6171 309.848 45.6111 309.744 45.644 309.65L52.3522 290.358C52.5497 289.791 52.8863 289.283 53.3311 288.88C53.7759 288.477 54.3147 288.192 54.8982 288.051C55.4816 287.91 56.0911 287.918 56.6708 288.074C57.2504 288.23 57.7817 288.528 58.216 288.943L61.7627 292.33C61.8352 292.4 61.8772 292.495 61.8795 292.595C61.8818 292.695 61.8442 292.792 61.775 292.865C61.7058 292.937 61.6107 292.979 61.5105 292.981C61.4103 292.984 61.3133 292.946 61.2409 292.877L57.6945 289.489C57.3517 289.162 56.9322 288.926 56.4746 288.803C56.0169 288.68 55.5358 288.674 55.0751 288.785C54.6145 288.896 54.1891 289.121 53.838 289.439C53.4868 289.758 53.2211 290.159 53.0652 290.606L46.3573 309.898C46.3316 309.972 46.2834 310.037 46.2195 310.082C46.1555 310.128 46.079 310.152 46.0005 310.152Z" fill="#4F5258"/>
<path d="M71.6695 303.009C76.3134 299.333 76.0374 291.249 71.0531 284.952C66.0687 278.655 58.2634 276.53 53.6195 280.206C48.9756 283.881 49.2516 291.966 54.2359 298.263C59.2203 304.56 67.0256 306.685 71.6695 303.009Z" fill="#10BC17"/>
<path d="M39.0574 313.537C38.9725 313.537 38.8902 313.508 38.8236 313.456C38.757 313.403 38.7101 313.33 38.6903 313.247L27.4328 266.178C27.3558 265.857 27.1918 265.564 26.9589 265.33C26.7261 265.096 26.4333 264.931 26.1128 264.853C25.7923 264.775 25.4565 264.787 25.1423 264.888C24.828 264.988 24.5476 265.173 24.3317 265.422L20.8613 269.432C20.8293 269.471 20.7899 269.504 20.7452 269.527C20.7006 269.551 20.6517 269.565 20.6014 269.57C20.5512 269.574 20.5005 269.568 20.4525 269.552C20.4045 269.537 20.3601 269.512 20.322 269.479C20.2838 269.446 20.2527 269.406 20.2303 269.36C20.208 269.315 20.195 269.266 20.1921 269.215C20.1891 269.165 20.1963 269.115 20.2131 269.067C20.23 269.019 20.2563 268.976 20.2903 268.939L23.7603 264.928C24.0671 264.574 24.4657 264.311 24.9123 264.168C25.359 264.025 25.8363 264.008 26.2919 264.119C26.7474 264.23 27.1636 264.465 27.4945 264.797C27.8254 265.129 28.0584 265.546 28.1677 266.002L39.4244 313.072C39.4477 313.169 39.4313 313.272 39.3789 313.357C39.3265 313.442 39.2424 313.503 39.145 313.527C39.1163 313.534 39.0869 313.537 39.0574 313.537Z" fill="#4F5258"/>
<path d="M34.905 279.89C36.2735 271.977 32.6518 264.744 26.8157 263.734C20.9797 262.725 15.1393 268.322 13.7708 276.236C12.4023 284.149 16.024 291.383 21.8601 292.392C27.6961 293.401 33.5365 287.804 34.905 279.89Z" fill="#10BC17"/>
<path d="M42.1067 314.767C42.0912 314.767 42.0757 314.766 42.0603 314.764C42.011 314.758 41.9634 314.742 41.9202 314.718C41.8771 314.694 41.8391 314.661 41.8086 314.622C41.778 314.583 41.7555 314.538 41.7422 314.49C41.729 314.442 41.7253 314.392 41.7314 314.343L48.9199 255.977C48.9983 255.342 49.2587 254.742 49.6696 254.251C50.0806 253.759 50.6248 253.397 51.2367 253.207C51.8486 253.018 52.5022 253.009 53.119 253.182C53.7358 253.355 54.2895 253.703 54.7135 254.183L62.93 263.489C62.9628 263.526 62.988 263.569 63.0041 263.616C63.0202 263.663 63.0269 263.713 63.0238 263.762C63.0207 263.812 63.0079 263.86 62.9861 263.905C62.9643 263.949 62.9339 263.989 62.8967 264.022C62.8595 264.055 62.8162 264.08 62.7693 264.096C62.7224 264.112 62.6728 264.119 62.6232 264.116C62.5737 264.113 62.5253 264.1 62.4807 264.078C62.4362 264.056 62.3964 264.026 62.3635 263.989L54.1471 254.683C53.8194 254.312 53.3914 254.043 52.9147 253.909C52.438 253.776 51.9328 253.782 51.4599 253.929C50.9869 254.075 50.5664 254.355 50.2488 254.735C49.9311 255.115 49.73 255.578 49.6695 256.07L42.4809 314.435C42.4697 314.527 42.4255 314.611 42.3566 314.672C42.2876 314.733 42.1988 314.767 42.1067 314.767Z" fill="#4F5258"/>
<path d="M71.3564 268.662C74.2232 263.479 70.8502 256.127 63.8227 252.239C56.7952 248.352 48.7743 249.402 45.9075 254.585C43.0408 259.767 46.4137 267.12 53.4413 271.007C60.4688 274.894 68.4897 273.844 71.3564 268.662Z" fill="#10BC17"/>
<path opacity="0.2" d="M71.6695 303.009C76.3134 299.333 76.0374 291.249 71.0531 284.952C66.0687 278.655 58.2634 276.53 53.6195 280.206C48.9756 283.881 49.2516 291.966 54.2359 298.263C59.2203 304.56 67.0256 306.685 71.6695 303.009Z" fill="white"/>
<path opacity="0.5" d="M34.905 279.89C36.2735 271.977 32.6518 264.744 26.8157 263.734C20.9797 262.725 15.1393 268.322 13.7708 276.236C12.4023 284.149 16.024 291.383 21.8601 292.392C27.6961 293.401 33.5365 287.804 34.905 279.89Z" fill="white"/>
<path opacity="0.5" d="M71.3564 268.662C74.2232 263.479 70.8502 256.127 63.8227 252.239C56.7952 248.352 48.7743 249.402 45.9075 254.585C43.0408 259.767 46.4137 267.12 53.4413 271.007C60.4688 274.894 68.4897 273.844 71.3564 268.662Z" fill="white"/>
<path d="M51.2998 364.291H32.9108L29.8633 305.455H54.3469L51.2998 364.291Z" fill="#2D2D2D"/>
<path opacity="0.3" d="M51.2998 364.291H32.9108L29.8633 305.455H54.3469L51.2998 364.291Z" fill="white"/>
<path d="M71.6712 303.199C71.6427 303.199 71.6146 303.192 71.5889 303.18C71.5633 303.168 71.5408 303.15 71.5231 303.127L53.4725 280.324C53.4571 280.304 53.4456 280.282 53.4388 280.258C53.4321 280.234 53.43 280.209 53.4329 280.185C53.4358 280.16 53.4434 280.136 53.4555 280.115C53.4676 280.093 53.4838 280.074 53.5032 280.058C53.5227 280.043 53.5449 280.032 53.5688 280.025C53.5927 280.018 53.6176 280.016 53.6422 280.019C53.6669 280.022 53.6907 280.029 53.7124 280.041C53.734 280.053 53.7531 280.07 53.7685 280.089L71.8192 302.893C71.8413 302.921 71.8551 302.954 71.859 302.989C71.8629 303.025 71.8568 303.06 71.8414 303.092C71.8259 303.124 71.8017 303.151 71.7716 303.17C71.7415 303.189 71.7067 303.199 71.6712 303.199Z" fill="white"/>
<path d="M70.1561 270.489C70.1159 270.489 70.0769 270.475 70.0447 270.451L46.9466 253.586C46.9062 253.556 46.8791 253.512 46.8714 253.462C46.8637 253.413 46.8759 253.362 46.9055 253.322C46.935 253.281 46.9794 253.254 47.0289 253.246C47.0784 253.239 47.129 253.251 47.1694 253.28L70.2675 270.147C70.2992 270.17 70.3227 270.203 70.3345 270.241C70.3463 270.279 70.3459 270.32 70.3334 270.357C70.3208 270.395 70.2968 270.428 70.2646 270.451C70.2325 270.474 70.1939 270.486 70.1542 270.486L70.1561 270.489Z" fill="white"/>
<path d="M20.9219 292.144C20.9055 292.144 20.8891 292.142 20.8732 292.138C20.8252 292.125 20.7844 292.093 20.7595 292.05C20.7347 292.007 20.7279 291.956 20.7407 291.908L28.0935 264.358C28.0995 264.334 28.1104 264.311 28.1254 264.291C28.1404 264.271 28.1592 264.254 28.1808 264.241C28.2024 264.228 28.2263 264.22 28.2511 264.217C28.2759 264.213 28.3012 264.215 28.3254 264.221C28.3496 264.228 28.3723 264.239 28.3921 264.254C28.412 264.27 28.4285 264.289 28.4409 264.31C28.4533 264.332 28.4612 264.356 28.4642 264.381C28.4671 264.406 28.4651 264.431 28.4583 264.455L21.1054 292.004C21.0947 292.045 21.0708 292.08 21.0376 292.106C21.0044 292.131 20.9637 292.145 20.9219 292.144Z" fill="white"/>
<path d="M280.262 20.7832H63.2429C56.9862 20.7832 51.9141 25.8553 51.9141 32.1121V271.52C51.9141 277.777 56.9862 282.849 63.2429 282.849H280.262C286.519 282.849 291.591 277.777 291.591 271.52V32.1121C291.591 25.8553 286.519 20.7832 280.262 20.7832Z" fill="white"/>
<path d="M280.048 282.907H63.0268C59.9232 282.903 56.9477 281.669 54.7531 279.474C52.5584 277.279 51.3239 274.304 51.3203 271.2V31.7925C51.3239 28.6888 52.5584 25.7133 54.7531 23.5187C56.9477 21.3241 59.9232 20.0895 63.0268 20.0859H280.048C283.151 20.0894 286.127 21.3239 288.321 23.5186C290.516 25.7132 291.751 28.6888 291.754 31.7925V271.2C291.751 274.304 290.516 277.279 288.321 279.474C286.127 281.669 283.151 282.903 280.048 282.907ZM63.0268 20.8412C60.1234 20.8446 57.3399 21.9995 55.2869 24.0525C53.2339 26.1055 52.079 28.889 52.0756 31.7925V271.2C52.0789 274.104 53.2337 276.887 55.2868 278.94C57.3398 280.993 60.1234 282.148 63.0268 282.151H280.048C282.951 282.148 285.735 280.993 287.788 278.94C289.841 276.887 290.995 274.104 290.999 271.2V31.7925C290.995 28.889 289.84 26.1055 287.787 24.0525C285.734 21.9995 282.951 20.8446 280.048 20.8412H63.0268Z" fill="#2D2D2D"/>
<path d="M291.377 31.7918V40.5483H51.7012V31.7918C51.7012 28.7872 52.8948 25.9056 55.0193 23.781C57.1439 21.6565 60.0254 20.4629 63.0301 20.4629H280.048C283.052 20.4629 285.934 21.6565 288.058 23.781C290.183 25.9056 291.377 28.7872 291.377 31.7918Z" fill="#2D2D2D"/>
<path opacity="0.1" d="M91.6621 110.094C106.959 110.094 119.359 97.6932 119.359 82.3965C119.359 67.0997 106.959 54.6992 91.6621 54.6992C76.3653 54.6992 63.9648 67.0997 63.9648 82.3965C63.9648 97.6932 76.3653 110.094 91.6621 110.094Z" fill="#4C75E0"/>
<path opacity="0.2" d="M91.6611 81.2051C96.9742 81.2051 101.281 76.898 101.281 71.585C101.281 66.2719 96.9742 61.9648 91.6611 61.9648C86.3481 61.9648 82.041 66.2719 82.041 71.585C82.041 76.898 86.3481 81.2051 91.6611 81.2051Z" fill="#4C75E0"/>
<path opacity="0.2" d="M112.485 100.66C109.885 103.624 106.683 105.999 103.092 107.626C99.5009 109.253 95.6038 110.094 91.6615 110.094C87.7191 110.093 83.8223 109.251 80.2315 107.624C76.6407 105.996 73.4388 103.621 70.8398 100.657C72.1712 96.1671 74.9181 92.2281 78.6707 89.4271C82.4234 86.626 86.9809 85.1129 91.6637 85.1133C96.3466 85.1137 100.904 86.6277 104.656 89.4294C108.408 92.2312 111.154 96.1707 112.485 100.66Z" fill="#4C75E0"/>
<path opacity="0.2" d="M104.745 128.988H67.2031C65.8483 128.988 64.75 130.087 64.75 131.441C64.75 132.796 65.8483 133.894 67.2031 133.894H104.745C106.1 133.894 107.198 132.796 107.198 131.441C107.198 130.087 106.1 128.988 104.745 128.988Z" fill="#4C75E0"/>
<path opacity="0.1" d="M193.95 56.5605H134.941C132.737 56.5605 130.951 58.3468 130.951 60.5502V68.8252C130.951 71.0286 132.737 72.8149 134.941 72.8149H193.95C196.153 72.8149 197.939 71.0286 197.939 68.8252V60.5502C197.939 58.3468 196.153 56.5605 193.95 56.5605Z" fill="#4C75E0"/>
<path opacity="0.2" d="M221.286 81.8008H132.839C131.797 81.8008 130.951 82.6461 130.951 83.6889C130.951 84.7317 131.797 85.5771 132.839 85.5771H221.286C222.329 85.5771 223.174 84.7317 223.174 83.6889C223.174 82.6461 222.329 81.8008 221.286 81.8008Z" fill="#4C75E0"/>
<path opacity="0.2" d="M221.286 93.1289H132.839C131.797 93.1289 130.951 93.9743 130.951 95.0171C130.951 96.0598 131.797 96.9052 132.839 96.9052H221.286C222.329 96.9052 223.174 96.0598 223.174 95.0171C223.174 93.9743 222.329 93.1289 221.286 93.1289Z" fill="#4C75E0"/>
<path opacity="0.2" d="M206.181 104.457H132.839C131.797 104.457 130.951 105.302 130.951 106.345C130.951 107.388 131.797 108.233 132.839 108.233H206.181C207.223 108.233 208.069 107.388 208.069 106.345C208.069 105.302 207.223 104.457 206.181 104.457Z" fill="#4C75E0"/>
<path opacity="0.1" d="M160.497 140.971H68.2963C66.3377 140.971 64.75 142.558 64.75 144.517V153.279C64.75 155.237 66.3377 156.825 68.2963 156.825H160.497C162.455 156.825 164.043 155.237 164.043 153.279V144.517C164.043 142.558 162.455 140.971 160.497 140.971Z" fill="#4C75E0"/>
<path opacity="0.2" d="M217.792 128.988H180.25C178.895 128.988 177.797 130.087 177.797 131.441C177.797 132.796 178.895 133.894 180.25 133.894H217.792C219.146 133.894 220.245 132.796 220.245 131.441C220.245 130.087 219.146 128.988 217.792 128.988Z" fill="#4C75E0"/>
<path opacity="0.1" d="M273.544 140.971H181.343C179.385 140.971 177.797 142.558 177.797 144.517V153.279C177.797 155.237 179.385 156.825 181.343 156.825H273.544C275.502 156.825 277.09 155.237 277.09 153.279V144.517C277.09 142.558 275.502 140.971 273.544 140.971Z" fill="#4C75E0"/>
<path opacity="0.2" d="M104.745 169.934H67.2031C65.8483 169.934 64.75 171.032 64.75 172.387C64.75 173.741 65.8483 174.84 67.2031 174.84H104.745C106.1 174.84 107.198 173.741 107.198 172.387C107.198 171.032 106.1 169.934 104.745 169.934Z" fill="#4C75E0"/>
<path opacity="0.1" d="M160.497 181.916H68.2963C66.3377 181.916 64.75 183.504 64.75 185.462V194.224C64.75 196.183 66.3377 197.77 68.2963 197.77H160.497C162.455 197.77 164.043 196.183 164.043 194.224V185.462C164.043 183.504 162.455 181.916 160.497 181.916Z" fill="#4C75E0"/>
<path opacity="0.2" d="M217.792 169.934H180.25C178.895 169.934 177.797 171.032 177.797 172.387C177.797 173.741 178.895 174.84 180.25 174.84H217.792C219.146 174.84 220.245 173.741 220.245 172.387C220.245 171.032 219.146 169.934 217.792 169.934Z" fill="#4C75E0"/>
<path opacity="0.1" d="M273.544 181.916H181.343C179.385 181.916 177.797 183.504 177.797 185.462V194.224C177.797 196.183 179.385 197.77 181.343 197.77H273.544C275.502 197.77 277.09 196.183 277.09 194.224V185.462C277.09 183.504 275.502 181.916 273.544 181.916Z" fill="#4C75E0"/>
<path opacity="0.2" d="M104.745 210.879H67.2031C65.8483 210.879 64.75 211.977 64.75 213.332C64.75 214.687 65.8483 215.785 67.2031 215.785H104.745C106.1 215.785 107.198 214.687 107.198 213.332C107.198 211.977 106.1 210.879 104.745 210.879Z" fill="#4C75E0"/>
<path opacity="0.1" d="M160.497 222.861H68.2963C66.3377 222.861 64.75 224.449 64.75 226.408V235.169C64.75 237.128 66.3377 238.716 68.2963 238.716H160.497C162.455 238.716 164.043 237.128 164.043 235.169V226.408C164.043 224.449 162.455 222.861 160.497 222.861Z" fill="#4C75E0"/>
<path opacity="0.2" d="M217.792 210.879H180.25C178.895 210.879 177.797 211.977 177.797 213.332C177.797 214.687 178.895 215.785 180.25 215.785H217.792C219.146 215.785 220.245 214.687 220.245 213.332C220.245 211.977 219.146 210.879 217.792 210.879Z" fill="#4C75E0"/>
<path opacity="0.1" d="M273.544 222.861H181.343C179.385 222.861 177.797 224.449 177.797 226.408V235.169C177.797 237.128 179.385 238.716 181.343 238.716H273.544C275.502 238.716 277.09 237.128 277.09 235.169V226.408C277.09 224.449 275.502 222.861 273.544 222.861Z" fill="#4C75E0"/>
<path opacity="0.2" d="M200.353 251.068H142.722C140.397 251.068 138.512 252.953 138.512 255.279V263.052C138.512 265.377 140.397 267.263 142.722 267.263H200.353C202.679 267.263 204.564 265.377 204.564 263.052V255.279C204.564 252.953 202.679 251.068 200.353 251.068Z" fill="#4C75E0"/>
<path d="M181.59 67.7044L187.693 74.9119L187.315 73.6744C187.201 73.2725 187.244 72.8423 187.435 72.4708C187.626 72.0992 187.951 71.8141 188.344 71.673C188.549 71.6072 188.766 71.5839 188.981 71.6047C189.196 71.6254 189.404 71.6896 189.593 71.7935C189.782 71.8973 189.948 72.0386 190.081 72.2087C190.213 72.3788 190.31 72.5741 190.365 72.7828L193.155 83.2881C193.507 84.6142 193.327 86.0254 192.653 87.2207C191.98 88.416 190.865 89.3008 189.549 89.6863C188.02 90.1338 186.392 90.1145 184.874 89.631C183.356 89.1474 182.018 88.2216 181.029 86.9722L176.562 81.3036C176.324 81.0137 176.194 80.6504 176.193 80.2753C176.193 79.9003 176.322 79.5365 176.558 79.2456C176.777 78.987 177.074 78.8054 177.404 78.7273C177.733 78.6492 178.08 78.6786 178.392 78.8113C178.398 78.7864 178.411 78.7636 178.429 78.7456C178.448 78.7296 178.47 78.7184 178.493 78.713C178.517 78.7076 178.542 78.7082 178.565 78.7146L177.738 77.6686C177.484 77.362 177.35 76.974 177.36 76.5763C177.37 76.1786 177.524 75.7979 177.793 75.5048C178.069 75.2234 178.439 75.0543 178.832 75.0305C179.225 75.0066 179.613 75.1296 179.92 75.3756C179.922 75.359 179.927 75.3428 179.935 75.328L179.595 74.899C179.374 74.6052 179.252 74.2478 179.249 73.8797C179.247 73.5116 179.362 73.1523 179.579 72.8549C179.845 72.535 180.225 72.3316 180.638 72.2885C181.052 72.2454 181.466 72.3659 181.791 72.6242L181.813 72.6027L179.249 69.5745C179.117 69.4192 179.019 69.2387 178.959 69.0441C178.9 68.8495 178.881 68.6448 178.903 68.4425C178.925 68.2403 178.989 68.0447 179.089 67.8676C179.189 67.6906 179.325 67.5359 179.487 67.4129C179.809 67.1858 180.205 67.0895 180.596 67.1436C180.986 67.1978 181.342 67.3982 181.59 67.7044Z" fill="#E09958"/>
<path opacity="0.2" d="M181.728 72.7949C181.735 72.8112 181.744 72.8263 181.755 72.8395L184.282 75.7533C184.295 75.7681 184.31 75.7803 184.328 75.7892C184.345 75.798 184.364 75.8033 184.384 75.8048C184.404 75.8062 184.423 75.8038 184.442 75.7977C184.461 75.7915 184.478 75.7817 184.493 75.7689C184.508 75.7561 184.52 75.7405 184.529 75.7229C184.538 75.7054 184.543 75.6863 184.544 75.6667C184.546 75.6471 184.543 75.6275 184.537 75.6088C184.531 75.5902 184.521 75.5729 184.508 75.558L181.984 72.6454C181.96 72.621 181.929 72.6053 181.895 72.6009C181.861 72.5965 181.827 72.6036 181.798 72.6211C181.769 72.6385 181.746 72.6654 181.734 72.6972C181.722 72.729 181.721 72.764 181.732 72.7964L181.728 72.7949Z" fill="#2D2D2D"/>
<path opacity="0.2" d="M179.925 75.4449C179.931 75.4607 179.94 75.4754 179.951 75.4883L181.917 77.7919C181.944 77.8194 181.979 77.8359 182.017 77.8378C182.056 77.8398 182.093 77.8271 182.122 77.8023C182.151 77.7776 182.169 77.7427 182.173 77.7048C182.177 77.6669 182.167 77.6289 182.144 77.5985L180.177 75.295C180.154 75.268 180.123 75.25 180.088 75.2442C180.053 75.2384 180.017 75.2452 179.987 75.2633C179.956 75.2815 179.933 75.3098 179.922 75.3433C179.911 75.3767 179.911 75.4131 179.924 75.446L179.925 75.4449Z" fill="#2D2D2D"/>
<path opacity="0.2" d="M178.39 78.9118C178.396 78.9289 178.406 78.9446 178.418 78.9583L179.374 80.0247C179.387 80.0393 179.403 80.0511 179.421 80.0596C179.438 80.0681 179.457 80.073 179.477 80.0741C179.496 80.0752 179.516 80.0724 179.534 80.066C179.553 80.0595 179.57 80.0494 179.584 80.0364C179.599 80.0234 179.611 80.0076 179.619 79.9899C179.628 79.9723 179.633 79.9532 179.634 79.9336C179.635 79.9141 179.632 79.8946 179.626 79.8761C179.619 79.8576 179.609 79.8406 179.596 79.8261L178.642 78.7593C178.619 78.7339 178.587 78.7174 178.553 78.7125C178.519 78.7076 178.484 78.7146 178.455 78.7324C178.425 78.7502 178.403 78.7776 178.391 78.81C178.38 78.8425 178.38 78.8779 178.392 78.9103L178.39 78.9118Z" fill="#2D2D2D"/>
<path d="M255.509 139.994L202.23 136.265C200.308 136.131 198.463 135.454 196.91 134.314C195.356 133.175 194.158 131.618 193.453 129.824L176.607 86.9722L195.585 79.5117L210.074 116.373L256.931 119.652L255.509 139.994Z" fill="#4C75E0"/>
<path d="M286.443 347.119C286.443 347.119 284.738 355.956 276.463 356.45C268.188 356.944 269.983 363.535 269.983 363.535H301.605V347.735L286.443 347.119Z" fill="#4C75E0"/>
<path d="M296.198 185.898C296.198 185.898 296.099 183.241 296.12 189.268C296.198 211.748 296.588 237.425 297.541 252.451C299.073 276.605 303.002 352.76 303.002 352.76L282.222 352.585L262.082 184.984L296.198 185.898Z" fill="#262626"/>
<path d="M249.451 347.119C249.451 347.119 247.746 355.956 239.471 356.45C231.196 356.944 232.99 363.535 232.99 363.535H264.613V347.735L249.451 347.119Z" fill="#4C75E0"/>
<path d="M239.389 187.643C239.389 187.643 237.548 264.474 237.818 268.229L245.546 352.176L265.982 352.554L263.99 265.191C263.99 265.191 265.395 241.092 271.217 218.715C274.197 207.23 275.99 195.47 276.568 183.619L239.389 187.643Z" fill="#262626"/>
<path d="M296.424 185.896L296.492 185.9C296.492 185.9 296.443 184.59 296.424 185.896Z" fill="#333333"/>
<path d="M236.465 144.997C236.894 150.032 238.978 181.442 239.39 187.643H296.174C296.495 182.05 297.936 157.593 299.152 146.656C300.313 136.219 302.591 130.993 300.922 127.908C298.193 122.865 290.736 119.951 285.652 119.263C282.547 118.842 277.877 118.541 277.877 118.541C277.877 118.541 277.482 126.54 268.054 126.985C255.22 127.589 256.077 118.541 256.014 118.541C253.935 118.541 241.828 119.519 239.152 121.579C234.47 125.184 235.555 134.328 236.465 144.997Z" fill="#4C75E0"/>
<path d="M235.68 138.689C235.632 138.689 235.586 138.67 235.551 138.637C235.516 138.604 235.494 138.559 235.492 138.511L235.035 130.516C235.033 130.466 235.05 130.417 235.083 130.38C235.116 130.342 235.163 130.32 235.213 130.317C235.263 130.314 235.312 130.332 235.349 130.365C235.386 130.398 235.409 130.445 235.412 130.494L235.87 138.489C235.873 138.539 235.856 138.588 235.823 138.625C235.79 138.663 235.743 138.685 235.693 138.688L235.68 138.689Z" fill="#2D2D2D"/>
<path d="M308.453 187.316C310.124 187.316 311.769 186.912 313.25 186.139C314.73 185.366 316.002 184.247 316.957 182.877C317.912 181.506 318.522 179.926 318.735 178.269C318.948 176.613 318.757 174.929 318.179 173.362C317.593 171.771 303.84 135.351 301.221 128.604L281.834 136.458C283.307 140.253 288.64 154.634 292.925 166.22L285.806 165.446L283.565 186.059L307.332 187.255C307.704 187.295 308.079 187.316 308.453 187.316Z" fill="#4C75E0"/>
<path d="M249.25 117.853C249.314 117.845 251.055 124.4 264.649 123.38C274.059 122.675 276.355 116.269 276.57 116.269C275.555 116.053 273.908 115.829 273.457 115.589C271.975 114.793 270.896 113.824 270.352 111.744C269.927 110.117 269.71 103.855 269.71 100.713L255.229 103.967C255.431 107.511 256.844 115.727 251.892 117.182C251.069 117.422 250.182 117.643 249.25 117.853Z" fill="#E09958"/>
<path d="M255.731 110.933C261.44 111.384 268.773 108.973 270.166 101.357L271.423 94.484C272.816 86.8676 269.945 79.9615 262.775 78.65C255.604 77.3385 249.114 82.5324 247.722 90.1488L247.165 93.1913C246.63 96.1142 245.545 110.13 255.731 110.933Z" fill="#E09958"/>
<path d="M250.438 103.941C251.463 98.7922 251.933 95.3569 251.878 91.7328C250.434 89.2027 250.814 86.2949 251.142 85.0397C250.148 85.6712 248.98 85.9709 247.805 85.8958C247.805 85.8958 250.191 76.3161 258.303 73.7384C259.794 73.1576 263.604 72.4242 268.661 73.1179C272.963 73.7078 283.567 76.9244 285.082 88.8624V88.8692C285.132 89.265 286.15 100.264 288.178 105.542C290.907 112.636 294.738 114.84 294.641 123.026C294.516 133.555 275.159 134.956 263.486 134.169C251.813 133.381 245.294 129.542 245.209 121.954C245.12 113.453 248.388 114.242 250.438 103.941Z" fill="#0A0A0A"/>
<path d="M297.387 146.868L295.992 187.639L296.37 187.652L297.765 146.881L297.387 146.868Z" fill="#2D2D2D"/>
<path d="M22.8413 364.291H357.086C357.124 364.292 357.161 364.286 357.196 364.273C357.231 364.259 357.263 364.239 357.29 364.213C357.317 364.187 357.338 364.156 357.353 364.122C357.368 364.087 357.375 364.05 357.375 364.013C357.375 363.975 357.368 363.938 357.353 363.904C357.338 363.869 357.317 363.838 357.29 363.812C357.263 363.786 357.231 363.766 357.196 363.753C357.161 363.739 357.124 363.733 357.086 363.735H22.8413C22.8039 363.733 22.7666 363.739 22.7317 363.753C22.6967 363.766 22.6648 363.786 22.6379 363.812C22.611 363.838 22.5895 363.869 22.5749 363.904C22.5603 363.938 22.5527 363.975 22.5527 364.013C22.5527 364.05 22.5603 364.087 22.5749 364.122C22.5895 364.156 22.611 364.187 22.6379 364.213C22.6648 364.239 22.6967 364.259 22.7317 364.273C22.7666 364.286 22.8039 364.292 22.8413 364.291Z" fill="#2D2D2D"/>
<path d="M272.734 212.406C272.734 212.406 271.873 228.72 271.714 232.55C271.345 241.407 271.217 250.577 271.217 260.975L267.941 233.718C267.941 233.718 270.337 225.175 272.734 212.406Z" fill="#0A0A0A"/>
</g>
<defs>
<clipPath id="clip0_327_8868">
<rect width="378" height="364.291" fill="white"/>
</clipPath>
</defs>
</svg>
