<svg width="120" height="120" viewBox="0 0 120 120" fill="none" xmlns="http://www.w3.org/2000/svg">
<mask id="mask0_305_5969" style="mask-type:luminance" maskUnits="userSpaceOnUse" x="40" y="44" width="17" height="27">
<path d="M56.5216 45.9511L43.0625 44.4961L40.3671 69.429L53.8262 70.8839L56.5216 45.9511Z" fill="white"/>
</mask>
<g mask="url(#mask0_305_5969)">
<path d="M56.5216 45.9511L43.0625 44.4961L40.3671 69.429L53.8262 70.8839L56.5216 45.9511Z" fill="#834A27"/>
<path d="M43.1094 49.0859C43.2674 51.3371 43.9436 53.5213 45.0852 55.468C48.6008 61.4023 55.2617 62.5953 56.3891 62.7805L57.2234 55.0648L43.1094 49.0859Z" fill="#6E3D1E"/>
</g>
<path d="M67.3034 41.8163C67.2541 38.8679 66.7479 37.021 66.776 35.0991C66.8534 30.346 67.7557 26.807 64.7393 23.2374C63.8396 21.9285 62.7549 20.757 61.519 19.7593C57.0659 15.6952 49.0385 14.7296 43.1744 18.2124C36.4198 22.2249 35.6229 30.2968 35.426 32.3007C34.5049 41.6593 40.3221 48.6366 42.9073 51.2499C44.2822 52.8842 45.8679 54.3289 47.6229 55.546C49.5846 56.8749 54.8369 60.4351 59.133 58.2835C60.2557 57.721 61.8799 56.1741 64.008 52.3913C66.7596 47.4905 67.3549 44.7648 67.3034 41.8163Z" fill="#834A27"/>
<path d="M58.843 44.9759C59.8837 44.5329 60.4462 44.0267 60.5188 43.4712C60.6829 42.1915 58.2454 41.7111 57.9149 37.2626C57.9138 37.2473 57.9158 37.2318 57.9207 37.2172C57.9256 37.2025 57.9333 37.189 57.9434 37.1774C57.9535 37.1657 57.9659 37.1562 57.9797 37.1493C57.9935 37.1424 58.0085 37.1383 58.0239 37.1372C58.0393 37.1362 58.0547 37.1381 58.0694 37.143C58.084 37.1479 58.0975 37.1556 58.1092 37.1658C58.1208 37.1759 58.1303 37.1882 58.1372 37.202C58.1441 37.2158 58.1482 37.2308 58.1493 37.2462C58.4751 41.622 60.9383 42.0603 60.7532 43.5017C60.6688 44.1439 60.0501 44.7134 58.9368 45.1915C58.9082 45.204 58.8758 45.2045 58.8468 45.1931C58.8178 45.1817 58.7945 45.1592 58.7821 45.1306C58.7697 45.102 58.7691 45.0697 58.7805 45.0406C58.792 45.0116 58.8144 44.9883 58.843 44.9759ZM64.2032 38.0197C64.1774 39.0861 63.5962 39.9392 62.9048 39.9228C62.2133 39.9064 61.6766 39.0251 61.7024 37.9587C61.7282 36.8923 62.3094 36.0369 62.9985 36.0556C63.6876 36.0744 64.2196 36.9509 64.2032 38.0197ZM53.4383 37.7595C53.4126 38.8259 52.8313 39.679 52.1399 39.6626C51.4485 39.6462 50.9094 38.765 50.9352 37.6986C50.961 36.6322 51.5423 35.7767 52.2337 35.7954C52.9251 35.8142 53.4712 36.6908 53.4383 37.7595ZM65.1571 32.1697C65.1074 32.1698 65.059 32.1543 65.0188 32.1251C62.4079 30.2361 59.7969 31.9798 59.6868 32.0548C59.6357 32.0892 59.5731 32.1021 59.5126 32.0907C59.452 32.0793 59.3984 32.0445 59.3633 31.9939C59.328 31.9429 59.3143 31.88 59.3253 31.8189C59.3363 31.7578 59.371 31.7036 59.4219 31.6681C59.4524 31.6494 62.4102 29.6595 65.2954 31.7454C65.3356 31.7745 65.3655 31.8156 65.3808 31.8628C65.3962 31.91 65.3961 31.9608 65.3808 32.0079C65.3654 32.0551 65.3355 32.0962 65.2953 32.1252C65.2551 32.1543 65.2067 32.1698 65.1571 32.1697ZM48.9337 31.9423C48.8859 31.9427 48.8391 31.9285 48.7996 31.9016C48.7602 31.8747 48.7298 31.8364 48.7128 31.7918C48.6957 31.7471 48.6926 31.6984 48.7041 31.652C48.7155 31.6056 48.7408 31.5638 48.7766 31.5322C51.4298 29.1556 54.5774 30.829 54.6102 30.8431C54.6373 30.8585 54.6611 30.8791 54.6802 30.9037C54.6994 30.9282 54.7135 30.9563 54.7217 30.9864C54.73 31.0164 54.7323 31.0478 54.7284 31.0787C54.7246 31.1096 54.7147 31.1395 54.6993 31.1665C54.6839 31.1936 54.6633 31.2174 54.6387 31.2366C54.6142 31.2557 54.586 31.2698 54.556 31.2781C54.526 31.2863 54.4946 31.2886 54.4637 31.2848C54.4328 31.2809 54.4029 31.271 54.3758 31.2556C54.2587 31.1923 51.4813 29.7298 49.0813 31.8814C49.0407 31.9184 48.9885 31.9399 48.9337 31.9423Z" fill="#2D1929"/>
<path d="M51.9606 62.9766C51.9606 62.9766 62.6786 63.7875 68.0434 70.8797C73.4083 77.9719 84.138 103.109 80.4653 107.093C76.7927 111.077 68.0434 114.145 57.8575 92.8383C57.8505 92.8383 42.1614 68.5242 51.9606 62.9766Z" fill="#834A27"/>
<path d="M41.4473 62.1421C41.4473 62.1421 27.1715 64.6429 25.2754 72.1429C23.3793 79.6429 28.1254 112.062 28.1254 112.062H65.7965C65.7965 112.062 67.6199 76.9898 65.7965 70.8937C63.973 64.7976 49.5355 61.5164 41.4473 62.1421Z" fill="#EFBD42"/>
<path d="M41.4471 62.1426C41.4471 62.1426 25.9784 64.9105 21.1385 75.2676C16.8331 84.5137 6.85571 104.147 13.2331 110.414C13.4674 110.649 14.4729 111.516 16.3104 112.055C28.6174 115.709 45.4526 94.5754 47.2479 92.2949L43.4534 82.6387L27.5885 93.598L35.1565 79.6551C39.5018 78.2769 42.7151 74.7754 43.4346 70.573C44.1823 66.2465 41.9791 62.9066 41.4471 62.1426Z" fill="#834A27"/>
<path d="M41.1547 62.1992C41.1547 62.1992 28.6508 64.4023 23.4383 70.8711C18.2258 77.3398 14 91.5781 14 91.5781L27.5773 93.5961L35.3914 81.9547C41.7195 80.0234 45.6852 74.7031 45.2797 69.5961C44.9633 65.593 42.0594 62.9586 41.1547 62.1992Z" fill="#EFBD42"/>
<path d="M41.1543 62.1977C41.1543 62.1977 48.8441 72.8148 52.5238 71.4344C56.2035 70.0539 54.6332 63.3859 54.6332 63.3859C54.6332 63.3859 47.4332 58.1359 41.1543 62.1977Z" fill="#834A27"/>
<path d="M54.6418 63.3875C54.6418 63.3875 62.2004 64.1352 67.298 69.5961C72.3957 75.057 78.0793 91.3297 78.0793 91.3297L63.4449 96.5633L56.5262 76.782L55.4738 65.4383L54.6418 63.3875ZM41.6809 57.3242C41.2068 57.4165 40.7587 57.6111 40.3676 57.8945C39.9766 58.1778 39.6521 58.5431 39.4168 58.9648C38.573 60.4227 37.2324 63.2211 37.2324 63.2211C37.2324 63.2211 42.3488 73.2805 46.0848 74.6609C49.8207 76.0414 52.0637 71.5648 52.0637 71.5648C52.0637 71.5648 45.7941 70.9133 41.6809 57.3242Z" fill="#EFBD42"/>
<path d="M52.0645 71.5594C52.0645 71.5594 52.9832 76.8398 55.3973 76.1484C57.8113 75.457 58.552 64.275 58.552 64.275C58.0379 63.4297 57.6569 62.5103 57.4223 61.5492C57.3275 61.2475 57.161 60.9733 56.9371 60.75C56.4241 60.2227 55.7405 59.8946 55.0082 59.8242C54.7734 63.8862 53.7747 67.8675 52.0645 71.5594Z" fill="#EFBD42"/>
<path d="M37.2324 63.2148C37.2324 63.2148 40.6426 75.5922 44.648 77.2773C48.6535 78.9625 52.0637 71.5562 52.0637 71.5562C51.7098 72.1094 49.2348 75.9016 46.373 75.5148C45.2457 75.3625 44.477 74.6172 43.959 74.0758C40.7809 70.7453 38.4863 66.1047 37.2324 63.2148ZM52.0637 71.5586C52.0637 71.5586 54.2035 76.9047 56.5168 76.2109C58.8301 75.5172 58.5418 64.2742 58.5418 64.2742C58.5418 64.2742 57.8902 74.9992 56.3527 74.9172C54.8152 74.8352 52.0637 71.5586 52.0637 71.5586Z" fill="#D7981A"/>
<path d="M93.4672 112.088H56.5273L59.0633 73.7563C59.1134 72.9828 59.4563 72.2575 60.0224 71.728C60.5885 71.1985 61.3351 70.9046 62.1102 70.9063H93.1719C93.5536 70.9061 93.9314 70.9843 94.2817 71.136C94.632 71.2878 94.9475 71.5098 95.2085 71.7884C95.4695 72.067 95.6706 72.3962 95.7992 72.7557C95.9278 73.1151 95.9813 73.4972 95.9563 73.8781L93.4672 112.088Z" fill="#2D1929"/>
<path d="M78.0793 101.639C80.8727 101.639 83.1371 99.3746 83.1371 96.5812C83.1371 93.7879 80.8727 91.5234 78.0793 91.5234C75.2859 91.5234 73.0215 93.7879 73.0215 96.5812C73.0215 99.3746 75.2859 101.639 78.0793 101.639Z" fill="white"/>
<path d="M27.5762 93.6039C27.5762 93.6039 30.8715 79.8086 31.9449 78.8125C33.0184 77.8164 30.6277 91.4969 30.6277 91.4969L27.5762 93.6039ZM26.791 110.502V112.061H49.4199C49.4199 112.061 40.748 110.465 40.1457 108.013C39.5434 105.562 46.5277 93.1891 46.5277 93.1891C41.0872 100.142 34.393 106.014 26.791 110.502ZM52.0637 71.5586C51.9074 77.8086 51.7512 84.0523 51.5949 90.2898L56.8238 90.1164L53.2613 88.9094C52.8645 83.125 52.4652 77.3414 52.0637 71.5586Z" fill="#D7981A"/>
<path d="M54.8648 79.5402C55.4913 79.5402 55.9992 79.0324 55.9992 78.4059C55.9992 77.7794 55.4913 77.2715 54.8648 77.2715C54.2383 77.2715 53.7305 77.7794 53.7305 78.4059C53.7305 79.0324 54.2383 79.5402 54.8648 79.5402Z" fill="white"/>
<path d="M55.3082 85.5754C55.9347 85.5754 56.4426 85.0675 56.4426 84.441C56.4426 83.8145 55.9347 83.3066 55.3082 83.3066C54.6817 83.3066 54.1738 83.8145 54.1738 84.441C54.1738 85.0675 54.6817 85.5754 55.3082 85.5754Z" fill="white"/>
<path d="M41.1536 84.8304C41.1536 84.8304 44.8779 80.5765 46.7177 79.0812C48.5575 77.5859 57.363 76.8289 58.0404 77.9093C58.7177 78.9898 52.0638 80.2953 52.0638 80.2953C52.0638 80.2953 53.3857 80.4804 53.5568 81.1203C53.7279 81.7601 53.088 82.6531 53.088 82.6531C53.088 82.6531 55.1575 83.0539 53.5779 84.8375C53.5779 84.8375 55.1786 85.0718 54.6325 86.4781C54.0865 87.8843 51.0044 91.3203 49.6122 92.3937C48.22 93.4671 45.9232 92.3937 45.9232 92.3937C45.9232 92.3937 39.0583 88.0859 41.1536 84.8304Z" fill="#834A27"/>
<path d="M14 91.5859L22.9063 94.5625C19.0445 96.7043 15.9351 99.9822 14 103.952C17.8611 99.7078 22.4617 96.2016 27.5773 93.6039L14 91.5859Z" fill="#6E3D1E"/>
<path d="M49.9219 80.7671C49.8908 80.7695 49.86 80.7596 49.8362 80.7394C49.8125 80.7191 49.7978 80.6903 49.7953 80.6592C49.7928 80.6282 49.8028 80.5974 49.823 80.5736C49.8432 80.5499 49.872 80.5352 49.9031 80.5327L52.0476 80.1694C52.0783 80.1646 52.1097 80.172 52.1351 80.1899C52.1605 80.2078 52.1779 80.235 52.1836 80.2655C52.1862 80.2806 52.1859 80.2961 52.1825 80.311C52.179 80.326 52.1727 80.3401 52.1637 80.3526C52.1548 80.365 52.1434 80.3756 52.1303 80.3835C52.1172 80.3915 52.1027 80.3968 52.0875 80.3991C49.8586 80.7811 49.9406 80.7671 49.9219 80.7671ZM51.4125 83.4225C51.3971 83.4253 51.3813 83.425 51.366 83.4217C51.3508 83.4183 51.3363 83.412 51.3234 83.4031C51.3106 83.3942 51.2996 83.3828 51.2912 83.3697C51.2827 83.3565 51.277 83.3418 51.2742 83.3264C51.2714 83.311 51.2717 83.2953 51.275 83.28C51.2784 83.2647 51.2847 83.2502 51.2936 83.2374C51.3025 83.2246 51.3139 83.2136 51.3271 83.2051C51.3402 83.1967 51.3549 83.1909 51.3703 83.1882L53.0555 82.5272C53.0698 82.5215 53.0851 82.5187 53.1005 82.5189C53.1159 82.5191 53.1311 82.5224 53.1452 82.5285C53.1594 82.5346 53.1722 82.5434 53.1829 82.5544C53.1936 82.5655 53.2021 82.5785 53.2078 82.5928C53.2135 82.6072 53.2163 82.6224 53.2161 82.6378C53.2159 82.6533 53.2126 82.6685 53.2065 82.6826C53.2004 82.6967 53.1916 82.7096 53.1806 82.7203C53.1695 82.731 53.1565 82.7395 53.1422 82.7452C51.3281 83.4624 51.4453 83.4225 51.4125 83.4225ZM52.064 86.2491C52.04 86.2493 52.0164 86.2422 51.9966 86.2286C51.9768 86.215 51.9616 86.1956 51.9531 86.1731C51.9447 86.1505 51.9434 86.126 51.9494 86.1027C51.9554 86.0794 51.9684 86.0585 51.9867 86.0428L53.5101 84.7397C53.5338 84.7195 53.5644 84.7095 53.5954 84.7119C53.6264 84.7144 53.6552 84.729 53.6754 84.7526C53.6956 84.7762 53.7056 84.8069 53.7031 84.8379C53.7007 84.8689 53.6861 84.8976 53.6625 84.9178C52.0453 86.3007 52.1273 86.2491 52.064 86.2491Z" fill="#2D1929"/>
<path d="M53.3672 47.0059L60.6328 48.8809C60.6328 48.8809 59.1773 50.8355 56.9953 50.6809C54.8133 50.5262 53.3672 47.0059 53.3672 47.0059Z" fill="white"/>
<path d="M96.686 88.1383C96.686 88.1383 90.4844 86.118 89.8516 87.3227C89.2188 88.5274 93.3883 90.2875 93.3883 90.2875C93.3883 90.2875 89.4414 89.0079 89.2071 90.0532C88.9727 91.0985 93.018 93.2055 93.018 93.2055C93.018 93.2055 89.9172 92.0571 89.6735 93.2805C89.4297 94.504 93.3907 96.2149 93.3907 96.2149C93.3907 96.2149 90.7821 95.3055 90.7539 96.3297C90.7258 97.354 95.1204 99.8618 96.0719 99.5618C97.0235 99.2618 96.1985 97.1969 96.1985 97.1969C96.1985 97.1969 98.5633 96.3321 96.5125 94.3329C96.5125 94.3329 98.4039 93.3766 96.7 91.3305C96.7 91.3399 99.1961 89.5305 96.686 88.1383Z" fill="#834A27"/>
<path d="M96.7012 91.4587C96.673 91.4587 96.9074 91.5313 93.3543 90.4016C93.3232 90.3923 93.2971 90.371 93.2817 90.3425C93.2663 90.3139 93.2629 90.2804 93.2723 90.2493C93.2816 90.2182 93.3029 90.1921 93.3314 90.1767C93.36 90.1613 93.3935 90.1579 93.4246 90.1673L96.7363 91.222C96.7677 91.2266 96.796 91.2436 96.8149 91.2691C96.8338 91.2946 96.8418 91.3265 96.8371 91.3579C96.8324 91.3893 96.8155 91.4175 96.79 91.4364C96.7645 91.4553 96.7326 91.4633 96.7012 91.4587ZM96.5137 94.454C96.4832 94.454 96.748 94.5384 92.6676 93.1509C92.6365 93.1409 92.6106 93.119 92.5957 93.09C92.5807 93.061 92.5779 93.0273 92.5879 92.9962C92.5978 92.9651 92.6197 92.9392 92.6487 92.9243C92.6777 92.9094 92.7115 92.9065 92.7426 92.9165L96.5629 94.2313C96.5866 94.2428 96.6058 94.262 96.6173 94.2857C96.6288 94.3094 96.6319 94.3364 96.6263 94.3621C96.6206 94.3879 96.6064 94.4109 96.5859 94.4276C96.5655 94.4443 96.54 94.4536 96.5137 94.454ZM96.1996 97.3251C96.1668 97.3251 96.3894 97.4048 92.6652 96.0149C92.6362 96.0034 92.6128 95.9811 92.5997 95.9528C92.5866 95.9244 92.5849 95.8922 92.5949 95.8626C92.6004 95.8481 92.6087 95.8348 92.6193 95.8235C92.6299 95.8122 92.6427 95.8031 92.6569 95.7968C92.6711 95.7904 92.6863 95.787 92.7019 95.7866C92.7174 95.7863 92.7328 95.789 92.7473 95.7946L96.2394 97.1001C96.2639 97.1104 96.2841 97.1287 96.2968 97.1521C96.3095 97.1754 96.3139 97.2023 96.3092 97.2285C96.3046 97.2546 96.2912 97.2784 96.2713 97.296C96.2514 97.3135 96.2261 97.3238 96.1996 97.3251Z" fill="#2D1929"/>
<path d="M45.703 21.8291C45.703 21.8291 48.1335 32.9268 38.7702 34.6776C38.7702 34.6776 39.7077 47.1276 42.3842 50.7158C42.3842 50.7158 31.1342 42.8666 30.4311 28.9565C29.728 15.0463 43.0874 14.3549 43.0874 14.3549C43.0874 14.3549 57.4803 10.0987 64.1952 16.0799C70.91 22.0612 66.8975 31.8018 66.8975 31.8018C66.8975 31.8018 64.8303 25.2768 61.6897 22.6893C61.6991 22.6893 53.96 25.7362 45.703 21.8291Z" fill="#917EEC"/>
<path d="M41.81 36.0933C41.053 33.4261 38.66 31.7691 36.4639 32.3902C34.2678 33.0113 33.1006 35.6714 33.8577 38.3503C34.6147 41.0292 37.0077 42.6745 39.2038 42.0535C41.3998 41.4324 42.567 38.7558 41.81 36.0933Z" fill="#834A27"/>
<path d="M39.6686 39.624C39.6545 39.624 38.3092 39.2701 38.3256 37.9319C38.3256 37.0858 39.4506 36.8842 39.8654 36.8373C39.6662 36.2631 38.8108 34.0928 37.2873 34.0037C35.8623 33.924 35.7334 35.5225 35.7287 35.5904C35.7269 35.6215 35.7127 35.6506 35.6894 35.6712C35.6661 35.6919 35.6356 35.7025 35.6045 35.7006C35.5734 35.6987 35.5444 35.6846 35.5237 35.6613C35.503 35.638 35.4925 35.6075 35.4944 35.5764C35.4944 35.5553 35.642 33.6709 37.3014 33.7694C39.2115 33.8795 40.0998 36.7858 40.1373 36.9076C40.1423 36.9249 40.1433 36.943 40.1403 36.9606C40.1373 36.9783 40.1304 36.9951 40.12 37.0097C40.1097 37.0243 40.0962 37.0364 40.0805 37.0451C40.0648 37.0538 40.0474 37.0589 40.0295 37.06C40.0154 37.06 38.5717 37.1373 38.56 37.9342C38.5459 39.085 39.6756 39.385 39.7319 39.3967C39.762 39.4051 39.7876 39.4251 39.803 39.4524C39.8183 39.4796 39.8223 39.5119 39.8139 39.542C39.8055 39.5722 39.7855 39.5977 39.7582 39.6131C39.731 39.6285 39.6987 39.6324 39.6686 39.624Z" fill="#2D1929"/>
<path d="M30.7473 31.8021C30.7473 31.8021 51.8551 15.5786 64.2044 16.0802C63.439 14.4273 62.4055 12.9123 61.1458 11.5966C59.5667 10.0359 57.7243 8.76641 55.7036 7.8466C46.6661 3.92316 21.1614 14.3716 30.7473 31.8021Z" fill="#EFBD42"/>
<path d="M51.9993 15.9612C55.2742 14.9987 57.5588 12.9589 57.1021 11.4053C56.6454 9.85169 53.6205 9.3726 50.3456 10.3352C47.0708 11.2978 44.7862 13.3376 45.2429 14.8912C45.6995 16.4447 48.7245 16.9238 51.9993 15.9612Z" fill="white"/>
<path d="M44.1309 23.036C44.923 20.779 48.0801 12.6415 56.0113 9.52662C60.2582 7.86022 67.7957 6.87584 69.959 10.2157C70.3947 10.9295 70.6084 11.7567 70.573 12.5922C70.573 12.5922 70.3129 14.3782 66.434 18.7751C58.5801 17.1274 50.7848 18.7915 44.1309 23.036Z" fill="#D7981A"/>
<path d="M107.325 32.4727H81.1543V51.5953H107.325V32.4727Z" fill="#40C2D6"/>
<path d="M109.432 32.4727H91.2676V51.5953H109.432V32.4727Z" fill="#86EBF9"/>
<path d="M102.541 32.4727H98.4414V38.0484H102.541V32.4727Z" fill="#40C2D6"/>
<path d="M89.4102 19.0098L96.1367 29.2426L102.516 19.2934C98.1878 20.2481 93.6934 20.1508 89.4102 19.0098Z" fill="#E73F46"/>
<path d="M95.9633 9.57422C94.5559 9.57422 93.1802 9.99154 92.0101 10.7734C90.8399 11.5553 89.9279 12.6666 89.3893 13.9668C88.8507 15.267 88.7098 16.6977 88.9844 18.078C89.2589 19.4583 89.9366 20.7262 90.9318 21.7214C91.9269 22.7165 93.1948 23.3942 94.5751 23.6687C95.9554 23.9433 97.3861 23.8024 98.6863 23.2638C99.9865 22.7253 101.098 21.8132 101.88 20.6431C102.662 19.4729 103.079 18.0972 103.079 16.6898C103.079 14.8027 102.329 12.9928 100.995 11.6583C99.6604 10.3239 97.8505 9.57422 95.9633 9.57422ZM95.9633 19.2938C95.3968 19.2938 94.8431 19.1258 94.3721 18.8111C93.9011 18.4964 93.534 18.0491 93.3172 17.5257C93.1005 17.0024 93.0437 16.4265 93.1543 15.8709C93.2648 15.3154 93.5375 14.805 93.9381 14.4045C94.3386 14.0039 94.849 13.7312 95.4045 13.6207C95.9601 13.5101 96.536 13.5669 97.0593 13.7836C97.5827 14.0004 98.03 14.3675 98.3447 14.8385C98.6594 15.3095 98.8273 15.8632 98.8273 16.4297C98.8273 17.1893 98.5256 17.9178 97.9885 18.4549C97.4514 18.992 96.7229 19.2938 95.9633 19.2938Z" fill="#E73F46"/>
</svg>
