<svg width="156" height="156" viewBox="0 0 156 156" fill="none" xmlns="http://www.w3.org/2000/svg">
<circle cx="78" cy="78" r="78" fill="#FFE9E9"/>
<path d="M46.5366 101.809H109.591V110.003H46.5366V101.809Z" fill="white"/>
<path d="M108.955 105.085C109.047 105.565 98.7005 106.275 97.7327 106.267C91.0394 106.2 84.5337 105.04 77.8969 104.567C71.0243 104.069 64.19 103.687 57.3008 104.169C53.594 104.426 49.072 105.14 47.1564 108.777C46.5893 108.201 46.2051 107.471 46.0521 106.677C45.8991 105.884 45.9842 105.063 46.2967 104.317C46.6092 103.572 47.135 102.936 47.8082 102.489C48.4813 102.042 49.2716 101.804 50.0797 101.805H104.941C105.885 101.805 106.801 102.132 107.532 102.73C108.263 103.327 108.766 104.159 108.955 105.085Z" fill="#E1D2D5"/>
<path d="M80.1867 45.4815C79.1852 45.925 78.2918 46.5805 77.5681 47.4027C76.8445 48.225 76.3078 49.1944 75.9951 50.2441L60.6796 101.81H54.5674L69.8862 50.2441C70.1922 49.2151 70.7138 48.263 71.4163 47.4512C72.1188 46.6395 72.9862 45.9866 73.9606 45.536C74.9351 45.0855 75.9943 44.8476 77.0678 44.8382C78.1413 44.8288 79.2045 45.0481 80.1867 45.4815Z" fill="#E1D2D5"/>
<path d="M100.249 101.856H55.124L57.8598 92.6445H97.513L100.249 101.856Z" fill="#F3AA9F"/>
<path d="M93.0854 78.3382H62.0112L66.3008 63.8926H88.7943L93.0854 78.3382Z" fill="#F3AA9F"/>
<path d="M66.4399 63.8926H72.0807L67.831 78.1988L67.7895 78.3382H62.1504L66.4399 63.8926Z" fill="#E1978F"/>
<path d="M55.1357 102.505L57.8582 93.3379H63.3994L60.6786 102.505H55.1357Z" fill="#E1978F"/>
<path d="M101.445 102.849H53.6494L69.3467 50.0016C69.8719 48.2342 70.954 46.6836 72.4319 45.5811C73.9098 44.4785 75.7043 43.8828 77.5481 43.8828C79.392 43.8828 81.1865 44.4785 82.6643 45.5811C84.1422 46.6836 85.2243 48.2342 85.7495 50.0016L101.445 102.849ZM56.3204 100.857H98.7708L83.8305 50.5694C83.4274 49.2137 82.5972 48.0245 81.4635 47.1788C80.3298 46.3332 78.9533 45.8763 77.539 45.8763C76.1247 45.8763 74.7481 46.3332 73.6145 47.1788C72.4808 48.0245 71.6506 49.2137 71.2475 50.5694L56.3204 100.857Z" fill="#4F5258"/>
<path d="M105.477 110.998H49.5421C48.334 110.997 47.1757 110.516 46.3215 109.662C45.4672 108.808 44.9867 107.65 44.9854 106.441V105.367C44.9867 104.159 45.4672 103.001 46.3215 102.147C47.1757 101.292 48.334 100.812 49.5421 100.811H105.477C106.685 100.812 107.843 101.292 108.698 102.147C109.552 103.001 110.033 104.159 110.034 105.367V106.441C110.033 107.65 109.552 108.808 108.698 109.662C107.843 110.516 106.685 110.997 105.477 110.998ZM49.5421 102.803C48.8622 102.803 48.2104 103.074 47.7296 103.555C47.2488 104.036 46.9783 104.687 46.9774 105.367V106.441C46.9783 107.121 47.2488 107.773 47.7296 108.254C48.2104 108.735 48.8622 109.005 49.5421 109.006H105.477C106.157 109.005 106.809 108.735 107.29 108.254C107.77 107.773 108.041 107.121 108.042 106.441V105.367C108.041 104.687 107.77 104.036 107.29 103.555C106.809 103.074 106.157 102.803 105.477 102.803H49.5421Z" fill="#4F5258"/>
<path d="M66.6768 62.7578H88.7984V64.7499H66.6768V62.7578Z" fill="#4F5258"/>
<path d="M62.2314 77.2031H92.8259V79.1952H62.2314V77.2031Z" fill="#4F5258"/>
<path d="M57.9263 91.6465H97.3704V93.6385H57.9263V91.6465Z" fill="#4F5258"/>
<path d="M88.6746 75.466C89.0127 75.3712 88.971 74.1687 88.5815 72.7801C88.1919 71.3916 87.6021 70.3428 87.264 70.4376C86.9259 70.5325 86.9676 71.735 87.3571 73.1236C87.7467 74.5121 88.3365 75.5609 88.6746 75.466Z" fill="white"/>
<path d="M86.9678 69.2796C87.3059 69.1848 87.422 68.5447 87.2271 67.85C87.0322 67.1553 86.6002 66.669 86.2621 66.7638C85.924 66.8587 85.8079 67.4987 86.0028 68.1934C86.1977 68.8882 86.6297 69.3744 86.9678 69.2796Z" fill="white"/>
</svg>
